<?xml version="1.0" encoding="UTF-8"?>
<svg width="2e3" height="307" version="1.1" viewBox="0 0 529.2 81.23" xmlns="http://www.w3.org/2000/svg" xmlns:cc="http://creativecommons.org/ns#" xmlns:dc="http://purl.org/dc/elements/1.1/" xmlns:rdf="http://www.w3.org/1999/02/22-rdf-syntax-ns#" xmlns:xlink="http://www.w3.org/1999/xlink"><defs><radialGradient id="radialGradient9398" cx="4.215" cy="62.64" r="26.82" gradientTransform="matrix(1 0 0 1.007 23 -11.6)" gradientUnits="userSpaceOnUse"><stop offset="0"/><stop stop-opacity="0" offset="1"/></radialGradient><filter id="filter9498" x="-.281" y="-.1607" width="1.561" height="1.316" color-interpolation-filters="sRGB"><feGaussianBlur stdDeviation="1.0421884"/></filter><linearGradient id="linearGradient9531" x1="90.77" x2="102.1" y1="237.6" y2="254.9" gradientUnits="userSpaceOnUse"><stop offset="0"/><stop stop-opacity="0" offset="1"/></linearGradient><linearGradient id="linearGradient9543" x1="90.77" x2="102.1" y1="237.6" y2="254.9" gradientUnits="userSpaceOnUse"><stop stop-color="#00f" offset="0"/><stop stop-color="#00f" stop-opacity="0" offset="1"/></linearGradient><filter id="filter9623" x="-.2975" y="-.2125" width="1.595" height="1.425" color-interpolation-filters="sRGB"><feGaussianBlur stdDeviation="1.0686746"/></filter><filter id="filter9803" x="-.3528" y="-.4215" width="1.696" height="1.828" color-interpolation-filters="sRGB"><feGaussianBlur stdDeviation="1.3168095"/></filter><filter id="filter9823" x="-.3418" y="-.2391" width="1.688" height="1.475" color-interpolation-filters="sRGB"><feGaussianBlur stdDeviation="1.1300168"/></filter></defs><metadata><rdf:RDF><cc:Work rdf:about=""><dc:format>image/svg+xml</dc:format><dc:type rdf:resource="http://purl.org/dc/dcmitype/StillImage"/></cc:Work></rdf:RDF></metadata><g transform="translate(0 -215.8)"><path id="path9272" d="m128 276.9-0.767-0.7951-0.2321-3.703c-0.2085-3.327-0.2021-3.726 0.0628-3.929 0.1622-0.1242 1.636-1.353 3.275-2.73l2.98-2.505-1.591-2.978-1.339-0.451c-0.7367-0.2481-2.018-0.7921-2.847-1.209-1.706-0.8579-1.533-0.9174-2.492 0.8558l-0.5534 1.023 0.3953 1.216 0.3953 1.216-1.058 0.6322c-2.309 1.38-3.751 2.18-3.931 2.18-0.1038 0-0.6304-0.7367-1.17-1.637-0.54-0.9004-1.089-1.806-1.22-2.012-0.2114-0.3327-0.071-0.6692 1.234-2.956 0.81-1.419 1.704-3.229 1.986-4.021 0.2825-0.7924 0.5634-1.5 0.6243-1.572 0.0609-0.0724 2.384 0.3268 5.161 0.887s5.19 1.019 5.361 1.02c0.6173 3e-3 2.204-4.858 2.213-6.78l2e-3 -0.5145-1.731-7.9e-4c-3.035-1e-3 -5.61-0.5422-9.043-1.9l-1.887-0.7461-0.3074-2.185c-0.497-3.533-1.313-6.145-2.748-8.794-0.4265-0.7874-0.5053-1.074-0.327-1.19 0.4958-0.3222 3.123-1.067 4.18-1.184l1.107-0.1232 1.684 4.995c1.881 5.58 1.87 5.563 3.311 5.147 0.472-0.1362 2.473-0.2711 4.833-0.3259l4.028-0.0934 1.478-2.701c1.326-2.423 1.669-2.892 3.333-4.562 1.935-1.941 4.366-3.735 5.062-3.735 0.2229 1.1e-4 1.71 0.1684 3.305 0.374 1.595 0.2056 2.984 0.3799 3.087 0.3874 0.1029 8e-3 -0.9495 0.3527-2.339 0.7672-1.389 0.4144-2.646 0.8504-2.792 0.9688-0.529 0.4269-2.483 3.206-3.785 5.383l-1.329 2.222 0.1252 1.169c0.2563 2.393 0.1304 2.197 2.544 3.961l2.213 1.617 0.5514 1.537c0.3033 0.8454 0.653 1.851 0.7771 2.235 0.1931 0.5974 0.3383 0.7276 1.007 0.9036 0.43 0.1131 1.482 0.4008 2.339 0.6392 1.096 0.3052 1.579 0.37 1.632 0.2189 0.0417-0.118 0.4187-1.769 0.8379-3.669 0.4192-1.9 0.779-3.463 0.7997-3.472 0.0207-0.01 1.342-0.4242 2.937-0.921s2.991-0.9374 3.102-0.9789c0.1925-0.0718 1.014 2.519 1.014 3.198 0 0.172-0.6255 1.028-1.39 1.903-0.7645 0.8744-1.433 1.818-1.486 2.097-0.053 0.2789-0.1962 1.517-0.3183 2.752l-0.222 2.245-2.353 1.764-2.494-0.0932c-3.516-0.1314-5.02-0.2675-5.721-0.5179-0.3346-0.1195-1.738-1.291-3.119-2.602-1.741-1.654-2.601-2.35-2.806-2.272-0.1626 0.0624-0.2956 0.219-0.2956 0.348 0 0.2242 2.958 7.379 3.365 8.14 0.4453 0.832 3.427 2.143 6.831 3.003l2.058 0.5201 0.0511 3.289c0.0502 3.23 0.0586 3.291 0.4677 3.381 2.334 0.5125 2.408 0.5472 2.876 1.344l0.4552 0.7753-0.7089 0.437c-0.3899 0.2403-1.346 0.9503-2.124 1.578l-1.415 1.141-2.253-0.163-0.6844-3.85c-0.3764-2.117-0.7766-3.907-0.8892-3.976s-0.2186-0.1944-0.2355-0.2774c-0.0169-0.083-1.617-0.9389-3.556-1.902l-3.525-1.751-1.339 0.4184c-0.7364 0.2301-1.368 0.4371-1.404 0.46-0.0358 0.0229-0.6914 2.214-1.457 4.87-0.7655 2.655-1.452 4.88-1.525 4.945-0.1031 0.0901-9.197 2.414-9.446 2.414-0.0315 0-0.4024-0.3578-0.8242-0.7951z" fill="#f00" opacity=".18" stroke="#000" stroke-opacity=".2929" stroke-width=".5613"/><path id="path9274" d="m7.412 253.8c-0.9425-0.819-2.507-2.549-2.791-3.085-0.07357-0.139 1.27-1.802 3.379-4.184 2.418-2.731 3.492-4.077 3.472-4.353-0.01622-0.2203-0.3271-0.7146-0.6909-1.098-1.063-1.122-1.842-2.26-3.336-4.873l-1.403-2.454-3.216-6e-3c-4.068-8e-3 -6.42-0.5101-9.708-2.074l-1.511-0.7185-1.249-2.964c-0.6867-1.63-1.249-3.034-1.249-3.12 0-0.0858 0.833 0.6436 1.851 1.621 1.78 1.708 1.897 1.786 3.04 2.004 0.6539 0.125 2.766 0.2729 4.695 0.3286l3.506 0.1013 1.382-1.04c1.552-1.168 1.406-0.7953 1.82-4.635l0.2137-1.979 1.475-1.705c0.8111-0.9379 1.473-1.858 1.47-2.044-0.0042-0.3326-1.055-4.371-1.159-4.453-0.02913-0.0229-1.61 0.4511-3.514 1.054-1.904 0.6024-3.545 1.063-3.648 1.023-0.32-0.1233-4.788-4.275-4.731-4.396 0.02958-0.063 0.601-0.633 1.27-1.267l1.216-1.152 4.355 0.831 4.965-2.196 1.287 0.5248c0.7079 0.2886 1.412 0.7139 1.565 0.9451 0.6537 0.9891 2.917 5.495 3.258 6.487l0.372 1.081-0.866 3.461c-0.7192 2.874-0.8217 3.489-0.6043 3.627 0.144 0.0911 0.3204 0.167 0.3921 0.1686 0.144 3e-3 5.24-6.666 5.583-7.306 0.3873-0.7237-0.1672-4.791-1.031-7.565-0.2565-0.8232-0.4676-1.552-0.4691-1.619-0.0016-0.0671 1.26-0.8513 2.804-1.743 1.543-0.8914 2.806-1.689 2.806-1.773 0-0.0837-0.2016-0.6883-0.4479-1.344l-0.4479-1.192 0.3628-0.7112c0.1996-0.3912 0.4672-0.7513 0.5947-0.8002 0.1275-0.0489 0.8183 0.1951 1.535 0.5424 0.7167 0.3472 1.742 0.7759 2.278 0.9526 0.8736 0.2879 1.033 0.4277 1.529 1.344l0.5541 1.023-1.364 1.163c-0.7504 0.6394-2.128 1.794-3.061 2.566-0.9333 0.7717-1.665 1.503-1.625 1.625 0.03944 0.122-0.0109 0.2493-0.1118 0.2829-0.1181 0.0394-0.08611 1.454 0.08971 3.967l0.2732 3.906 0.9902 1.003c0.5446 0.5514 1.143 1.003 1.33 1.003 0.1868 0 2.355-0.5051 4.818-1.123s4.619-1.123 4.791-1.123c0.2651 0 6.11 5.826 6.743 6.722 0.1578 0.2231 0.1628 0.5694 0.01884 1.297l-0.1964 0.9932-3.055 2.042c-1.68 1.123-3.173 2.042-3.317 2.042-0.1443 0-1.093-0.3028-2.109-0.6728-1.016-0.37-2.746-0.9968-3.845-1.393l-1.998-0.7202-1.773 2.844 0.2375 1.14c0.1306 0.6271 0.2761 1.814 0.3233 2.637 0.1433 2.499 0.02101 2.339 1.783 2.339h1.525l1.714-1.872 2.432 1.423c1.338 0.7826 2.462 1.451 2.499 1.486 0.03664 0.0348-0.4608 1.037-1.105 2.226l-1.172 2.163-3.104 1e-3c-2.82 1e-3 -4.3 0.1221-5.64 0.4614-0.4758 0.1205-0.4864 0.0964-2.229-5.06l-1.751-5.181-1.419 0.1099c-1.915 0.1484-5.815 1.376-5.815 1.83 0 0.0877 0.4216 0.9485 0.9369 1.913 1.511 2.828 2.489 6.109 2.73 9.16l0.1068 1.351-1.507 1.098c-2.027 1.477-4.561 4.136-5.945 6.24l-1.136 1.726z" fill="#0f0" opacity=".18" stroke="#000" stroke-opacity=".2929" stroke-width=".5613"/><use transform="rotate(240 104 275.7)" width="100%" height="100%" xlink:href="#path9272"/><use transform="translate(155.8 29.93)" width="100%" height="100%" xlink:href="#path9274"/><path id="path9274-1" d="m133.2 250.4c-0.238 1.226-0.9536 3.446-1.276 3.96-0.0836 0.1332-2.195-0.1985-5.313-0.8345-3.574-0.7292-5.277-0.9858-5.506-0.8299-0.1826 0.1242-0.4553 0.6406-0.6059 1.148-0.4402 1.482-1.036 2.726-2.552 5.326l-1.424 2.442 1.603 2.788c2.027 3.527 2.768 5.815 3.058 9.444l0.1332 1.668-1.943 2.563c-1.069 1.41-2.004 2.598-2.078 2.641-0.0743 0.0429 0.1408-1.043 0.4781-2.414 0.5895-2.396 0.5978-2.536 0.2155-3.635-0.2187-0.6288-1.147-2.532-2.063-4.23l-1.665-3.087-1.592-0.6769c-1.788-0.76-1.392-0.8197-4.924 0.7412l-1.82 0.8042-2.214-0.4245c-1.218-0.2334-2.345-0.3467-2.505-0.2516-0.2859 0.1699-3.258 3.099-3.277 3.23-0.0057 0.0367 1.196 1.169 2.669 2.517 1.473 1.347 2.693 2.539 2.71 2.648 0.0532 0.3388-1.308 6.284-1.442 6.295-0.0694 6e-3 -0.8487-0.204-1.732-0.4661l-1.606-0.4771-1.458-4.187-4.384-3.202-0.189-1.377c-0.104-0.7573-0.0877-1.58 0.036-1.828 0.5297-1.061 3.3-5.274 3.989-6.065l0.7503-0.8628 3.431-0.9806c2.849-0.8144 3.433-1.033 3.443-1.29 7e-3 -0.1702-0.0156-0.361-0.05-0.4239-0.0694-0.1262-8.393-1.205-9.119-1.182-0.8204 0.0264-4.065 2.54-6.035 4.676-0.5847 0.6337-1.11 1.181-1.167 1.216-0.05709 0.0353-1.367-0.6656-2.911-1.557-1.544-0.891-2.866-1.586-2.939-1.544-0.0725 0.0419-0.4953 0.5187-0.9397 1.06l-0.8079 0.9837-0.7974 0.0414c-0.4385 0.0228-0.8842-0.029-0.9904-0.1149-0.1061-0.086-0.2402-0.8062-0.2978-1.601-0.05761-0.7943-0.199-1.896-0.3141-2.449-0.1875-0.9005-0.1459-1.108 0.3997-1.996l0.6089-0.9914 1.689 0.6003c0.929 0.3302 2.618 0.9459 3.753 1.368 1.135 0.4224 2.134 0.6901 2.22 0.595 0.08594-0.0951 0.2214-0.1152 0.3009-0.0446 0.09319 0.0825 1.302-0.6523 3.391-2.061l3.246-2.19 0.3734-1.359c0.2054-0.7473 0.2969-1.491 0.2034-1.653-0.0934-0.1617-1.615-1.787-3.381-3.611-1.766-1.825-3.282-3.439-3.368-3.588-0.1325-0.2296 1.99-8.204 2.449-9.201 0.1143-0.2481 0.4118-0.4257 1.114-0.665l0.9583-0.3265 3.296 1.625c1.813 0.8936 3.355 1.727 3.427 1.852 0.07219 0.125 0.2845 1.098 0.4718 2.163 0.1873 1.064 0.5095 2.876 0.716 4.026l0.3754 2.091 3.349 0.1131 0.8687-0.7758c0.4778-0.4267 1.433-1.146 2.122-1.598 2.093-1.374 2.015-1.188 1.134-2.713l-0.7625-1.321-2.478-0.5477 0.0162-2.818c9e-3 -1.55 0.0258-2.858 0.0377-2.907 0.0121-0.049 1.128-0.1192 2.481-0.1557l2.459-0.0663 1.553 2.688c1.411 2.442 2.256 3.663 3.22 4.654 0.3423 0.3518 0.3267 0.3731-3.268 4.461l-3.612 4.107 0.8047 1.174c1.086 1.585 4.099 4.349 4.493 4.121 0.0759-0.0438 0.6106-0.8393 1.188-1.768 1.693-2.722 4.046-5.21 6.567-6.944l1.116-0.7678 1.705 0.7562c2.293 1.017 5.862 1.881 8.377 2.029l2.063 0.121z" fill="#00f" opacity=".18" stroke="#000" stroke-opacity=".2929" stroke-width=".5613"/><use transform="translate(-51.82 -30.12)" width="100%" height="100%" xlink:href="#path9274-1"/><g><path d="m95.13 260.2c-0.8204 0.0264-4.065 2.54-6.035 4.676-0.5847 0.6337-1.11 1.181-1.167 1.216-0.05709 0.0353-1.367-0.6656-2.911-1.557-1.544-0.891-2.866-1.586-2.939-1.544-0.0725 0.0419-0.4953 0.5187-0.9397 1.06l-0.8079 0.9837-0.7974 0.0414c-0.4385 0.0228-0.8842-0.029-0.9904-0.1149-0.1061-0.086-0.2402-0.8062-0.2978-1.601-0.05761-0.7943-0.199-1.896-0.3141-2.449-0.1875-0.9005-0.1459-1.108 0.3997-1.996l0.6089-0.9914 1.689 0.6003c0.929 0.3302 2.618 0.9459 3.753 1.368 1.135 0.4224 2.134 0.6901 2.22 0.595 0.08594-0.0951 0.2214-0.1152 0.3009-0.0446 0.09319 0.0825 1.302-0.6523 3.391-2.061l3.246-2.19 0.3734-1.359c0.2054-0.7473 0.2969-1.491 0.2034-1.653-0.0934-0.1617-1.615-1.787-3.381-3.611-1.766-1.825-3.282-3.439-3.368-3.588-0.1325-0.2296 1.99-8.204 2.449-9.201 0.1143-0.2481 0.4118-0.4257 1.114-0.665l0.9583-0.3265 3.296 1.625c1.813 0.8936 3.355 1.727 3.427 1.852 0.0722 0.125 0.2845 1.098 0.4718 2.163 0.1873 1.064 0.5095 2.876 0.716 4.026l0.3754 2.091 3.349 0.1131 0.8687-0.7758c0.4778-0.4267 1.433-1.146 2.122-1.598 2.093-1.374 2.015-1.188 1.134-2.713l-0.7625-1.321-2.478-0.5477 0.0162-2.818c9e-3 -1.55 0.0258-2.858 0.0377-2.907 0.0121-0.049 1.128-0.1192 2.481-0.1557l2.459-0.0663 1.553 2.688c1.411 2.442 2.256 3.663 3.22 4.654 0.3423 0.3518 0.3267 0.3731-3.268 4.461l-3.612 4.107 0.8047 1.174z" fill="url(#linearGradient9543)" stroke="url(#linearGradient9531)" stroke-opacity=".2929" stroke-width=".5613"/><path d="m85.44 236.2 5.364 0.5747 0.7663 3.832-0.3832 6.131 3.065 5.939-0.3832-1.341-9.004-5.173z" filter="url(#filter9498)" opacity=".453" stroke="#000" stroke-width=".2646px"/><path d="m91.91 235.7-0.7663 1.102 7.807 9.579 0.8142 1.389-1.197-8.525z" fill="#fff" filter="url(#filter9623)" opacity=".838"/><path d="m103.5 235 1.632 0.2206 2.001 3.235 2.713 3.682-5.116 4.778 2.323-3.745-4.943-2.447-0.6192-4.737z" filter="url(#filter9823)" opacity=".424" stroke="#000" stroke-width=".2646px"/><path d="m76.76 257.2 1.68 2.328 2.432 3.235 4.246 1.67-3.966 0.5154-3.376 0.3744-2.018-5.89z" filter="url(#filter9803)" opacity=".363" stroke="#000" stroke-width=".2646px"/></g><use transform="translate(104.1)" width="100%" height="100%" xlink:href="#path9274-1"/></g><use transform="translate(222.1 -8.867)" width="100%" height="100%" xlink:href="#path9380"/><ellipse id="path9380" cx="27.21" cy="51.5" rx="26.82" ry="27.01" fill="url(#radialGradient9398)"/><g id="g9901"><path d="m44.51 68.4 4.629-22.73 9.963-5.236 1.882 15.88-8.148 16.08z" fill="#f0d3d9"/><path d="m28.47 33.52 2.044-9.825 17.97 4.212 10.94 12.01-10.57 5.574z" fill="#cda5a5"/><path d="m11.82 49.42 16.68-15.79 20.36 11.86-4.718 22.98-21.75 1.638-0.6776 0.09336z" fill="#d5a0b5"/><path d="m20.42 75.24 1.123-4.864 22.57-1.65 8.578 3.695-14.37 3.705z" fill="#d9bac4"/><path d="m7.141 46.24 10.66-14.41 12.53-8.419 18.15 4.49 10.85 11.97 1.871 16.46-8.232 16.09-14.78 3.742-17.77-0.9354-8.045-13.84z" fill="none" stroke="#cf96a4" stroke-width=".3969"/><path d="m30.34 23.42-1.871 10.1 20.39 11.97-4.677 23.01-22.64 1.871-9.729-20.95 16.65-15.9" fill="none" stroke="#cf96a4" stroke-width=".3969"/><path d="m11.82 49.42-4.677-3.181" fill="none" stroke="#cf96a4" stroke-width=".3969"/><path d="m48.86 45.49 10.48-5.613" fill="none" stroke="#cf96a4" stroke-width=".3969"/><path d="m52.98 72.43-8.793-3.929" fill="none" stroke="#cf96a4" stroke-width=".3969"/><path d="m20.42 75.24 1.123-4.864" fill="none" stroke="#cf96a4" stroke-width=".3969"/><path d="m12.27 61.32-4.944-14.96 4.476 2.851 9.891 21.06-1.267 4.965z" fill="#a27c7c"/><path d="m7.211 46.25 10.59-14.41 12.53-8.419-1.871 10.1-16.69 15.89z" fill="#b89999"/></g><use transform="rotate(-35.65 128.4 -298.5)" width="100%" height="100%" xlink:href="#g9901"/></svg>
