<?xml version="1.0" encoding="UTF-8" standalone="no"?>
<!-- Created with Inkscape (http://www.inkscape.org/) -->

<svg
   xmlns:dc="http://purl.org/dc/elements/1.1/"
   xmlns:cc="http://creativecommons.org/ns#"
   xmlns:rdf="http://www.w3.org/1999/02/22-rdf-syntax-ns#"
   xmlns:svg="http://www.w3.org/2000/svg"
   xmlns="http://www.w3.org/2000/svg"
   xmlns:xlink="http://www.w3.org/1999/xlink"
   xmlns:sodipodi="http://sodipodi.sourceforge.net/DTD/sodipodi-0.dtd"
   xmlns:inkscape="http://www.inkscape.org/namespaces/inkscape"
   width="2000"
   height="307"
   viewBox="0 0 529.16677 81.227105"
   version="1.1"
   id="svg8"
   inkscape:version="0.92.1 r15371"
   sodipodi:docname="banner.svg"
   inkscape:export-filename="C:\wxyroot\themes\landscape\source\css\images\reptile.png"
   inkscape:export-xdpi="96"
   inkscape:export-ydpi="96">
  <defs
     id="defs2">
    <linearGradient
       inkscape:collect="always"
       id="linearGradient9541">
      <stop
         style="stop-color:#0000ff;stop-opacity:1;"
         offset="0"
         id="stop9537" />
      <stop
         style="stop-color:#0000ff;stop-opacity:0;"
         offset="1"
         id="stop9539" />
    </linearGradient>
    <linearGradient
       inkscape:collect="always"
       id="linearGradient9529">
      <stop
         style="stop-color:#000000;stop-opacity:1;"
         offset="0"
         id="stop9525" />
      <stop
         style="stop-color:#000000;stop-opacity:0;"
         offset="1"
         id="stop9527" />
    </linearGradient>
    <linearGradient
       inkscape:collect="always"
       id="linearGradient9394">
      <stop
         style="stop-color:#000000;stop-opacity:1;"
         offset="0"
         id="stop9390" />
      <stop
         style="stop-color:#000000;stop-opacity:0;"
         offset="1"
         id="stop9392" />
    </linearGradient>
    <radialGradient
       inkscape:collect="always"
       xlink:href="#linearGradient9394"
       id="radialGradient9398"
       cx="4.2147336"
       cy="62.643944"
       fx="4.2147336"
       fy="62.643944"
       r="26.821032"
       gradientTransform="matrix(1,0,0,1.0071428,22.998754,-11.595293)"
       gradientUnits="userSpaceOnUse" />
    <filter
       inkscape:collect="always"
       style="color-interpolation-filters:sRGB"
       id="filter9498"
       x="-0.30362776"
       width="1.6072555"
       y="-0.15360004"
       height="1.3072001">
      <feGaussianBlur
         inkscape:collect="always"
         stdDeviation="1.0421884"
         id="feGaussianBlur9500" />
    </filter>
    <linearGradient
       inkscape:collect="always"
       xlink:href="#linearGradient9529"
       id="linearGradient9531"
       x1="90.77253"
       y1="237.62286"
       x2="102.14682"
       y2="254.86496"
       gradientUnits="userSpaceOnUse" />
    <linearGradient
       inkscape:collect="always"
       xlink:href="#linearGradient9541"
       id="linearGradient9543"
       x1="90.77253"
       y1="237.62286"
       x2="102.14682"
       y2="254.86496"
       gradientUnits="userSpaceOnUse" />
    <filter
       inkscape:collect="always"
       style="color-interpolation-filters:sRGB"
       id="filter9623"
       x="-0.78751814"
       width="2.5750363"
       y="-0.37188321"
       height="1.7437664">
      <feGaussianBlur
         inkscape:collect="always"
         stdDeviation="1.0686746"
         id="feGaussianBlur9625" />
    </filter>
    <filter
       inkscape:collect="always"
       style="color-interpolation-filters:sRGB"
       id="filter9803"
       x="-0.29013431"
       width="1.5802686"
       y="-0.38907969"
       height="1.7781594">
      <feGaussianBlur
         inkscape:collect="always"
         stdDeviation="1.3168095"
         id="feGaussianBlur9805" />
    </filter>
    <filter
       inkscape:collect="always"
       style="color-interpolation-filters:sRGB"
       id="filter9823"
       x="-0.32462925"
       width="1.6492585"
       y="-0.22761393"
       height="1.4552279">
      <feGaussianBlur
         inkscape:collect="always"
         stdDeviation="1.1300168"
         id="feGaussianBlur9825" />
    </filter>
  </defs>
  <sodipodi:namedview
     id="base"
     pagecolor="#ffffff"
     bordercolor="#666666"
     borderopacity="1.0"
     inkscape:pageopacity="0.0"
     inkscape:pageshadow="2"
     inkscape:zoom="0.69053397"
     inkscape:cx="651.80963"
     inkscape:cy="339.11033"
     inkscape:document-units="mm"
     inkscape:current-layer="layer3"
     showgrid="false"
     inkscape:object-paths="true"
     inkscape:snap-nodes="true"
     inkscape:object-nodes="true"
     inkscape:window-width="1440"
     inkscape:window-height="837"
     inkscape:window-x="-8"
     inkscape:window-y="-8"
     inkscape:window-maximized="1"
     inkscape:pagecheckerboard="false"
     units="px"
     inkscape:snap-bbox="true"
     inkscape:bbox-nodes="true"
     inkscape:snap-page="true"
     inkscape:snap-global="false" />
  <metadata
     id="metadata5">
    <rdf:RDF>
      <cc:Work
         rdf:about="">
        <dc:format>image/svg+xml</dc:format>
        <dc:type
           rdf:resource="http://purl.org/dc/dcmitype/StillImage" />
        <dc:title></dc:title>
      </cc:Work>
    </rdf:RDF>
  </metadata>
  <g
     inkscape:groupmode="layer"
     id="layer2"
     inkscape:label="Layer 2"
     style="display:inline"
     transform="translate(0,-215.77216)">
    <path
       style="opacity:0.18000004;fill:#ff0000;fill-opacity:1;stroke:#000000;stroke-width:0.56126595;stroke-miterlimit:4;stroke-dasharray:none;stroke-dashoffset:0;stroke-opacity:0.29292938"
       d="m 127.98899,276.88635 -0.76697,-0.79513 -0.23212,-3.7031 c -0.20853,-3.32672 -0.20214,-3.72603 0.0628,-3.92886 0.16222,-0.12417 1.63592,-1.3529 3.2749,-2.7305 l 2.97995,-2.50474 -0.79571,-1.48923 -0.79572,-1.48924 -1.3394,-0.45104 c -0.73667,-0.24807 -2.01768,-0.79207 -2.84667,-1.20888 -1.70636,-0.85794 -1.53329,-0.91737 -2.4924,0.85579 l -0.55341,1.02313 0.39527,1.21574 0.39526,1.21575 -1.05793,0.6322 c -2.30868,1.37963 -3.75146,2.17956 -3.93111,2.17956 -0.10377,0 -0.63045,-0.73666 -1.1704,-1.63703 -0.53996,-0.90036 -1.08912,-1.80598 -1.22036,-2.0125 -0.21145,-0.33273 -0.071,-0.6692 1.2342,-2.95586 0.81005,-1.41922 1.70394,-3.22872 1.98642,-4.02111 0.28249,-0.7924 0.56343,-1.49996 0.62433,-1.57235 0.0609,-0.0724 2.38354,0.32676 5.16144,0.88702 2.7779,0.56026 5.1902,1.0194 5.36067,1.0203 0.61734,0.003 2.20411,-4.8577 2.21329,-6.78031 l 0.002,-0.5145 -1.73057,-7.9e-4 c -3.0349,-10e-4 -5.60969,-0.54218 -9.04324,-1.89962 l -1.8871,-0.74606 -0.30738,-2.1847 c -0.49696,-3.53271 -1.31329,-6.14471 -2.74847,-8.79448 -0.42647,-0.78741 -0.5053,-1.07426 -0.32703,-1.19012 0.49576,-0.32222 3.1232,-1.06679 4.17974,-1.18446 l 1.10653,-0.12324 1.6838,4.99536 c 1.88094,5.58024 1.86956,5.56254 3.31057,5.14663 0.47195,-0.13622 2.47292,-0.27114 4.83329,-0.3259 l 4.02792,-0.0934 1.47846,-2.7009 c 1.32646,-2.4232 1.6692,-2.8923 3.33339,-4.56232 1.93453,-1.94131 4.36585,-3.73534 5.06173,-3.73498 0.2229,1.1e-4 1.71022,0.1684 3.30515,0.37396 1.59493,0.20557 2.98407,0.3799 3.08696,0.3874 0.1029,0.008 -0.94947,0.35274 -2.3386,0.76719 -1.38914,0.41445 -2.64573,0.85041 -2.79243,0.96879 -0.52897,0.42686 -2.48297,3.20609 -3.78471,5.38308 l -1.32889,2.22241 0.12521,1.16918 c 0.25633,2.39344 0.13039,2.19733 2.54388,3.96121 l 2.21268,1.61713 0.55143,1.53719 c 0.30329,0.84545 0.65298,1.85127 0.77709,2.23515 0.19313,0.59738 0.33831,0.72759 1.00746,0.90362 0.43,0.11312 1.48235,0.40076 2.33855,0.63921 1.09604,0.30523 1.57914,0.37002 1.63246,0.21891 0.0417,-0.11805 0.41869,-1.76928 0.83787,-3.6694 0.41917,-1.90013 0.77904,-3.4627 0.79969,-3.47239 0.0207,-0.01 1.3425,-0.42415 2.93743,-0.92101 1.59493,-0.49686 2.99092,-0.93736 3.10221,-0.97889 0.19254,-0.0718 1.01374,2.51875 1.01374,3.19796 0,0.172 -0.62547,1.02816 -1.38993,1.90256 -0.76446,0.87441 -1.43328,1.81802 -1.48626,2.09692 -0.053,0.2789 -0.19623,1.51736 -0.31833,2.75215 l -0.222,2.24506 -1.17673,0.88189 -1.17673,0.88188 -2.49381,-0.0932 c -3.51629,-0.13138 -5.01997,-0.26751 -5.72133,-0.51794 -0.33456,-0.11947 -1.738,-1.29057 -3.11877,-2.60246 -1.741,-1.65415 -2.60109,-2.35048 -2.80609,-2.27182 -0.16258,0.0624 -0.2956,0.21899 -0.2956,0.34801 0,0.22424 2.95797,7.37899 3.36547,8.1404 0.4453,0.83205 3.4267,2.14279 6.83087,3.00311 l 2.05797,0.52011 0.0511,3.28929 c 0.0502,3.2297 0.0586,3.29095 0.46773,3.38078 2.33409,0.51253 2.40829,0.5472 2.87591,1.34364 l 0.45523,0.77534 -0.7089,0.43697 c -0.38989,0.24033 -1.34552,0.95031 -2.12362,1.57774 l -1.41472,1.14079 -1.12647,-0.0815 -1.12647,-0.0815 -0.6844,-3.84978 c -0.37643,-2.11739 -0.77655,-3.90673 -0.88916,-3.97633 -0.11261,-0.0696 -0.21861,-0.19445 -0.23554,-0.27745 -0.0169,-0.083 -1.61718,-0.93887 -3.5561,-1.90193 l -3.5253,-1.75102 -1.339,0.41835 c -0.73645,0.23009 -1.36829,0.4371 -1.40408,0.46003 -0.0358,0.0229 -0.6914,2.21429 -1.45691,4.86971 -0.7655,2.65541 -1.45183,4.88049 -1.52517,4.94462 -0.10308,0.0901 -9.19653,2.41387 -9.44615,2.41387 -0.0315,0 -0.40241,-0.3578 -0.82424,-0.79512 z"
       id="path9272"
       inkscape:connector-curvature="0" />
    <path
       style="opacity:0.18000004;fill:#00ff00;fill-opacity:1;stroke:#000000;stroke-width:0.56126595;stroke-miterlimit:4;stroke-dasharray:none;stroke-dashoffset:0;stroke-opacity:0.29292938"
       d="m 7.4124108,253.77615 c -0.942481,-0.81903 -2.507396,-2.54877 -2.791291,-3.0853 -0.07357,-0.13905 1.269569,-1.80202 3.379062,-4.1837 2.4184772,-2.73051 3.4920532,-4.07676 3.4716722,-4.35341 -0.01622,-0.22028 -0.327112,-0.7146 -0.690853,-1.09849 -1.0634212,-1.12231 -1.8424842,-2.26021 -3.3364062,-4.87313 l -1.403165,-2.45419 -3.215672,-0.006 c -4.068209,-0.008 -6.420075,-0.51013 -9.707737,-2.07356 l -1.510998,-0.71854 -1.248558,-2.96412 c -0.6867078,-1.63026 -1.2485608,-3.03429 -1.2485608,-3.12008 0,-0.0858 0.83304,0.6436 1.8511968,1.62085 1.779865,1.70836 1.897012,1.78559 3.040192,2.00411 0.653947,0.12501 2.766473,0.27286 4.694504,0.32857 l 3.50551,0.10128 1.382374,-1.04046 c 1.552059,-1.16817 1.405617,-0.79527 1.820317,-4.63532 l 0.213675,-1.9786 1.474727,-1.70527 c 0.811101,-0.93789 1.472811,-1.8576 1.470469,-2.0438 -0.0042,-0.33259 -1.055235,-4.37102 -1.158862,-4.45266 -0.02913,-0.0229 -1.610471,0.45113 -3.514097,1.05351 -1.903627,0.60238 -3.54533196,1.06279 -3.64822896,1.02312 -0.319971,-0.12334 -4.78786004,-4.27492 -4.73099604,-4.39605 0.02958,-0.063 0.601012,-0.633 1.269855,-1.26665 l 1.216075,-1.15209 2.17745704,0.41552 2.17745996,0.41552 2.482308,-1.09783 2.482307,-1.09783 1.287039,0.52478 c 0.707869,0.28862 1.4120392,0.71391 1.5648232,0.94508 0.653727,0.98913 2.916986,5.49504 3.25814,6.48662 l 0.37198,1.08118 -0.86605,3.46121 c -0.719238,2.87448 -0.821677,3.48931 -0.604297,3.62695 0.143962,0.0911 0.320421,0.16702 0.392128,0.1686 0.143997,0.003 5.240186,-6.66645 5.582504,-7.30607 0.387303,-0.72369 -0.16724,-4.79058 -1.03148,-7.56462 -0.256458,-0.82319 -0.467556,-1.55159 -0.469099,-1.61868 -0.0016,-0.0671 1.260041,-0.85132 2.803523,-1.74277 1.543481,-0.89144 2.806329,-1.68925 2.806329,-1.77291 0,-0.0837 -0.20157,-0.68831 -0.447937,-1.34366 l -0.447939,-1.19154 0.362847,-0.71123 c 0.199567,-0.39118 0.467198,-0.75128 0.594738,-0.80023 0.127542,-0.0489 0.818306,0.19513 1.53503,0.54237 0.716725,0.34724 1.74189,0.77593 2.278145,0.95264 0.873591,0.28787 1.032653,0.42771 1.529128,1.34436 l 0.554114,1.02306 -1.364406,1.16259 c -0.750422,0.63942 -2.127994,1.79401 -3.061269,2.56575 -0.933278,0.77174 -1.664602,1.50296 -1.625171,1.62494 0.03944,0.12197 -0.0109,0.2493 -0.111811,0.28294 -0.118088,0.0394 -0.08611,1.45371 0.08971,3.9673 l 0.273208,3.90614 0.99018,1.00263 c 0.544597,0.55145 1.142976,1.00263 1.329729,1.00263 0.186754,0 2.354927,-0.50514 4.818166,-1.12253 2.463239,-0.61739 4.619059,-1.12253 4.79071,-1.12253 0.265083,0 6.110009,5.82599 6.743358,6.72151 0.15775,0.22306 0.162777,0.56944 0.01884,1.29746 l -0.196374,0.99317 -3.054929,2.04203 c -1.68021,1.12312 -3.173011,2.04204 -3.317333,2.04204 -0.144325,0 -1.093301,-0.30275 -2.10884,-0.67277 -1.015537,-0.37002 -2.745626,-0.99684 -3.844645,-1.39294 l -1.998207,-0.72018 -0.886315,1.42204 -0.886317,1.42203 0.237496,1.14021 c 0.130622,0.62712 0.276106,1.81373 0.323297,2.63692 0.143261,2.49898 0.02101,2.33861 1.782595,2.33861 h 1.525059 l 0.85676,-0.93624 0.856755,-0.93623 2.432154,1.42288 c 1.337685,0.78259 2.46213,1.45136 2.498772,1.48617 0.03664,0.0348 -0.460832,1.03657 -1.10549,2.22614 l -1.172107,2.16285 -3.104007,0.001 c -2.819897,0.001 -4.300124,0.12208 -5.640069,0.46141 -0.475814,0.12049 -0.486432,0.0964 -2.229345,-5.06035 l -1.751253,-5.18142 -1.418887,0.10994 c -1.915382,0.14838 -5.815467,1.37568 -5.815467,1.83001 0,0.0877 0.421587,0.94847 0.93686,1.91284 1.510885,2.82771 2.489118,6.10931 2.730418,9.15951 l 0.106849,1.35061 -1.507363,1.09847 c -2.027068,1.4772 -4.560556,4.13621 -5.9454492,6.24002 l -1.136078,1.72582 z"
       id="path9274"
       inkscape:connector-curvature="0" />
    <use
       x="0"
       y="0"
       xlink:href="#path9272"
       id="use9282"
       transform="rotate(-120,103.99473,275.65171)"
       width="100%"
       height="100%" />
    <use
       x="0"
       y="0"
       xlink:href="#path9274"
       id="use9284"
       transform="translate(155.80468,29.934187)"
       width="100%"
       height="100%" />
    <path
       style="display:inline;opacity:0.18000004;fill:#0000ff;fill-opacity:1;stroke:#000000;stroke-width:0.56126601;stroke-miterlimit:4;stroke-dasharray:none;stroke-dashoffset:0;stroke-opacity:0.29292938"
       d="m 133.22961,250.44096 c -0.23805,1.22575 -0.95364,3.44586 -1.27631,3.95999 -0.0836,0.13323 -2.19536,-0.19847 -5.31272,-0.8345 -3.57392,-0.72921 -5.2766,-0.98583 -5.506,-0.82986 -0.18265,0.1242 -0.4553,0.64059 -0.6059,1.14754 -0.4402,1.48213 -1.03615,2.72575 -2.55204,5.32598 l -1.4238,2.44227 1.60264,2.78786 c 2.02717,3.52717 2.76824,5.81502 3.0581,9.44394 l 0.13323,1.66782 -1.94271,2.56334 c -1.06852,1.40983 -2.00352,2.59844 -2.0778,2.64133 -0.0743,0.0429 0.14085,-1.04323 0.47811,-2.41361 0.58951,-2.3956 0.59784,-2.53565 0.21549,-3.63494 -0.21871,-0.62883 -1.14691,-2.53227 -2.0627,-4.22984 l -1.66504,-3.08651 -1.59225,-0.67694 c -1.78769,-0.76004 -1.39154,-0.81966 -4.92447,0.74122 l -1.82036,0.80425 -2.21416,-0.4245 c -1.2178,-0.23344 -2.34513,-0.3467 -2.50522,-0.25157 -0.28593,0.16993 -3.257811,3.09937 -3.276687,3.22993 -0.0057,0.0367 1.195923,1.16914 2.669417,2.51654 1.47349,1.34741 2.69307,2.53895 2.71016,2.64791 0.0532,0.33876 -1.30826,6.28385 -1.44159,6.29519 -0.0694,0.006 -0.8487,-0.20401 -1.73196,-0.46614 l -1.605777,-0.47707 -0.728881,-2.09349 -0.72888,-2.09349 -2.191901,-1.60083 -2.191902,-1.60084 -0.189048,-1.377 c -0.103979,-0.75733 -0.0877,-1.57981 0.036,-1.8277 0.529742,-1.06071 3.300361,-5.27371 3.988506,-6.06494 l 0.750342,-0.86275 3.430521,-0.98059 c 2.849,-0.81435 3.43267,-1.03306 3.44318,-1.29011 0.007,-0.17024 -0.0156,-0.36101 -0.05,-0.4239 -0.0694,-0.12621 -8.393416,-1.20492 -9.118501,-1.18155 -0.820387,0.0264 -4.065137,2.54012 -6.035403,4.67559 -0.584676,0.6337 -1.10995,1.1807 -1.167272,1.21559 -0.05709,0.0353 -1.367287,-0.66557 -2.911048,-1.55655 -1.543752,-0.89097 -2.866107,-1.58571 -2.938548,-1.5439 -0.0725,0.0419 -0.495312,0.51872 -0.939679,1.05978 l -0.807934,0.98368 -0.797374,0.0414 c -0.438545,0.0228 -0.884223,-0.029 -0.990386,-0.11494 -0.106119,-0.086 -0.240166,-0.80624 -0.297794,-1.60056 -0.05761,-0.79432 -0.198982,-1.89649 -0.314058,-2.44925 -0.187507,-0.90048 -0.14593,-1.10816 0.399678,-1.99645 l 0.608942,-0.9914 1.689021,0.60031 c 0.928966,0.33019 2.617667,0.9459 3.752657,1.36826 1.134974,0.42238 2.133892,0.69013 2.219808,0.59497 0.08594,-0.0951 0.221362,-0.11521 0.300938,-0.0446 0.09319,0.0825 1.302,-0.65229 3.390944,-2.06132 l 3.24622,-2.18967 0.373403,-1.35879 c 0.205422,-0.74733 0.296855,-1.49116 0.203433,-1.6529 -0.0934,-0.16173 -1.614924,-1.78686 -3.381206,-3.61138 -1.766312,-1.82453 -3.281683,-3.43896 -3.367501,-3.58762 -0.13254,-0.22957 1.990451,-8.20441 2.44927,-9.20069 0.114318,-0.24813 0.411755,-0.42568 1.114223,-0.66501 l 0.958303,-0.32652 3.295921,1.62463 c 1.812762,0.89355 3.354963,1.7269 3.427124,1.85189 0.07219,0.12498 0.284469,1.09819 0.47179,2.16269 0.187324,1.06448 0.509507,2.87619 0.715985,4.02602 l 0.375404,2.09059 1.67469,0.0566 1.67467,0.0565 0.86872,-0.77578 c 0.47778,-0.42669 1.43269,-1.14598 2.12198,-1.59844 2.09257,-1.37357 2.0148,-1.1875 1.134,-2.71309 l -0.76252,-1.32072 -1.23919,-0.27386 -1.23919,-0.27386 0.0162,-2.81774 c 0.009,-1.54978 0.0258,-2.85795 0.0377,-2.9071 0.0121,-0.049 1.1281,-0.11917 2.48063,-0.15568 l 2.45913,-0.0663 1.55288,2.68766 c 1.41081,2.4416 2.25579,3.66297 3.21962,4.65374 0.34227,0.35181 0.32671,0.37306 -3.26771,4.46083 l -3.61162,4.10735 0.80466,1.17382 c 1.08619,1.58458 4.0991,4.34851 4.49256,4.12134 0.0759,-0.0438 0.61062,-0.83934 1.18814,-1.76777 1.69342,-2.72232 4.04627,-5.21029 6.56717,-6.94437 l 1.11623,-0.76784 1.70498,0.75619 c 2.29283,1.01688 5.86234,1.88144 8.37675,2.02889 l 2.06263,0.12096 z"
       id="path9274-1"
       inkscape:connector-curvature="0" />
    <use
       x="0"
       y="0"
       xlink:href="#path9274-1"
       id="use9307"
       transform="translate(-51.823561,-30.121276)"
       width="100%"
       height="100%" />
    <path
       style="display:inline;opacity:1;fill:url(#linearGradient9543);fill-opacity:1;stroke:url(#linearGradient9531);stroke-width:0.56126601;stroke-miterlimit:4;stroke-dasharray:none;stroke-dashoffset:0;stroke-opacity:0.29292938"
       d="m 95.134751,260.23738 c -0.82039,0.0264 -4.06514,2.54012 -6.0354,4.67559 -0.584679,0.6337 -1.109954,1.1807 -1.167276,1.21559 -0.05709,0.0353 -1.367287,-0.66557 -2.911048,-1.55655 -1.543752,-0.89097 -2.866107,-1.58571 -2.938548,-1.5439 -0.0725,0.0419 -0.495312,0.51872 -0.939679,1.05978 l -0.807934,0.98368 -0.797374,0.0414 c -0.438545,0.0228 -0.884223,-0.029 -0.990386,-0.11494 -0.106119,-0.086 -0.240166,-0.80624 -0.297794,-1.60056 -0.05761,-0.79432 -0.198982,-1.89649 -0.314058,-2.44925 -0.187507,-0.90048 -0.14593,-1.10816 0.399678,-1.99645 l 0.608942,-0.9914 1.689021,0.60031 c 0.928966,0.33019 2.617667,0.9459 3.752657,1.36826 1.134974,0.42238 2.133892,0.69013 2.219808,0.59497 0.08594,-0.0951 0.221362,-0.11521 0.300938,-0.0446 0.09319,0.0825 1.302001,-0.65229 3.390943,-2.06132 l 3.24622,-2.18967 0.3734,-1.35879 c 0.20543,-0.74733 0.29686,-1.49116 0.20344,-1.6529 -0.0934,-0.16173 -1.61493,-1.78686 -3.38121,-3.61138 -1.76631,-1.82453 -3.281682,-3.43896 -3.3675,-3.58762 -0.13254,-0.22957 1.99045,-8.20441 2.44927,-9.20069 0.11432,-0.24813 0.41176,-0.42568 1.11422,-0.66501 l 0.95831,-0.32652 3.29592,1.62463 c 1.81276,0.89355 3.35496,1.7269 3.42712,1.85189 0.0722,0.12498 0.28447,1.09819 0.47179,2.16269 0.18733,1.06448 0.50951,2.87619 0.71599,4.02602 l 0.375399,2.09059 1.67469,0.0566 1.67467,0.0565 0.86872,-0.77578 c 0.47778,-0.42669 1.43269,-1.14598 2.12198,-1.59844 2.09257,-1.37357 2.0148,-1.1875 1.134,-2.71309 l -0.76252,-1.32072 -1.23919,-0.27386 -1.23919,-0.27386 0.0162,-2.81774 c 0.009,-1.54978 0.0258,-2.85795 0.0377,-2.9071 0.0121,-0.049 1.1281,-0.11917 2.48063,-0.15568 l 2.45913,-0.0663 1.55288,2.68766 c 1.41081,2.4416 2.25579,3.66297 3.21962,4.65374 0.34227,0.35181 0.32671,0.37306 -3.26771,4.46083 l -3.61162,4.10735 0.80466,1.17382 z"
       id="path9274-1-2"
       inkscape:connector-curvature="0"
       sodipodi:nodetypes="csccccccccccccccccccccccccscccccccccccccccccccccc" />
    <path
       style="opacity:0.453;fill:#000000;fill-opacity:1;stroke:#000000;stroke-width:0.26458332px;stroke-linecap:butt;stroke-linejoin:miter;stroke-opacity:1;filter:url(#filter9498)"
       d="m 85.444141,236.16832 5.364205,0.57474 0.766317,3.83158 -0.383156,6.13051 3.065259,5.93894 -0.383156,-1.34105 -9.004204,-5.17263 z"
       id="path9400"
       inkscape:connector-curvature="0"
       sodipodi:nodetypes="cccccccc" />
    <path
       style="opacity:0.83800001;fill:#ffffff;fill-opacity:1;stroke:none;stroke-width:0.26458332px;stroke-linecap:butt;stroke-linejoin:miter;stroke-opacity:1;filter:url(#filter9623)"
       d="m 91.909926,235.74192 -0.766316,1.10157 7.806838,9.57895 0.814207,1.38895 -1.197365,-8.52526 z"
       id="path9545"
       inkscape:connector-curvature="0"
       sodipodi:nodetypes="cccccc" />
    <path
       style="opacity:0.42399998;fill:#000000;fill-opacity:1;stroke:#000000;stroke-width:0.26458332px;stroke-linecap:butt;stroke-linejoin:miter;stroke-opacity:1;filter:url(#filter9823)"
       d="m 103.46267,234.95551 1.6324,0.22063 2.00095,3.23476 2.71316,3.68168 -5.11552,4.77802 2.32301,-3.74459 -4.94254,-2.44703 -0.61922,-4.73652 z"
       id="path9627"
       inkscape:connector-curvature="0"
       sodipodi:nodetypes="ccccccccc" />
    <path
       style="display:inline;opacity:0.36300001;fill:#000000;fill-opacity:1;stroke:#000000;stroke-width:0.26458332px;stroke-linecap:butt;stroke-linejoin:miter;stroke-opacity:1;filter:url(#filter9803)"
       d="m 76.758764,257.22804 1.680295,2.328 2.432002,3.23476 4.24579,1.6701 -3.966047,0.5154 -3.376459,0.37435 -2.017553,-5.89039 z"
       id="path9627-8"
       inkscape:connector-curvature="0"
       sodipodi:nodetypes="cccccccc" />
    <use
       x="0"
       y="0"
       xlink:href="#path9274-1"
       id="use9844"
       transform="translate(104.07285)"
       width="100%"
       height="100%" />
  </g>
  <g
     inkscape:groupmode="layer"
     id="layer3"
     inkscape:label="Layer 3">
    <use
       x="0"
       y="0"
       xlink:href="#path9380"
       id="use9905"
       transform="translate(222.10402,-8.8674943)"
       width="100%"
       height="100%" />
    <ellipse
       style="opacity:1;fill:url(#radialGradient9398);fill-opacity:1;stroke:none;stroke-width:0.39687499;stroke-miterlimit:4;stroke-dasharray:none;stroke-dashoffset:0;stroke-opacity:1"
       id="path9380"
       cx="27.213486"
       cy="51.496109"
       rx="26.821032"
       ry="27.012609" />
    <path
       style="opacity:0;fill:#e9afaf;fill-opacity:1;stroke:#000000;stroke-width:0.56126595;stroke-miterlimit:4;stroke-dasharray:none;stroke-dashoffset:0;stroke-opacity:0.29292938"
       d=""
       id="path9354"
       inkscape:connector-curvature="0" />
    <g
       id="g9901">
      <path
         sodipodi:nodetypes="cccccc"
         inkscape:connector-curvature="0"
         id="path9368"
         d="m 44.514128,68.398185 4.62879,-22.733857 9.962894,-5.23558 1.882057,15.883173 -8.147989,16.084446 z"
         style="opacity:1;fill:#f0d3d9;fill-opacity:1;stroke:none;stroke-width:0.56126595;stroke-miterlimit:4;stroke-dasharray:none;stroke-dashoffset:0;stroke-opacity:0.29292938" />
      <path
         sodipodi:nodetypes="cccccc"
         inkscape:connector-curvature="0"
         id="path9370"
         d="m 28.469573,33.51947 2.044171,-9.825122 17.974314,4.212462 10.94233,12.012543 -10.56815,5.573797 z"
         style="opacity:1;fill:#cda5a5;fill-opacity:1;stroke:none;stroke-width:0.56126595;stroke-miterlimit:4;stroke-dasharray:none;stroke-dashoffset:0;stroke-opacity:0.29292938" />
      <path
         sodipodi:nodetypes="ccccccc"
         inkscape:connector-curvature="0"
         id="path9372"
         d="M 11.818682,49.42201 28.49864,33.632992 48.862238,45.49315 l -4.717571,22.978736 -21.74922,1.638082 -0.677623,0.09336 z"
         style="opacity:1;fill:#d5a0b5;fill-opacity:1;stroke:none;stroke-width:0.56126595;stroke-miterlimit:4;stroke-dasharray:none;stroke-dashoffset:0;stroke-opacity:0.29292938" />
      <path
         sodipodi:nodetypes="cccccc"
         inkscape:connector-curvature="0"
         id="path9374"
         d="m 20.424761,75.24024 1.122532,-4.8643 22.568305,-1.650007 8.578313,3.695046 -14.3727,3.704783 z"
         style="opacity:1;fill:#d9bac4;fill-opacity:1;stroke:none;stroke-width:0.56126595;stroke-miterlimit:4;stroke-dasharray:none;stroke-dashoffset:0;stroke-opacity:0.29292938" />
      <path
         inkscape:connector-curvature="0"
         id="path9320"
         d="M 7.1414678,46.2415 17.805519,31.83567 30.34046,23.41668 48.488062,27.90681 59.339203,39.88049 61.210091,56.34429 52.978189,72.43391 38.198183,76.17569 20.424761,75.24024 12.379948,61.39568 Z"
         style="display:inline;opacity:1;fill:none;stroke:#cf96a4;stroke-width:0.39687499;stroke-linecap:butt;stroke-linejoin:miter;stroke-miterlimit:4;stroke-dasharray:none;stroke-opacity:1" />
      <path
         sodipodi:nodetypes="ccccccc"
         inkscape:connector-curvature="0"
         id="path9322"
         d="M 30.34046,23.41668 28.469573,33.51947 48.862238,45.49315 44.185021,68.50505 21.547293,70.37594 11.818682,49.42201 28.469573,33.51947"
         style="display:inline;opacity:1;fill:none;stroke:#cf96a4;stroke-width:0.39687499;stroke-linecap:butt;stroke-linejoin:miter;stroke-miterlimit:4;stroke-dasharray:none;stroke-opacity:1" />
      <path
         inkscape:connector-curvature="0"
         id="path9324"
         d="M 11.818682,49.42201 7.1414678,46.2415"
         style="display:inline;opacity:1;fill:none;stroke:#cf96a4;stroke-width:0.39687499;stroke-linecap:butt;stroke-linejoin:miter;stroke-miterlimit:4;stroke-dasharray:none;stroke-opacity:1" />
      <path
         inkscape:connector-curvature="0"
         id="path9326"
         d="M 48.862238,45.49315 59.339203,39.88049"
         style="display:inline;opacity:1;fill:none;stroke:#cf96a4;stroke-width:0.39687499;stroke-linecap:butt;stroke-linejoin:miter;stroke-miterlimit:4;stroke-dasharray:none;stroke-opacity:1" />
      <path
         inkscape:connector-curvature="0"
         id="path9328"
         d="M 52.978189,72.43391 44.185021,68.50505"
         style="display:inline;opacity:1;fill:none;stroke:#cf96a4;stroke-width:0.39687499;stroke-linecap:butt;stroke-linejoin:miter;stroke-miterlimit:4;stroke-dasharray:none;stroke-opacity:1" />
      <path
         inkscape:connector-curvature="0"
         id="path9330"
         d="m 20.424761,75.24024 1.122532,-4.8643"
         style="display:inline;opacity:1;fill:none;stroke:#cf96a4;stroke-width:0.39687499;stroke-linecap:butt;stroke-linejoin:miter;stroke-miterlimit:4;stroke-dasharray:none;stroke-opacity:1" />
      <path
         sodipodi:nodetypes="cccccc"
         inkscape:connector-curvature="0"
         id="path9376"
         d="m 12.268904,61.319856 -4.9440202,-14.95844 4.4760932,2.85149 9.890761,21.062498 -1.266977,4.964836 z"
         style="opacity:1;fill:#a27c7c;fill-opacity:1;stroke:none;stroke-width:0.56126595;stroke-miterlimit:4;stroke-dasharray:none;stroke-dashoffset:0;stroke-opacity:0.29292938" />
      <path
         sodipodi:nodetypes="cccccc"
         inkscape:connector-curvature="0"
         id="path9378"
         d="M 7.2114978,46.249148 17.805519,31.83567 30.34046,23.41668 28.469573,33.51947 11.782678,49.412417 Z"
         style="opacity:1;fill:#b89999;fill-opacity:1;stroke:none;stroke-width:0.56126595;stroke-miterlimit:4;stroke-dasharray:none;stroke-dashoffset:0;stroke-opacity:0.29292938" />
    </g>
    <use
       x="0"
       y="0"
       xlink:href="#g9901"
       id="use9903"
       transform="rotate(-35.651674,128.43035,-298.5498)"
       width="100%"
       height="100%" />
  </g>
  <g
     inkscape:label="Layer 1"
     inkscape:groupmode="layer"
     id="layer1"
     style="display:inline"
     transform="translate(0,-215.77216)" />
</svg>
