<?xml version="1.0" encoding="UTF-8" standalone="no"?>
<!-- Created with Inkscape (http://www.inkscape.org/) -->

<svg
   width="55.174572mm"
   height="56.192429mm"
   viewBox="0 0 55.174573 56.192428"
   version="1.1"
   id="svg5"
   inkscape:version="1.1.2 (b8e25be833, 2022-02-05)"
   sodipodi:docname="2d2t3.svg"
   xmlns:inkscape="http://www.inkscape.org/namespaces/inkscape"
   xmlns:sodipodi="http://sodipodi.sourceforge.net/DTD/sodipodi-0.dtd"
   xmlns:xlink="http://www.w3.org/1999/xlink"
   xmlns="http://www.w3.org/2000/svg"
   xmlns:svg="http://www.w3.org/2000/svg">
  <sodipodi:namedview
     id="namedview7"
     pagecolor="#ffffff"
     bordercolor="#666666"
     borderopacity="1.0"
     inkscape:pageshadow="2"
     inkscape:pageopacity="0.0"
     inkscape:pagecheckerboard="0"
     inkscape:document-units="mm"
     showgrid="false"
     inkscape:snap-global="false"
     inkscape:zoom="2.0495674"
     inkscape:cx="59.768709"
     inkscape:cy="95.873889"
     inkscape:window-width="1440"
     inkscape:window-height="838"
     inkscape:window-x="-6"
     inkscape:window-y="-6"
     inkscape:window-maximized="1"
     inkscape:current-layer="layer1"
     fit-margin-top="1"
     fit-margin-left="1"
     fit-margin-right="1"
     fit-margin-bottom="1"
     lock-margins="true" />
  <defs
     id="defs2">
    <marker
       style="overflow:visible"
       id="marker5690"
       refX="0"
       refY="0"
       orient="auto"
       inkscape:stockid="Arrow1Mend"
       inkscape:isstock="true">
      <path
         transform="matrix(-0.4,0,0,-0.4,-4,0)"
         style="fill:context-stroke;fill-rule:evenodd;stroke:context-stroke;stroke-width:1pt"
         d="M 0,0 5,-5 -12.5,0 5,5 Z"
         id="path5688" />
    </marker>
    <marker
       style="overflow:visible"
       id="Arrow1Mend"
       refX="0"
       refY="0"
       orient="auto"
       inkscape:stockid="Arrow1Mend"
       inkscape:isstock="true">
      <path
         transform="matrix(-0.4,0,0,-0.4,-4,0)"
         style="fill:context-stroke;fill-rule:evenodd;stroke:context-stroke;stroke-width:1pt"
         d="M 0,0 5,-5 -12.5,0 5,5 Z"
         id="path2103" />
    </marker>
  </defs>
  <g
     inkscape:label="图层 1"
     inkscape:groupmode="layer"
     id="layer1"
     transform="translate(-41.785364,-1.9491445)">
    <g
       id="g6903"
       transform="matrix(1.8152965,0,0,1.8152965,-34.882754,-2.404427)">
      <use
         x="0"
         y="0"
         xlink:href="#path4041"
         id="use4692"
         transform="translate(2.7817532,-1.8545021)"
         width="100%"
         height="100%" />
      <path
         id="path4041"
         style="fill:#ffffff;fill-opacity:0.586956;stroke:#000000;stroke-width:0.2;stroke-linecap:butt;stroke-linejoin:miter;stroke-miterlimit:4;stroke-dasharray:none;stroke-opacity:1"
         d="M 69.196109,9.9679491 C 59.890743,7.0213959 59.705697,8.5333693 57.141845,7.4180081 53.896466,4.4044425 47.869336,5.4475998 47.869336,5.4475998 V 21.3226 m 0,0 c 0,0 6.02713,-1.043157 9.272509,1.970408 2.563852,1.115362 2.748898,-0.396612 12.054264,2.549942 V 9.9679491" />
      <path
         style="fill:none;stroke:#000000;stroke-width:0.2;stroke-linecap:butt;stroke-linejoin:miter;stroke-miterlimit:4;stroke-dasharray:none;stroke-opacity:1"
         d="m 67.225701,12.286076 c 0,0 -4.404443,-0.927251 -7.070289,-2.3181272 V 26.426655 c 1.532994,0.804792 3.332548,1.542944 7.302103,1.738595 z"
         id="path3820"
         sodipodi:nodetypes="ccccc" />
      <path
         id="path4039"
         style="fill:#ffffff;fill-opacity:0.693237;stroke:#000000;stroke-width:0.2;stroke-linecap:butt;stroke-linejoin:miter;stroke-miterlimit:4;stroke-dasharray:none;stroke-opacity:1"
         d="M 65.139386,14.488298 C 59.427118,13.396247 57.851195,14.212782 54.012373,10.083855 50.766994,7.0702893 45.319396,8.1134466 45.319396,8.1134466 V 23.988447 m 0,0 c 0,0 5.447598,-1.043157 8.692977,1.970409 3.838822,4.128927 5.414745,3.312392 11.127013,4.404443 V 14.488298" />
      <use
         x="0"
         y="0"
         xlink:href="#path4039"
         id="use4694"
         transform="translate(-2.434034,2.3181276)"
         width="100%"
         height="100%" />
      <path
         style="fill:none;stroke:#000000;stroke-width:0.2;stroke-linecap:butt;stroke-linejoin:miter;stroke-miterlimit:4;stroke-dasharray:none;stroke-opacity:1;marker-end:url(#marker5690)"
         d="m 50.192355,11.472538 1.89036,-1.4992522"
         id="path5668" />
      <path
         style="fill:none;stroke:#000000;stroke-width:0.2;stroke-linecap:butt;stroke-linejoin:miter;stroke-miterlimit:4;stroke-dasharray:none;stroke-opacity:1;marker-end:url(#marker5690)"
         d="m 60.491565,16.426589 1.564436,-1.629623"
         id="path5778"
         sodipodi:nodetypes="cc" />
      <use
         x="0"
         y="0"
         xlink:href="#path5668"
         id="use5917"
         transform="translate(2.607395,-2.1511009)"
         width="100%"
         height="100%" />
      <use
         x="0"
         y="0"
         xlink:href="#path5778"
         id="use5919"
         transform="translate(2.607395,-2.1511009)"
         width="100%"
         height="100%" />
      <use
         x="0"
         y="0"
         xlink:href="#use5917"
         id="use5921"
         transform="translate(3.3896135,-2.7377648)"
         width="100%"
         height="100%" />
      <path
         style="fill:none;stroke:#000000;stroke-width:0.2;stroke-linecap:butt;stroke-linejoin:miter;stroke-miterlimit:4;stroke-dasharray:none;stroke-opacity:1;marker-end:url(#marker5690)"
         d="m 64.728582,11.733278 1.564436,-1.629623"
         id="path6005"
         sodipodi:nodetypes="cc" />
      <path
         style="fill:none;stroke:#000000;stroke-width:0.2;stroke-linecap:butt;stroke-linejoin:miter;stroke-miterlimit:4;stroke-dasharray:none;stroke-opacity:1;marker-end:url(#marker5690)"
         d="m 66.488574,9.1910679 1.108142,-1.629623"
         id="path6182"
         sodipodi:nodetypes="cc" />
      <use
         x="0"
         y="0"
         xlink:href="#use5921"
         id="use6283"
         transform="translate(2.3466555,-1.8903614)"
         width="100%"
         height="100%" />
      <use
         x="0"
         y="0"
         xlink:href="#path6182"
         id="use6285"
         transform="translate(1.1081429,-2.3466555)"
         width="100%"
         height="100%" />
      <path
         style="fill:none;stroke:#ff0000;stroke-width:0.264583px;stroke-linecap:butt;stroke-linejoin:miter;stroke-opacity:1"
         d="m 47.869334,12.17017 c 4.288536,-4.2885361 9.620232,-8.3452595 11.706545,-7.8816338 2.086316,0.4636254 10.315668,0.6954382 10.315668,2.202221 0,1.506783 -7.881633,11.7065448 -9.852041,11.7065448 -1.97041,0 -13.445141,-3.129472 -12.170172,-6.027132 z"
         id="path5520" />
    </g>
  </g>
</svg>
