<?xml version="1.0" encoding="utf-8"?>
<!-- Generator: Adobe Illustrator 15.0.0, SVG Export Plug-In . SVG Version: 6.00 Build 0)  -->
<!DOCTYPE svg PUBLIC "-//W3C//DTD SVG 1.1//EN" "http://www.w3.org/Graphics/SVG/1.1/DTD/svg11.dtd">
<svg version="1.1" id="Layer_1" xmlns="http://www.w3.org/2000/svg" xmlns:xlink="http://www.w3.org/1999/xlink" x="0px" y="0px"
	 width="512px" height="512px" viewBox="0 0 512 512" enable-background="new 0 0 512 512" xml:space="preserve">
<polygon fill="#6D6E71" stroke="#58595B" stroke-width="8" stroke-miterlimit="10" points="384,240 272,240 272,128 240,128 
	240,240 128,240 128,272 240,272 240,392 272,392 272,272 384,272 "/>
<circle fill="#2E3192" stroke="#262262" stroke-width="8" stroke-miterlimit="10" cx="256" cy="128" r="64"/>
<circle fill="#2E3192" stroke="#262262" stroke-width="8" stroke-miterlimit="10" cx="128" cy="256" r="64"/>
<circle fill="#2E3192" stroke="#262262" stroke-width="8" stroke-miterlimit="10" cx="384" cy="256" r="64"/>
<circle fill="#2E3192" stroke="#262262" stroke-width="8" stroke-miterlimit="10" cx="256" cy="384" r="64"/>
<g>
	<g>
		<path fill="none" stroke="#F7941E" stroke-width="12" stroke-miterlimit="10" d="M285.509,100.98C278.198,93,267.688,88,256,88
			c-22.109,0-40,17.891-40,40"/>
		<g>
			<path fill="#F7941E" d="M296,128c-0.744-14.521,0.495-33.467,4.745-46.71L283.042,97.9l-24.228,1.44
				C271.355,105.355,285.969,117.478,296,128z"/>
		</g>
	</g>
</g>
<g>
	<g>
		<path fill="none" stroke="#F7941E" stroke-width="12" stroke-miterlimit="10" d="M285.508,356.98C278.198,349,267.688,344,256,344
			c-22.109,0-40,17.891-40,40"/>
		<g>
			<path fill="#F7941E" d="M296,384c-0.744-14.521,0.494-33.467,4.745-46.71l-17.703,16.61l-24.229,1.44
				C271.354,361.355,285.969,373.478,296,384z"/>
		</g>
	</g>
</g>
<g>
	<g>
		<path fill="none" stroke="#F7941E" stroke-width="6" stroke-miterlimit="10" d="M90.609,241.746
			C96.346,226.685,110.913,216,128,216c22.109,0,40,17.891,40,40"/>
		<g>
			<path fill="#F7941E" d="M88,256c3.82-6.186,9.713-13.628,15.225-17.869l-12.003,1.804l-10.377-6.292
				C84.295,239.681,86.863,248.821,88,256z"/>
		</g>
	</g>
</g>
<g>
	<g>
		<path fill="none" stroke="#F7941E" stroke-width="6" stroke-miterlimit="10" d="M346.609,241.746
			C352.346,226.686,366.913,216,384,216c22.109,0,40,17.891,40,40"/>
		<g>
			<path fill="#F7941E" d="M344,256c3.819-6.186,9.713-13.628,15.225-17.869l-12.003,1.804l-10.377-6.292
				C340.295,239.682,342.863,248.821,344,256z"/>
		</g>
	</g>
</g>
</svg>
