<?xml version="1.0" encoding="UTF-8" standalone="no"?>
<!-- Created with Inkscape (http://www.inkscape.org/) -->

<svg
   width="254.81778mm"
   height="181.73981mm"
   viewBox="0 0 254.81778 181.73981"
   version="1.1"
   id="svg14449"
   inkscape:version="1.1.2 (b8e25be833, 2022-02-05)"
   sodipodi:docname="homology006.svg"
   xmlns:inkscape="http://www.inkscape.org/namespaces/inkscape"
   xmlns:sodipodi="http://sodipodi.sourceforge.net/DTD/sodipodi-0.dtd"
   xmlns:xlink="http://www.w3.org/1999/xlink"
   xmlns="http://www.w3.org/2000/svg"
   xmlns:svg="http://www.w3.org/2000/svg">
  <sodipodi:namedview
     id="namedview14451"
     pagecolor="#ffffff"
     bordercolor="#666666"
     borderopacity="1.0"
     inkscape:pageshadow="2"
     inkscape:pageopacity="0.0"
     inkscape:pagecheckerboard="0"
     inkscape:document-units="mm"
     showgrid="false"
     fit-margin-top="0"
     fit-margin-left="0"
     fit-margin-right="0"
     fit-margin-bottom="0"
     inkscape:zoom="0.54252946"
     inkscape:cx="220.26454"
     inkscape:cy="281.09073"
     inkscape:window-width="1440"
     inkscape:window-height="838"
     inkscape:window-x="-6"
     inkscape:window-y="-6"
     inkscape:window-maximized="1"
     inkscape:current-layer="layer1"
     inkscape:snap-global="false" />
  <defs
     id="defs14446">
    <inkscape:path-effect
       effect="spiro"
       id="path-effect23570"
       is_visible="true"
       lpeversion="1" />
    <inkscape:path-effect
       effect="simplify"
       id="path-effect23568"
       is_visible="true"
       lpeversion="1"
       steps="1"
       threshold="0.00228916"
       smooth_angles="360"
       helper_size="0"
       simplify_individual_paths="false"
       simplify_just_coalesce="false" />
    <inkscape:path-effect
       effect="spiro"
       id="path-effect23564"
       is_visible="true"
       lpeversion="1" />
    <inkscape:path-effect
       effect="simplify"
       id="path-effect23562"
       is_visible="true"
       lpeversion="1"
       steps="1"
       threshold="0.00228916"
       smooth_angles="360"
       helper_size="0"
       simplify_individual_paths="false"
       simplify_just_coalesce="false" />
    <inkscape:path-effect
       effect="spiro"
       id="path-effect23552"
       is_visible="true"
       lpeversion="1" />
    <inkscape:path-effect
       effect="simplify"
       id="path-effect23550"
       is_visible="true"
       lpeversion="1"
       steps="1"
       threshold="0.00228916"
       smooth_angles="360"
       helper_size="0"
       simplify_individual_paths="false"
       simplify_just_coalesce="false" />
    <inkscape:path-effect
       effect="spiro"
       id="path-effect23426"
       is_visible="true"
       lpeversion="1" />
    <inkscape:path-effect
       effect="simplify"
       id="path-effect23424"
       is_visible="true"
       lpeversion="1"
       steps="1"
       threshold="0.00228916"
       smooth_angles="360"
       helper_size="0"
       simplify_individual_paths="false"
       simplify_just_coalesce="false" />
    <inkscape:path-effect
       effect="spiro"
       id="path-effect23420"
       is_visible="true"
       lpeversion="1" />
    <inkscape:path-effect
       effect="simplify"
       id="path-effect23418"
       is_visible="true"
       lpeversion="1"
       steps="1"
       threshold="0.00228916"
       smooth_angles="360"
       helper_size="0"
       simplify_individual_paths="false"
       simplify_just_coalesce="false" />
    <inkscape:path-effect
       effect="spiro"
       id="path-effect23414"
       is_visible="true"
       lpeversion="1" />
    <inkscape:path-effect
       effect="simplify"
       id="path-effect23412"
       is_visible="true"
       lpeversion="1"
       steps="1"
       threshold="0.00228916"
       smooth_angles="360"
       helper_size="0"
       simplify_individual_paths="false"
       simplify_just_coalesce="false" />
    <inkscape:path-effect
       effect="spiro"
       id="path-effect21984"
       is_visible="true"
       lpeversion="1" />
    <inkscape:path-effect
       effect="spiro"
       id="path-effect21980"
       is_visible="true"
       lpeversion="1" />
    <inkscape:path-effect
       effect="spiro"
       id="path-effect21976"
       is_visible="true"
       lpeversion="1" />
    <inkscape:path-effect
       effect="spiro"
       id="path-effect21972"
       is_visible="true"
       lpeversion="1" />
    <inkscape:path-effect
       effect="spiro"
       id="path-effect20756"
       is_visible="true"
       lpeversion="1" />
    <inkscape:path-effect
       effect="simplify"
       id="path-effect20752"
       is_visible="true"
       lpeversion="1"
       steps="1"
       threshold="0.00228916"
       smooth_angles="360"
       helper_size="0"
       simplify_individual_paths="false"
       simplify_just_coalesce="false" />
    <inkscape:path-effect
       effect="spiro"
       id="path-effect20381"
       is_visible="true"
       lpeversion="1" />
    <inkscape:path-effect
       effect="simplify"
       id="path-effect20379"
       is_visible="true"
       lpeversion="1"
       steps="1"
       threshold="0.00228916"
       smooth_angles="360"
       helper_size="0"
       simplify_individual_paths="false"
       simplify_just_coalesce="false" />
    <inkscape:path-effect
       effect="spiro"
       id="path-effect19294"
       is_visible="true"
       lpeversion="1" />
    <inkscape:path-effect
       effect="simplify"
       id="path-effect19292"
       is_visible="true"
       lpeversion="1"
       steps="1"
       threshold="0.00228916"
       smooth_angles="360"
       helper_size="0"
       simplify_individual_paths="false"
       simplify_just_coalesce="false" />
    <inkscape:path-effect
       effect="spiro"
       id="path-effect19136"
       is_visible="true"
       lpeversion="1" />
    <inkscape:path-effect
       effect="spiro"
       id="path-effect19132"
       is_visible="true"
       lpeversion="1" />
    <inkscape:path-effect
       effect="spiro"
       id="path-effect19015"
       is_visible="true"
       lpeversion="1" />
    <inkscape:path-effect
       effect="spiro"
       id="path-effect19011"
       is_visible="true"
       lpeversion="1" />
  </defs>
  <g
     inkscape:label="图层 1"
     inkscape:groupmode="layer"
     id="layer1"
     transform="translate(-11.019859,65.735231)">
    <circle
       style="fill:none;stroke:#000000;stroke-width:1.87094"
       id="path14565"
       cx="84.485916"
       cy="49.82655"
       r="30.697042" />
    <g
       id="g21790">
      <circle
         style="fill:none;stroke:#000000;stroke-width:0.5;stroke-miterlimit:4;stroke-dasharray:none"
         id="path18675"
         cx="84.454597"
         cy="-45.246315"
         r="20.238916" />
      <path
         style="fill:none;stroke:#000000;stroke-width:0.264583px;stroke-linecap:butt;stroke-linejoin:miter;stroke-opacity:1"
         d="m 63.728,-45.734009 c 4.84118,2.323416 10.043539,3.892384 15.362069,4.63301 8.422911,1.172924 17.13053,0.242983 25.115771,-2.68227"
         id="path19009"
         inkscape:path-effect="#path-effect19011"
         inkscape:original-d="m 63.728,-45.734009 c 5.120955,1.5446 10.241645,3.08894 15.362069,4.63301 5.120425,1.54407 16.744107,-1.78791 25.115771,-2.68227" />
      <path
         style="fill:none;stroke:#000000;stroke-width:0.264583px;stroke-linecap:butt;stroke-linejoin:miter;stroke-opacity:1"
         d="m 86.40534,-65.241394 c -4.42643,7.548878 -6.653232,16.370443 -6.339901,25.115765 0.178853,4.991932 1.171229,9.953813 2.926108,14.63054"
         id="path19013"
         inkscape:path-effect="#path-effect19015"
         inkscape:original-d="m 86.40534,-65.241394 c -2.113036,8.372184 -4.226337,16.744105 -6.339901,25.115765 -2.113566,8.37165 1.951003,9.75396 2.926108,14.63054" />
      <path
         style="fill:none;stroke:#000000;stroke-width:0.264583;stroke-linecap:butt;stroke-linejoin:miter;stroke-miterlimit:4;stroke-dasharray:0.793749, 0.793749;stroke-dashoffset:0;stroke-opacity:1"
         d="m 86.161497,-65.241394 c 1.615188,6.436881 2.193837,13.132678 1.706897,19.751225 -0.505687,6.873361 -2.161147,13.660746 -4.876847,19.99508"
         id="path19130"
         inkscape:path-effect="#path-effect19132"
         inkscape:original-d="m 86.161497,-65.241394 c 0.48795,6.421445 1.138196,13.167751 1.706897,19.751225 0.568701,6.58348 -3.250967,13.33032 -4.876847,19.99508" />
      <path
         style="fill:none;stroke:#000000;stroke-width:0.264583;stroke-linecap:butt;stroke-linejoin:miter;stroke-miterlimit:4;stroke-dasharray:0.793749, 0.793749;stroke-dashoffset:0;stroke-opacity:1"
         d="m 104.44968,-43.539429 c -6.504883,-3.720777 -13.964917,-5.755329 -21.458133,-5.85221 -6.442592,-0.0833 -12.899776,1.258453 -18.775862,3.90147"
         id="path19134"
         inkscape:path-effect="#path-effect19136"
         inkscape:original-d="m 104.44968,-43.539429 c -7.15245,-1.95047 -14.305159,-3.90121 -21.458133,-5.85221 -7.152973,-1.951005 -12.516977,2.60125 -18.775862,3.90147" />
    </g>
    <path
       style="fill:none;stroke:#000000;stroke-width:0.5;stroke-linecap:butt;stroke-linejoin:miter;stroke-miterlimit:4;stroke-dasharray:none;stroke-opacity:1"
       d="m 42.716074,34.977817 c -1.084276,1.432903 -2.416559,2.737792 -3.033539,4.425454 -0.30849,0.843831 -0.420822,1.777757 -0.193808,2.647057 0.113506,0.434649 0.311301,0.848846 0.591223,1.200198 0.279922,0.351351 0.642801,0.638666 1.055762,0.815491 0.727868,0.311665 1.572803,0.264131 2.322246,0.0087 0.749443,-0.255464 1.417425,-0.704031 2.045927,-1.185603 4.448714,-3.408704 7.204845,-8.5182 10.810989,-12.808427 6.370236,-7.578664 15.704067,-12.643885 25.551966,-13.661215 11.68438,-1.207046 23.60694,3.291085 32.39555,11.084806 5.17997,4.593592 9.38364,10.325531 11.96918,16.748011 2.58553,6.42248 3.52451,13.535105 2.43996,20.373013 -1.39935,8.822665 -6.23075,17.055871 -13.25252,22.577859 -8.1052,6.37401 -18.697787,8.9794 -29.008972,8.937648 -5.165033,-0.02091 -10.329632,-0.6637 -15.332674,-1.947277 -9.834131,-2.523039 -18.910402,-7.483154 -27.1271,-13.44652 -4.490958,-3.259366 -8.851657,-6.940461 -11.596125,-11.76333 -2.384735,-4.190708 -3.420395,-9.055974 -3.521692,-13.876631 -0.101298,-4.820657 0.697148,-9.619304 1.789982,-14.315548 1.051817,-4.519983 2.387805,-8.99953 4.431337,-13.166128 2.043532,-4.166598 4.822383,-8.025808 8.442898,-10.928985 5.704177,-4.574001 13.04993,-6.481159 20.206608,-7.9781831 8.088452,-1.6919318 16.283777,-3.0156505 24.544364,-3.2356093 9.667466,-0.2574205 19.725164,1.1351269 27.854614,6.3732754 8.63595,5.564505 14.18081,14.864753 18.01574,24.395576 4.85043,12.054622 7.45357,25.366072 4.96743,38.119884 -0.85023,4.361666 -2.29526,8.627738 -4.50175,12.484998 -2.20648,3.85726 -5.18934,7.299937 -8.846,9.824989 -4.72055,3.25971 -10.35567,4.883413 -15.91846,6.285093 -15.871323,3.99916 -32.585141,6.60782 -48.548551,2.99371 C 49.379392,103.26792 38.365087,97.155338 29.34719,88.950001 24.558352,84.592662 20.22614,79.514609 17.927956,73.4617 c -1.149093,-3.026455 -1.768384,-6.27143 -1.637094,-9.506025 0.131289,-3.234595 1.028183,-6.456915 2.737896,-9.205864 0.77837,-1.251496 1.71552,-2.395316 2.579359,-3.58942 0.86384,-1.194104 1.663835,-2.457646 2.120472,-3.858926 0.456637,-1.40128 0.546725,-2.963083 0.0037,-4.333196 -0.271519,-0.685057 -0.699346,-1.311872 -1.260896,-1.789039 -0.561549,-0.477166 -1.258235,-0.80074 -1.989843,-0.888922 -0.668093,-0.08053 -1.351411,0.03469 -1.980059,0.27476 -0.628649,0.240071 -1.205422,0.601944 -1.735078,1.017031 -2.151959,1.686471 -3.50372,4.214811 -4.325342,6.822501 -1.327012,4.211712 -1.407365,8.731725 -0.900972,13.118414 0.506394,4.38669 1.582216,8.683992 2.533358,12.996162 0.889228,4.031469 1.674074,8.096864 2.955234,12.021414 1.28116,3.924551 3.086952,7.736466 5.800253,10.847971 4.097666,4.699039 9.955574,7.475789 15.829725,9.565339 13.184688,4.69004 27.195502,6.53971 41.12669,7.86428 11.216951,1.0665 22.711224,1.7904 33.598284,-1.11294 4.55073,-1.21358 8.9475,-3.05962 12.89849,-5.62312 8.56919,-5.55991 14.7532,-14.368669 18.17974,-23.991681 2.73795,-7.689205 3.81115,-15.894619 3.95478,-24.055479 0.21575,-12.258056 -1.67355,-24.653768 -6.50418,-35.921932 -2.65244,-6.187206 -6.23543,-12.07271 -11.1883,-16.6318801 C 122.20436,-0.36142774 110.41424,-3.6175777 98.915686,-4.9873812 83.923116,-6.7734213 68.381263,-5.7270387 54.345049,-0.16360366 49.645521,1.6991151 45.120756,4.0687673 41.128187,7.1695214 37.135618,10.270276 33.681168,14.121634 31.34647,18.605435 c -3.519907,6.76 -4.344258,14.571077 -4.745461,22.182015 -0.491948,9.332389 -0.387986,18.977375 3.178022,27.615609 3.237782,7.843144 9.186496,14.372356 16.127075,19.253596 10.627914,7.474506 23.522689,11.256628 36.451847,12.544135 5.05558,0.50344 10.206248,0.63908 15.172962,-0.430551 8.852045,-1.906371 16.492035,-7.505252 22.897895,-13.905099 2.65011,-2.647621 5.14858,-5.465254 7.22943,-8.580223 3.33477,-4.992051 5.58384,-10.888503 5.34765,-16.887292 -0.17859,-4.535812 -1.7467,-8.885726 -3.26038,-13.165243 -2.5283,-7.148097 -5.06276,-14.529417 -10.03731,-20.251434 -2.92581,-3.365439 -6.60351,-6.027163 -10.55913,-8.086202 -10.349177,-5.387116 -22.366952,-6.640153 -34.032448,-6.433549 -4.593575,0.08136 -9.231023,0.381748 -13.635303,1.689371 -4.404279,1.307622 -8.597926,3.701668 -11.389469,7.350618 -3.118552,4.076398 -4.278767,9.383842 -7.375776,13.476631 z"
       id="path19290"
       inkscape:path-effect="#path-effect19292;#path-effect19294"
       inkscape:original-d="m 42.716074,34.977817 c 0.103508,1.364491 -2.999243,8.9856 -0.975369,9.997536 2.563039,1.28152 10.147506,-10.252826 11.948276,-12.192117 C 63.698812,22.003418 75.706472,14.504019 91.240704,16.445798 128.26668,21.074045 146.4703,76.814464 105.87125,92.280773 97.716704,95.387264 87.470979,96.805031 78.804745,95.938407 66.377944,94.695728 36.627662,80.073483 31.98701,68.140378 25.584853,51.677688 31.221301,28.077468 42.959917,17.177325 50.463021,10.210156 63.611656,8.6931638 73.19637,7.1797879 86.408518,5.0936592 101.40065,3.531098 113.6742,10.349739 139.97318,24.960283 153.85307,87.126311 119.52642,99.839887 91.382841,110.26343 48.75073,113.29638 27.841691,87.160082 20.259192,77.681959 17.073861,65.305562 19.307209,53.022151 c 0.280763,-1.544203 1.711354,-13.287178 0.975368,-13.655171 -1.639231,-0.819616 -6.881927,6.015236 -7.315272,7.315271 -3.0688886,9.206669 -1.883078,18.081346 0.731529,26.578818 2.748627,8.933037 3.571982,18.195935 9.997537,25.115763 14.595196,15.717898 78.832309,21.462768 96.805419,13.167488 11.14226,-5.14258 20.08217,-17.977172 24.62808,-29.017243 7.15829,-17.384423 2.15518,-56.495472 -10.24138,-70.958127 -21.2532,-24.795392 -85.878056,-23.330794 -102.901479,5.852217 -7.03084,12.052869 -7.737544,43.025276 0.243842,56.327586 11.472697,19.121162 41.425982,28.287987 61.93596,26.578817 9.106787,-0.7589 17.122947,-7.660561 24.140397,-12.923645 2.8335,-2.125125 7.95546,-5.288716 9.02216,-9.022167 1.68182,-5.886373 4.58234,-11.156564 5.60838,-17.312809 1.10002,-6.600113 -9.92941,-31.542833 -15.11823,-36.332511 C 99.213926,7.5620408 47.5852,5.7630652 42.716074,34.977817 Z"
       sodipodi:nodetypes="cssssssssssssssssssssssssssc" />
    <path
       style="fill:none;stroke:#000000;stroke-width:0.264583px;stroke-linecap:butt;stroke-linejoin:miter;stroke-opacity:1"
       d="m 20.038735,40.586191 c -3.384154,3.153141 -5.7616,7.370869 -6.707033,11.898667 -0.874594,4.188543 -0.540233,8.550325 0.308488,12.744187 0.848722,4.193862 2.201034,8.265931 3.377952,12.37977 0.689154,2.408891 1.328272,4.85894 2.506988,7.069893 1.258419,2.360455 3.092915,4.369067 5.083823,6.155588 1.990908,1.78652 4.151013,3.373297 6.214915,5.074966 2.455721,2.02472 4.782248,4.217588 7.402162,6.024828 6.951769,4.79539 15.55543,6.59034 23.981015,7.16686 4.443886,0.30407 8.906617,0.30006 13.344026,0.68735 4.980393,0.43468 9.910367,1.3607 14.896326,1.72605 4.985958,0.36534 10.115153,0.14622 14.787213,-1.63285 3.71721,-1.41547 7.01838,-3.76834 10.72447,-5.21268 2.69851,-1.05166 5.5611,-1.60219 8.3487,-2.38786 2.78759,-0.78567 5.57222,-1.84684 7.76334,-3.740768 2.29537,-1.984027 3.77061,-4.729096 5.17048,-7.420832 2.35322,-4.524894 4.66283,-9.153051 5.6832,-14.150168 1.41561,-6.932787 0.26419,-14.104212 -0.94545,-21.075887 C 139.88919,43.846863 137.61588,31.774708 133.58671,20.231254 132.1373,16.078729 130.39877,11.90106 127.383,8.6995921 125.18176,6.3628119 122.38127,4.6467058 119.41506,3.4188515 116.44886,2.1909971 113.3098,1.432747 110.15848,0.82022089 97.027727,-1.732023 83.495315,-1.8174542 70.198446,-0.36009261 60.400362,0.71379569 50.322407,2.7770859 42.406552,8.6503248 38.633391,11.449855 35.458948,15.066567 33.243835,19.209922 c -4.41459,8.257461 -4.823413,17.999093 -5.022315,27.360434 -0.169424,7.973952 -0.170332,16.332508 3.542997,23.391106 1.560278,2.965903 3.725333,5.580442 6.120717,7.924197 8.687952,8.500696 20.214191,13.410395 31.675651,17.457281 4.908702,1.733196 9.893555,3.351618 15.049911,4.066676 5.156357,0.715054 10.530474,0.490704 15.389079,-1.378326 3.611235,-1.389185 6.821715,-3.632682 9.953355,-5.905058 6.56497,-4.763665 13.16326,-9.983207 16.92289,-17.17045 3.42827,-6.553798 4.18165,-14.27402 3.1892,-21.603439 -1.35274,-9.990248 -5.98286,-19.637261 -13.47657,-26.381094 -4.80232,-4.321763 -10.6613,-7.38445 -16.826446,-9.316004 -6.165144,-1.931555 -12.638597,-2.75827 -19.09728,-2.917402 -6.10261,-0.150359 -12.366182,0.324027 -17.941174,2.810776 -4.341218,1.936419 -8.098047,5.030246 -11.238799,8.598378 -3.140752,3.568132 -5.695907,7.61125 -8.045413,11.743526 -1.008147,1.773114 -1.981117,3.566229 -2.918145,5.377934"
       id="path20377"
       inkscape:path-effect="#path-effect20379;#path-effect20381"
       inkscape:original-d="m 20.038735,40.586191 c -12.5408375,7.035479 -4.836441,31.82073 -1.219211,42.672414 1.341418,4.024257 10.563564,11.051249 14.386699,14.874383 7.448636,7.448642 23.694055,11.216752 33.894088,11.216752 16.262949,0 33.465989,6.2625 48.036949,-4.14532 5.7119,-4.07993 14.35421,-2.14585 18.77586,-8.778328 3.50223,-5.253355 6.77702,-10.917835 8.53448,-17.068966 3.6143,-12.65006 -5.92575,-61.52181 -14.87438,-70.4704416 -16.03664,-16.0366312 -82.35101,-13.7905955 -93.391628,8.2906406 -8.328911,16.657823 -8.32552,51.485513 2.438423,59.741379 13.301693,10.202301 32.766233,24.201366 62.667489,21.214284 3.882896,-0.387895 6.392226,-3.324575 9.266006,-5.120688 9.99643,-6.247771 19.17698,-13.536851 21.21429,-27.79803 4.34148,-30.390383 -18.70573,-50.475369 -48.524633,-50.475369 -6.173812,0 -12.125595,-0.399024 -17.800492,2.438424 -10.283226,5.141613 -18.01141,16.27159 -22.921182,26.091132"
       sodipodi:nodetypes="cssssssssssssssc" />
    <path
       style="fill:none;stroke:#000000;stroke-width:0.264583;stroke-linecap:butt;stroke-linejoin:miter;stroke-miterlimit:4;stroke-dasharray:0.793749, 0.793749;stroke-dashoffset:0;stroke-opacity:1"
       d="m 20.282577,40.586191 c -0.502145,1.559346 -0.987372,3.124139 -1.455568,4.694012 -2.14249,7.183827 -3.942831,14.657858 -3.164216,22.113822 0.629582,6.028831 2.934759,11.789789 5.99201,17.023945 3.144893,5.384203 7.148486,10.332273 12.147176,14.059617 5.904489,4.402763 12.961427,6.952323 19.98234,9.178113 5.660858,1.79462 11.376549,3.41948 17.148651,4.81548 5.72847,1.38544 11.537425,2.54853 17.423406,2.84862 5.885981,0.30009 11.874244,-0.28458 17.409344,-2.30881 4.27431,-1.56315 8.19525,-3.94801 12.0163,-6.42042 5.52877,-3.57738 10.9743,-7.422292 15.32273,-12.367602 5.24602,-5.966107 8.69821,-13.326751 11.0725,-20.90817 0.95359,-3.044941 1.74788,-6.162492 1.9596,-9.346229 0.5213,-7.839185 -2.48691,-15.425358 -5.25126,-22.77947 -3.45424,-9.189464 -6.69523,-18.658869 -12.61993,-26.48676 -2.51834,-3.327307 -5.51785,-6.3277908 -9.0475,-8.5536845 C 111.60843,1.3497479 102.19187,0.49626184 93.195702,0.57635091 79.745046,0.69609636 66.175905,2.6554537 53.744353,7.79267 c -6.719962,2.776958 -13.235164,6.616902 -17.608869,12.425525 -4.797488,6.37144 -6.57681,14.483503 -7.674769,22.383226 -1.200345,8.636387 -1.67485,17.758397 1.786904,25.761163 1.572313,3.634819 3.914008,6.908435 6.660846,9.761321 8.573062,8.904044 20.67979,13.469242 32.667729,16.480672 9.965479,2.503378 20.514981,4.113257 30.456496,1.516347 3.804,-0.993677 7.43166,-2.584944 10.89321,-4.449227 7.35421,-3.960753 14.25801,-9.477027 17.7371,-17.070965 2.64061,-5.763767 3.11326,-12.332311 2.39799,-18.631695 C 129.77902,44.678689 124.64477,33.75841 116.32898,26.014828 106.95927,17.289843 93.756001,12.931461 81.002553,14.056822 c -6.459377,0.569974 -12.854974,2.51277 -18.271211,6.07827 -5.553446,3.655825 -9.919638,8.895207 -13.381972,14.571302 -0.940549,1.541921 -1.823807,3.125845 -2.926172,4.556559 -1.102364,1.430715 -2.449023,2.718133 -4.090244,3.472153 -0.502438,0.230834 -1.028656,0.409869 -1.567619,0.533351"
       id="path20748"
       inkscape:path-effect="#path-effect20752;#path-effect20756"
       inkscape:original-d="m 20.282577,40.586191 c 3.796601,0.93942 -14.1024509,11.825656 0.731528,42.672414 1.838392,3.822874 8.612827,11.051247 12.43596,14.874383 7.448636,7.448642 18.665977,8.627102 33.406403,13.167492 15.542339,4.7874 34.441352,6.99403 49.012312,-3.41379 5.7119,-4.07993 12.64732,-6.77886 17.06897,-13.411337 3.50223,-5.253355 10.92234,-18.964633 12.6798,-25.115764 3.6143,-12.65006 -12.02181,-50.305061 -20.97044,-59.253693 C 108.61047,-5.930735 55.463589,-0.7585909 37.839227,18.152694 25.141804,31.777278 24.880702,68.90668 35.644645,77.162546 c 13.301693,10.202301 32.278548,22.250627 62.179804,19.263545 3.882891,-0.387895 8.099121,-1.617678 10.972901,-3.413791 9.99643,-6.247771 21.62884,-13.902239 22.4335,-28.285715 1.65922,-29.658856 -18.94957,-50.719211 -48.768472,-50.719211 -6.173812,0 -13.100964,2.770927 -18.775861,5.608375 -10.283226,5.141613 -17.523725,23.343018 -22.921182,23.652708"
       sodipodi:nodetypes="cssssssssssssssc" />
    <circle
       style="fill:none;stroke:#000000;stroke-width:1.87094"
       id="circle21503"
       cx="234.20512"
       cy="51.289604"
       r="30.697042" />
    <use
       x="0"
       y="0"
       xlink:href="#g21790"
       id="use21792"
       transform="translate(150.2069,4.3891626)"
       width="100%"
       height="100%" />
    <ellipse
       style="fill:none;stroke:#000000;stroke-width:0.471935;stroke-miterlimit:4;stroke-dasharray:none"
       id="circle21958"
       cx="201.28482"
       cy="33.75695"
       rx="2.868643"
       ry="7.4877391"
       transform="rotate(3.445456)" />
    <path
       style="fill:none;stroke:#000000;stroke-width:0.188774;stroke-linecap:butt;stroke-linejoin:miter;stroke-miterlimit:4;stroke-dasharray:none;stroke-opacity:1"
       d="m 195.97064,45.436154 c 0.40978,0.85533 1.17322,1.534466 2.07046,1.841823 0.61221,0.209716 1.2817,0.249365 1.91438,0.113374 0.63268,-0.135991 1.22675,-0.447237 1.69871,-0.889989"
       id="path21960"
       inkscape:path-effect="#path-effect21972"
       inkscape:original-d="m 195.97064,45.436154 c 0.69019,0.614041 1.38034,1.227983 2.07046,1.841823 0.69012,0.61384 2.40876,-0.517642 3.61309,-0.776615" />
    <path
       style="fill:none;stroke:#000000;stroke-width:0.188774;stroke-linecap:butt;stroke-linejoin:miter;stroke-miterlimit:4;stroke-dasharray:none;stroke-opacity:1"
       d="m 199.61283,38.425275 c -0.81937,3.008415 -1.30837,6.106683 -1.45541,9.221214 -0.0854,1.808765 -0.0557,3.622954 0.0887,5.427963"
       id="path21962"
       inkscape:path-effect="#path-effect21976"
       inkscape:original-d="m 199.61283,38.425275 c -0.48511,3.073837 -0.97024,6.147575 -1.45541,9.221214 -0.48518,3.073634 0.0592,3.618742 0.0887,5.427963" />
    <path
       style="fill:none;stroke:#000000;stroke-width:0.188774;stroke-linecap:butt;stroke-linejoin:miter;stroke-miterlimit:4;stroke-dasharray:0.566322, 0.566322;stroke-dashoffset:0;stroke-opacity:1"
       d="m 199.57833,38.423198 c 0.0868,2.437154 0.0207,4.879739 -0.19765,7.308641 -0.22191,2.468301 -0.60112,4.92245 -1.13457,7.342613"
       id="path21964"
       inkscape:path-effect="#path-effect21980"
       inkscape:original-d="m 199.57833,38.423198 c -0.0737,2.37559 -0.13175,4.872528 -0.19765,7.308641 -0.0659,2.436114 -0.75636,4.895175 -1.13457,7.342613" />
    <path
       style="fill:none;stroke:#000000;stroke-width:0.188774;stroke-linecap:butt;stroke-linejoin:miter;stroke-miterlimit:4;stroke-dasharray:0.566322, 0.566322;stroke-dashoffset:0;stroke-opacity:1"
       d="m 201.68327,46.593487 c -0.17667,-0.640444 -0.55855,-1.222582 -1.07565,-1.639701 -0.5171,-0.417118 -1.16686,-0.667163 -1.83019,-0.704298 -1.04955,-0.05876 -2.11443,0.438459 -2.74321,1.28087"
       id="path21966"
       inkscape:path-effect="#path-effect21984"
       inkscape:original-d="m 201.68327,46.593487 c -0.96858,-0.781232 -1.9372,-1.562565 -2.90584,-2.343999 -0.96864,-0.781434 -1.82878,0.854015 -2.74321,1.28087" />
    <text
       xml:space="preserve"
       style="font-style:normal;font-weight:normal;font-size:10.5833px;line-height:1.25;font-family:sans-serif;letter-spacing:0px;word-spacing:0px;fill:#000000;fill-opacity:1;stroke:none;stroke-width:0.264583"
       x="44.86628"
       y="53.145195"
       id="text22946"><tspan
         sodipodi:role="line"
         id="tspan22944"
         style="stroke-width:0.264583"
         x="44.86628"
         y="53.145195">P</tspan></text>
    <ellipse
       style="fill:#000000;stroke:#000000;stroke-width:0.126724;stroke-miterlimit:4;stroke-dasharray:none;stroke-dashoffset:0"
       id="path23202"
       cx="47.495533"
       cy="43.877689"
       rx="6.7934265"
       ry="0.51719832" />
    <text
       xml:space="preserve"
       style="font-style:normal;font-weight:normal;font-size:10.5833px;line-height:1.25;font-family:sans-serif;letter-spacing:0px;word-spacing:0px;fill:#000000;fill-opacity:1;stroke:none;stroke-width:0.264583"
       x="197.11542"
       y="62.283592"
       id="text23340"><tspan
         sodipodi:role="line"
         id="tspan23338"
         style="stroke-width:0.264583"
         x="197.11542"
         y="62.283592">P</tspan></text>
    <ellipse
       style="fill:#000000;stroke:#000000;stroke-width:0.0878813;stroke-miterlimit:4;stroke-dasharray:none;stroke-dashoffset:0"
       id="ellipse23342"
       cx="201.94305"
       cy="53.016087"
       rx="3.1488678"
       ry="0.53661966" />
    <g
       id="g23511">
      <path
         style="fill:none;stroke:#000000;stroke-width:0.264583px;stroke-linecap:butt;stroke-linejoin:miter;stroke-opacity:1"
         d="m 83.68159,-21.349769 -0.487682,10.729065"
         id="path23410"
         inkscape:path-effect="#path-effect23412;#path-effect23414"
         inkscape:original-d="m 83.68159,-21.349769 c 0.179237,3.629577 0.0073,7.263884 -0.487682,10.729065" />
      <path
         style="fill:none;stroke:#000000;stroke-width:0.264583px;stroke-linecap:butt;stroke-linejoin:miter;stroke-opacity:1"
         d="m 86.120014,-21.837452 c 0.2043,3.056017 0.132789,6.130419 -0.21338,9.173632 -0.07767,0.682793 -0.169128,1.364016 -0.274303,2.043116"
         id="path23416"
         inkscape:path-effect="#path-effect23418;#path-effect23420"
         inkscape:original-d="m 86.120014,-21.837452 c 0.116163,3.777399 0.09089,7.745305 -0.487683,11.216748" />
      <path
         style="fill:none;stroke:#000000;stroke-width:0.264583px;stroke-linecap:butt;stroke-linejoin:miter;stroke-opacity:1"
         d="m 76.854004,-14.522182 c 1.408598,1.492016 2.770577,3.028045 4.08328,4.6050907 0.481579,0.5785554 0.978993,1.1806383 1.657921,1.5057547 0.361243,0.1729874 0.775607,0.2593964 1.166752,0.1732161 0.288566,-0.063579 0.55094,-0.2174346 0.779328,-0.404923 0.228388,-0.1874884 0.426231,-0.4088118 0.62473,-0.6276976 0.98082,-1.0815539 2.001539,-2.1265449 3.047652,-3.1450809 0.90873,-0.884774 1.836756,-1.74973 2.783195,-2.594045"
         id="path23422"
         inkscape:path-effect="#path-effect23424;#path-effect23426"
         inkscape:original-d="m 76.854004,-14.522182 c 8.475046,9.362405 4.820388,7.6694757 14.142858,-0.487685" />
    </g>
    <use
       x="0"
       y="0"
       xlink:href="#g23511"
       id="use23513"
       transform="translate(149.23153,12.192118)"
       width="100%"
       height="100%" />
    <path
       style="fill:none;stroke:#000000;stroke-width:0.264583px;stroke-linecap:butt;stroke-linejoin:miter;stroke-opacity:1"
       d="m 98.799818,-13.546813 c 11.513472,-5.978801 24.719552,-8.653207 37.652022,-7.625031 12.46038,0.990643 24.37826,5.293993 36.5095,8.306549 4.32826,1.07484 8.69602,1.987488 13.08462,2.780794 5.46335,0.9875825 10.9783,1.792 16.52925,1.8940315 0.19637,0.00361 0.39275,0.00634 0.58914,0.00819"
       id="path23548"
       inkscape:path-effect="#path-effect23550;#path-effect23552"
       inkscape:original-d="m 98.799818,-13.546813 c 25.797792,-11.269167 49.301952,-9.247695 73.640402,0.487685 5.11022,2.04409 24.86492,4.8768471 30.72413,4.8768471"
       sodipodi:nodetypes="csc" />
    <path
       style="fill:none;stroke:#000000;stroke-width:0.264583px;stroke-linecap:butt;stroke-linejoin:miter;stroke-opacity:1"
       d="m 193.41066,-1.3546948 c 3.44907,-0.6607057 6.80095,-1.8265824 9.91555,-3.4489046 1.11629,-0.5814479 2.20223,-1.2211477 3.25193,-1.9156272"
       id="path23560"
       inkscape:path-effect="#path-effect23562;#path-effect23564"
       inkscape:original-d="m 193.41066,-1.3546948 c 4.34333,-1.7571191 9.71645,-2.6037064 13.16748,-5.3645318" />
    <path
       style="fill:none;stroke:#000000;stroke-width:0.264583px;stroke-linecap:butt;stroke-linejoin:miter;stroke-opacity:1"
       d="m 192.43528,-15.497552 c 4.59594,2.09324 8.95562,4.704694 12.9699,7.7689845 1.23747,0.9446237 2.44223,1.9321053 3.61139,2.9600796"
       id="path23566"
       inkscape:path-effect="#path-effect23568;#path-effect23570"
       inkscape:original-d="m 192.43528,-15.497552 c 5.45771,3.866357 12.04554,6.1933195 16.58129,10.7290641" />
  </g>
</svg>
