<?xml version="1.0" encoding="utf-8"?>
<!-- Generator: Adobe Illustrator 15.0.0, SVG Export Plug-In . SVG Version: 6.00 Build 0)  -->
<!DOCTYPE svg PUBLIC "-//W3C//DTD SVG 1.1//EN" "http://www.w3.org/Graphics/SVG/1.1/DTD/svg11.dtd">
<svg version="1.1" id="Layer_1" xmlns="http://www.w3.org/2000/svg" xmlns:xlink="http://www.w3.org/1999/xlink" x="0px" y="0px"
	 width="512px" height="512px" viewBox="0 0 512 512" enable-background="new 0 0 512 512" xml:space="preserve">
<polygon fill="#6D6E71" stroke="#58595B" stroke-width="8" stroke-miterlimit="10" points="384,240 272,240 272,128 240,128 
	240,240 128,240 128,272 240,272 240,392 272,392 272,272 384,272 "/>
<circle fill="#2E3192" stroke="#262262" stroke-width="8" stroke-miterlimit="10" cx="256" cy="128" r="64"/>
<circle fill="#2E3192" stroke="#262262" stroke-width="8" stroke-miterlimit="10" cx="128" cy="256" r="64"/>
<circle fill="#2E3192" stroke="#262262" stroke-width="8" stroke-miterlimit="10" cx="384" cy="256" r="64"/>
<circle fill="#2E3192" stroke="#262262" stroke-width="8" stroke-miterlimit="10" cx="256" cy="384" r="64"/>
<g>
	<g>
		<path fill="none" stroke="#F7941E" stroke-width="8" stroke-miterlimit="10" d="M291.354,109.256
			C284.639,96.605,271.334,88,256,88c-22.109,0-40,17.891-40,40"/>
		<g>
			<path fill="#F7941E" d="M296,128c0.849-9.656,3.415-22.051,7.444-30.402l-13.222,9.333l-16.13-1.285
				C281.818,110.774,290.348,120.127,296,128z"/>
		</g>
	</g>
</g>
<g>
	<g>
		<path fill="none" stroke="#F7941E" stroke-width="8" stroke-miterlimit="10" d="M291.354,365.256
			C284.639,352.605,271.334,344,256,344c-22.109,0-40,17.891-40,40"/>
		<g>
			<path fill="#F7941E" d="M296,384c0.849-9.656,3.415-22.051,7.444-30.402l-13.222,9.333l-16.13-1.284
				C281.818,366.774,290.348,376.127,296,384z"/>
		</g>
	</g>
</g>
<g>
	<g>
		<path fill="none" stroke="#F7941E" stroke-width="8" stroke-miterlimit="10" d="M92.646,237.256
			C99.361,224.605,112.666,216,128,216c22.109,0,40,17.891,40,40"/>
		<g>
			<path fill="#F7941E" d="M88,256c5.655-7.872,14.185-17.225,21.91-22.354l-16.133,1.284l-13.218-9.332
				C84.587,233.95,87.154,246.345,88,256z"/>
		</g>
	</g>
</g>
<g>
	<g>
		<path fill="none" stroke="#F7941E" stroke-width="8" stroke-miterlimit="10" d="M348.646,237.256
			C355.361,224.606,368.666,216,384,216c22.109,0,40,17.891,40,40"/>
		<g>
			<path fill="#F7941E" d="M344,256c5.655-7.873,14.186-17.225,21.91-22.354l-16.133,1.284l-13.218-9.332
				C340.588,233.951,343.154,246.346,344,256z"/>
		</g>
	</g>
</g>
</svg>
