<?xml version="1.0" encoding="utf-8"?>
<!-- Generator: Adobe Illustrator 15.0.0, SVG Export Plug-In . SVG Version: 6.00 Build 0)  -->
<!DOCTYPE svg PUBLIC "-//W3C//DTD SVG 1.1//EN" "http://www.w3.org/Graphics/SVG/1.1/DTD/svg11.dtd">
<svg version="1.1" id="Layer_1" xmlns="http://www.w3.org/2000/svg" xmlns:xlink="http://www.w3.org/1999/xlink" x="0px" y="0px"
	 width="512px" height="512px" viewBox="0 0 512 512" enable-background="new 0 0 512 512" xml:space="preserve">
<polygon fill="#6D6E71" stroke="#58595B" stroke-width="8" stroke-miterlimit="10" points="384,240 272,240 272,128 240,128 
	240,240 128,240 128,272 240,272 240,392 272,392 272,272 384,272 "/>
<circle fill="#2E3192" stroke="#262262" stroke-width="8" stroke-miterlimit="10" cx="256" cy="128" r="64"/>
<circle fill="#2E3192" stroke="#262262" stroke-width="8" stroke-miterlimit="10" cx="128" cy="256" r="64"/>
<circle fill="#2E3192" stroke="#262262" stroke-width="8" stroke-miterlimit="10" cx="384" cy="256" r="64"/>
<circle fill="#2E3192" stroke="#262262" stroke-width="8" stroke-miterlimit="10" cx="256" cy="384" r="64"/>
<g>
	<g>
		<path fill="none" stroke="#F7941E" stroke-width="12" stroke-miterlimit="10" d="M285.509,100.98C278.198,93,267.688,88,256,88
			c-22.109,0-40,17.891-40,40"/>
		<g>
			<path fill="#F7941E" d="M296,128c-0.744-14.521,0.495-33.467,4.745-46.71L283.042,97.9l-24.228,1.44
				C271.355,105.355,285.969,117.478,296,128z"/>
		</g>
	</g>
</g>
<g>
	<g>
		<path fill="none" stroke="#F7941E" stroke-width="5" stroke-miterlimit="10" d="M294.193,372.067
			C289.123,355.796,273.952,344,256,344c-22.109,0-40,17.891-40,40"/>
		<g>
			<path fill="#F7941E" d="M296,384c1.134-5.951,3.508-13.498,6.536-18.438l-8.807,4.975l-9.949-1.812
				C288.262,372.398,292.979,378.75,296,384z"/>
		</g>
	</g>
</g>
<g>
	<g>
		<path fill="none" stroke="#F7941E" stroke-width="7" stroke-miterlimit="10" d="M91.558,239.471
			C97.842,225.62,111.787,216,128,216c22.109,0,40,17.891,40,40"/>
		<g>
			<path fill="#F7941E" d="M88,256c4.712-7.052,11.894-15.483,18.498-20.198l-14.07,1.602l-11.836-7.769
				C84.362,236.819,86.974,247.582,88,256z"/>
		</g>
	</g>
</g>
<g>
	<g>
		<path fill="none" stroke="#F7941E" stroke-width="7" stroke-miterlimit="10" d="M347.558,239.471
			C353.842,225.621,367.787,216,384,216c22.109,0,40,17.891,40,40"/>
		<g>
			<path fill="#F7941E" d="M344,256c4.712-7.052,11.894-15.483,18.497-20.198l-14.069,1.602l-11.836-7.77
				C340.362,236.819,342.975,247.583,344,256z"/>
		</g>
	</g>
</g>
</svg>
