<?xml version="1.0" encoding="UTF-8" standalone="no"?>
<!-- Created with Inkscape (http://www.inkscape.org/) -->

<svg
   width="145.75827mm"
   height="38.193935mm"
   viewBox="0 0 145.75827 38.193935"
   version="1.1"
   id="svg15840"
   inkscape:version="1.1.2 (b8e25be833, 2022-02-05)"
   sodipodi:docname="compass4d02.svg"
   xmlns:inkscape="http://www.inkscape.org/namespaces/inkscape"
   xmlns:sodipodi="http://sodipodi.sourceforge.net/DTD/sodipodi-0.dtd"
   xmlns:xlink="http://www.w3.org/1999/xlink"
   xmlns="http://www.w3.org/2000/svg"
   xmlns:svg="http://www.w3.org/2000/svg">
  <sodipodi:namedview
     id="namedview15842"
     pagecolor="#ffffff"
     bordercolor="#666666"
     borderopacity="1.0"
     inkscape:pageshadow="2"
     inkscape:pageopacity="0.0"
     inkscape:pagecheckerboard="0"
     inkscape:document-units="mm"
     showgrid="false"
     inkscape:snap-global="false"
     fit-margin-top="0"
     fit-margin-left="0"
     fit-margin-right="0"
     fit-margin-bottom="0"
     inkscape:zoom="0.48488423"
     inkscape:cx="73.213353"
     inkscape:cy="56.714569"
     inkscape:window-width="1440"
     inkscape:window-height="838"
     inkscape:window-x="-6"
     inkscape:window-y="-6"
     inkscape:window-maximized="1"
     inkscape:current-layer="layer1" />
  <defs
     id="defs15837">
    <inkscape:path-effect
       effect="simplify"
       id="path-effect26908"
       is_visible="true"
       lpeversion="1"
       steps="1"
       threshold="0.00133333"
       smooth_angles="360"
       helper_size="0"
       simplify_individual_paths="false"
       simplify_just_coalesce="false" />
    <inkscape:path-effect
       effect="simplify"
       id="path-effect26904"
       is_visible="true"
       lpeversion="1"
       steps="1"
       threshold="0.00133333"
       smooth_angles="360"
       helper_size="0"
       simplify_individual_paths="false"
       simplify_just_coalesce="false" />
    <inkscape:path-effect
       effect="simplify"
       id="path-effect26900"
       is_visible="true"
       lpeversion="1"
       steps="1"
       threshold="0.00133333"
       smooth_angles="360"
       helper_size="0"
       simplify_individual_paths="false"
       simplify_just_coalesce="false" />
    <inkscape:path-effect
       effect="simplify"
       id="path-effect26896"
       is_visible="true"
       lpeversion="1"
       steps="1"
       threshold="0.00133333"
       smooth_angles="360"
       helper_size="0"
       simplify_individual_paths="false"
       simplify_just_coalesce="false" />
    <inkscape:path-effect
       effect="simplify"
       id="path-effect26892"
       is_visible="true"
       lpeversion="1"
       steps="1"
       threshold="0.00133333"
       smooth_angles="360"
       helper_size="0"
       simplify_individual_paths="false"
       simplify_just_coalesce="false" />
    <inkscape:path-effect
       effect="simplify"
       id="path-effect26888"
       is_visible="true"
       lpeversion="1"
       steps="1"
       threshold="0.00133333"
       smooth_angles="360"
       helper_size="0"
       simplify_individual_paths="false"
       simplify_just_coalesce="false" />
    <inkscape:path-effect
       effect="simplify"
       id="path-effect26884"
       is_visible="true"
       lpeversion="1"
       steps="1"
       threshold="0.00133333"
       smooth_angles="360"
       helper_size="0"
       simplify_individual_paths="false"
       simplify_just_coalesce="false" />
    <inkscape:path-effect
       effect="simplify"
       id="path-effect26880"
       is_visible="true"
       lpeversion="1"
       steps="1"
       threshold="0.00133333"
       smooth_angles="360"
       helper_size="0"
       simplify_individual_paths="false"
       simplify_just_coalesce="false" />
    <inkscape:path-effect
       effect="simplify"
       id="path-effect26876"
       is_visible="true"
       lpeversion="1"
       steps="1"
       threshold="0.00133333"
       smooth_angles="360"
       helper_size="0"
       simplify_individual_paths="false"
       simplify_just_coalesce="false" />
    <inkscape:path-effect
       effect="simplify"
       id="path-effect26872"
       is_visible="true"
       lpeversion="1"
       steps="1"
       threshold="0.00133333"
       smooth_angles="360"
       helper_size="0"
       simplify_individual_paths="false"
       simplify_just_coalesce="false" />
    <inkscape:path-effect
       effect="simplify"
       id="path-effect26868"
       is_visible="true"
       lpeversion="1"
       steps="1"
       threshold="0.00133333"
       smooth_angles="360"
       helper_size="0"
       simplify_individual_paths="false"
       simplify_just_coalesce="false" />
    <inkscape:path-effect
       effect="simplify"
       id="path-effect26864"
       is_visible="true"
       lpeversion="1"
       steps="1"
       threshold="0.00133333"
       smooth_angles="360"
       helper_size="0"
       simplify_individual_paths="false"
       simplify_just_coalesce="false" />
    <inkscape:path-effect
       effect="simplify"
       id="path-effect26860"
       is_visible="true"
       lpeversion="1"
       steps="1"
       threshold="0.00133333"
       smooth_angles="360"
       helper_size="0"
       simplify_individual_paths="false"
       simplify_just_coalesce="false" />
    <inkscape:path-effect
       effect="simplify"
       id="path-effect26856"
       is_visible="true"
       lpeversion="1"
       steps="1"
       threshold="0.00133333"
       smooth_angles="360"
       helper_size="0"
       simplify_individual_paths="false"
       simplify_just_coalesce="false" />
    <inkscape:path-effect
       effect="simplify"
       id="path-effect26852"
       is_visible="true"
       lpeversion="1"
       steps="1"
       threshold="0.00133333"
       smooth_angles="360"
       helper_size="0"
       simplify_individual_paths="false"
       simplify_just_coalesce="false" />
    <inkscape:path-effect
       effect="simplify"
       id="path-effect26848"
       is_visible="true"
       lpeversion="1"
       steps="1"
       threshold="0.00108696"
       smooth_angles="360"
       helper_size="0"
       simplify_individual_paths="false"
       simplify_just_coalesce="false" />
    <inkscape:path-effect
       effect="simplify"
       id="path-effect26844"
       is_visible="true"
       lpeversion="1"
       steps="1"
       threshold="0.00108696"
       smooth_angles="360"
       helper_size="0"
       simplify_individual_paths="false"
       simplify_just_coalesce="false" />
    <inkscape:path-effect
       effect="simplify"
       id="path-effect26840"
       is_visible="true"
       lpeversion="1"
       steps="1"
       threshold="0.00108696"
       smooth_angles="360"
       helper_size="0"
       simplify_individual_paths="false"
       simplify_just_coalesce="false" />
    <inkscape:path-effect
       effect="simplify"
       id="path-effect26836"
       is_visible="true"
       lpeversion="1"
       steps="1"
       threshold="0.00108696"
       smooth_angles="360"
       helper_size="0"
       simplify_individual_paths="false"
       simplify_just_coalesce="false" />
    <inkscape:path-effect
       effect="simplify"
       id="path-effect26832"
       is_visible="true"
       lpeversion="1"
       steps="1"
       threshold="0.00108696"
       smooth_angles="360"
       helper_size="0"
       simplify_individual_paths="false"
       simplify_just_coalesce="false" />
  </defs>
  <g
     inkscape:label="图层 1"
     inkscape:groupmode="layer"
     id="layer1"
     transform="translate(-5.344806,-3.2556942)">
    <g
       id="g17140"
       transform="matrix(0.66036288,0,0,0.66036288,-17.642824,-30.063268)">
      <circle
         style="fill:none;fill-opacity:0.845411;stroke:#000000;stroke-width:0.290999;stroke-linecap:round"
         id="path15923"
         cx="63.729504"
         cy="79.374435"
         r="28.773401" />
      <circle
         style="fill:none;fill-opacity:0.845411;stroke:#000000;stroke-width:0.290999;stroke-linecap:round"
         id="path16049"
         cx="64.151657"
         cy="79.42585"
         r="1.5518032" />
    </g>
    <path
       style="fill:none;stroke:#000000;stroke-width:0.169881px;stroke-linecap:butt;stroke-linejoin:miter;stroke-opacity:1"
       d="M 23.233446,22.478537 24.80797,7.805589 26.187888,22.497005 24.613597,37.292894 Z"
       id="path16084"
       sodipodi:nodetypes="ccccc" />
    <path
       style="fill:#ff0000;fill-opacity:0.845411;stroke:none;stroke-width:0.177101;stroke-linecap:round"
       d="m 23.495259,21.848575 c -0.0085,-0.516914 1.166555,-11.9988606 1.250504,-12.2193188 0.07924,-0.2080718 0.74497,6.4372678 1.088881,10.8691518 l 0.112459,1.44922 -0.34473,-0.362306 c -0.494935,-0.52017 -1.33494,-0.490756 -1.769716,0.06197 -0.190966,0.242773 -0.335302,0.328881 -0.337398,0.201281 z"
       id="path16814" />
    <path
       style="fill:#0000ff;fill-opacity:0.845411;stroke:none;stroke-width:0.177101;stroke-linecap:round"
       d="m 24.584992,35.393167 c -0.08508,-0.224586 -1.095429,-11.632709 -1.088984,-12.295952 0.0026,-0.266897 0.03583,-0.25898 0.304216,0.07246 0.41867,0.517034 1.394092,0.517034 1.812762,0 l 0.301303,-0.372093 -0.01033,0.541169 c -0.02307,1.209355 -1.234201,12.278206 -1.318976,12.054414 z"
       id="path17001" />
    <use
       x="0"
       y="0"
       xlink:href="#g17140"
       id="use17142"
       transform="translate(53.782167)"
       width="100%"
       height="100%" />
    <use
       x="0"
       y="0"
       xlink:href="#use17142"
       id="use17144"
       transform="translate(53.78216)"
       width="100%"
       height="100%" />
    <use
       x="0"
       y="0"
       xlink:href="#path16084"
       id="use17146"
       transform="matrix(0,-0.99940389,0.9800739,0,110.36989,47.050349)"
       width="100%"
       height="100%" />
    <circle
       style="fill:none;fill-opacity:0.845411;stroke:#000000;stroke-width:0.192165;stroke-linecap:round"
       id="path17170"
       cx="78.342392"
       cy="22.426874"
       r="15.257439" />
    <path
       style="fill:#ff0000;fill-opacity:0.845411;stroke:none;stroke-width:0.043819;stroke-linecap:round"
       d="m 118.17907,22.263906 c 0.0423,-0.0121 4.69591,-0.420647 8.05937,-0.724112 l 6.11536,-0.551755 1.3217,0.13235 c 0.72695,0.0728 3.20367,0.327552 5.50383,0.56613 l 7.29894,0.74835 -13.07899,-0.06456 -3.4e-4,-0.09969 c -9.8e-4,-0.351809 -0.31045,-0.833694 -0.77073,-0.968702 -0.56062,-0.164442 -1.36003,0.07273 -1.43462,1.021621 l -0.004,0.04676 z"
       id="path17583"
       sodipodi:nodetypes="cscssccssscc" />
    <path
       style="fill:#0000ff;fill-opacity:0.845411;stroke:none;stroke-width:0.043819;stroke-linecap:round"
       d="m 126.06091,23.070354 c -3.46111,-0.359575 -7.81436,-0.780505 -7.8903,-0.789511 l 13.0193,0.08947 c -0.0184,0.39585 0.1813,0.846562 0.65994,1.070824 0.0868,0.04068 0.26277,0.0687 0.425,0.07132 0.22842,0.0037 0.31522,-0.01509 0.50202,-0.108619 0.35887,-0.179705 0.62241,-0.569246 0.62241,-0.919996 v -0.113529 c 4.35988,-0.01825 8.71936,0.02583 13.07899,0.06456 l -0.17754,0.02798 c -0.0976,0.01538 -0.38172,0.04579 -0.63126,0.06756 -0.8976,0.0783 -13.04269,1.165196 -13.17763,1.179293 -0.0759,0.0079 -2.96989,-0.279774 -6.431,-0.639348 z"
       id="path17696"
       sodipodi:nodetypes="cccssssccssscc" />
    <path
       style="fill:#0000ff;fill-opacity:0.845411;stroke:none;stroke-width:0.0480415;stroke-linecap:round"
       d="M 77.258656,37.529352 C 74.163905,37.287956 71.276607,36.15211 68.865913,34.227694 68.245555,33.732472 67.045814,32.53312 66.556478,31.919009 64.502683,29.341525 63.350718,26.281102 63.22295,23.062839 l -0.02731,-0.687964 h 7.083043 7.083046 v 0.10142 c 0,0.171569 0.126882,0.485151 0.263227,0.650568 0.390321,0.473524 1.215774,0.516039 1.675149,0.08628 0.158943,-0.1487 0.332011,-0.511054 0.332572,-0.696309 l 3.5e-4,-0.14196 h 6.930099 6.930105 l -0.02886,0.669351 c -0.32198,7.46746 -5.990634,13.561338 -13.416382,14.422792 -0.720515,0.08359 -2.116892,0.114792 -2.789399,0.06233 z"
       id="path18441" />
    <path
       style="fill:#ff0000;fill-opacity:0.845411;stroke:none;stroke-width:0.0480415;stroke-linecap:round"
       d="m 63.209784,21.927151 c 0.02429,-0.769345 0.210715,-2.224639 0.46586,-3.239848 0.826293,-3.28778 2.811326,-6.267575 5.554337,-8.337785 2.091389,-1.5784156 4.475689,-2.5584132 7.14895,-2.9383703 0.665203,-0.094547 2.565622,-0.1314303 3.306087,-0.064165 3.001481,0.2726644 5.861262,1.4349997 8.188922,3.3283203 2.394918,1.948024 4.186001,4.646043 5.012049,7.549947 0.335986,1.181124 0.560397,2.79155 0.593309,3.745581 l 0.01393,0.404043 H 79.633027 l 1.79e-4,-0.03595 c 0.002,-0.380776 -0.249386,-0.776586 -0.631175,-0.982377 -0.244962,-0.13204 -0.757278,-0.129775 -1.006961,0.0016 -0.283058,0.148841 -0.665322,0.449176 -0.639443,1.015375 l -14.159983,0.0014 z"
       id="path18480"
       sodipodi:nodetypes="ssssssssccsscccs" />
    <text
       xml:space="preserve"
       style="font-style:normal;font-weight:normal;font-size:3.52778px;line-height:1.25;font-family:sans-serif;letter-spacing:0px;word-spacing:0px;fill:#000000;fill-opacity:1;stroke:none;stroke-width:0.264583"
       x="23.463505"
       y="6.4115386"
       id="text21430"><tspan
         sodipodi:role="line"
         id="tspan21428"
         style="font-size:3.52778px;stroke-width:0.264583"
         x="23.463505"
         y="6.4115386">N</tspan></text>
    <text
       xml:space="preserve"
       style="font-style:normal;font-weight:normal;font-size:3.52778px;line-height:1.25;font-family:sans-serif;letter-spacing:0px;word-spacing:0px;fill:#000000;fill-opacity:1;stroke:none;stroke-width:0.264583"
       x="23.583426"
       y="40.924717"
       id="text22312"><tspan
         sodipodi:role="line"
         id="tspan22310"
         style="font-size:3.52778px;stroke-width:0.264583"
         x="23.583426"
         y="40.924717">S</tspan></text>
    <use
       x="0"
       y="0"
       xlink:href="#text21430"
       id="use23428"
       transform="translate(53.884212)"
       width="100%"
       height="100%" />
    <use
       x="0"
       y="0"
       xlink:href="#text22312"
       id="use23430"
       transform="translate(53.884212)"
       width="100%"
       height="100%" />
    <text
       xml:space="preserve"
       style="font-style:normal;font-weight:normal;font-size:3.52778px;line-height:1.25;font-family:sans-serif;letter-spacing:0px;word-spacing:0px;fill:#000000;fill-opacity:1;stroke:none;stroke-width:0.264583"
       x="59.532394"
       y="23.59992"
       id="text23434"><tspan
         sodipodi:role="line"
         id="tspan23432"
         style="font-size:3.52778px;stroke-width:0.264583"
         x="59.532394"
         y="23.59992">W</tspan></text>
    <text
       xml:space="preserve"
       style="font-style:normal;font-weight:normal;font-size:3.52778px;line-height:1.25;font-family:sans-serif;letter-spacing:0px;word-spacing:0px;fill:#000000;fill-opacity:1;stroke:none;stroke-width:0.264583"
       x="94.137589"
       y="23.816956"
       id="text24968"><tspan
         sodipodi:role="line"
         id="tspan24966"
         style="font-size:3.52778px;stroke-width:0.264583"
         x="94.137589"
         y="23.816956">E</tspan></text>
    <use
       x="0"
       y="0"
       xlink:href="#text23434"
       id="use26694"
       transform="translate(54.017871,-0.09646048)"
       width="100%"
       height="100%" />
    <use
       x="0"
       y="0"
       xlink:href="#text24968"
       id="use26696"
       transform="translate(54.017871,-0.09646048)"
       width="100%"
       height="100%" />
    <path
       style="fill:none;stroke:#999999;stroke-width:0.565;stroke-linecap:butt;stroke-linejoin:miter;stroke-miterlimit:4;stroke-dasharray:none;stroke-opacity:1"
       d="m 15.243185,19.136387 c -1.568449,1.210608 -3.213045,2.318799 -4.900589,3.353014 -0.217421,0.133247 -0.4547259,0.229325 -0.6867225,0.333627 -0.1860669,0.08365 -0.3628035,0.188425 -0.5539909,0.260724 -0.036392,0.01376 -0.09322,0.07542 -0.019914,0.08061 0.1257322,0.0089 0.2522288,0.0014 0.3780443,-0.0041 0.5311536,-0.02319 1.0667078,-0.09678 1.5959408,-0.0188 0.66372,0.0978 1.293823,0.344367 1.904994,0.612424 0.716319,0.314174 1.410828,0.683534 2.154852,0.930263 0.144017,0.04776 0.289812,0.09037 0.437531,0.125137"
       id="path26850"
       inkscape:path-effect="#path-effect26852"
       inkscape:original-d="m 15.243185,19.136387 c -1.560682,1.205045 -3.252599,2.214775 -4.871875,3.333936 -0.3872202,0.267627 -1.6983663,0.697801 -1.2276604,0.697801 0.6496912,0 1.3610554,-0.12142 2.0030254,-0.01292 1.538295,0.259983 3.03715,1.331822 4.406656,1.654046" />
    <path
       style="fill:none;stroke:#999999;stroke-width:0.565;stroke-linecap:butt;stroke-linejoin:miter;stroke-miterlimit:4;stroke-dasharray:none;stroke-opacity:1"
       d="m 10.22916,22.728768 c 1.0173,-0.312175 2.072192,-0.482187 3.127534,-0.601801 1.793909,-0.203324 3.600465,-0.241229 5.403522,-0.294725 0.08547,-0.0025 0.170945,-0.0052 0.25641,-0.008"
       id="path26854"
       inkscape:path-effect="#path-effect26856"
       inkscape:original-d="m 10.22916,22.728768 c 2.658955,-0.825777 6.671894,-0.83404 8.787466,-0.904557" />
    <path
       style="fill:none;stroke:#999999;stroke-width:0.565;stroke-linecap:butt;stroke-linejoin:miter;stroke-miterlimit:4;stroke-dasharray:none;stroke-opacity:1"
       d="m 30.078495,22.431557 c 0.133356,-0.08419 0.29308,-0.112817 0.446364,-0.135137 0.504596,-0.07348 1.01601,-0.08197 1.524964,-0.08349 1.569846,-0.0047 3.137394,0.112916 4.706872,0.117643 0.331055,9.97e-4 0.670595,0.04792 0.993258,-0.02913 0.06107,-0.01458 0.191095,3.45e-4 0.18315,-0.06821 -0.0084,-0.07262 -0.112399,-0.09371 -0.165574,-0.124734"
       id="path26858"
       inkscape:path-effect="#path-effect26860"
       inkscape:original-d="m 30.078495,22.431557 c 0.85386,-0.595626 9.122976,0.280684 7.689034,-0.323056" />
    <path
       style="fill:none;stroke:#999999;stroke-width:0.565;stroke-linecap:butt;stroke-linejoin:miter;stroke-miterlimit:4;stroke-dasharray:none;stroke-opacity:1"
       d="m 33.981165,20.002176 c 0.968651,0.163711 1.940999,0.323969 2.887935,0.588415 0.448244,0.125179 0.903427,0.254636 1.307808,0.489529 0.199306,0.115771 0.398518,0.261433 0.500052,0.47547 0.08178,0.172404 0.05873,0.375846 -0.01753,0.54589 -0.126986,0.283172 -0.340583,0.516805 -0.563025,0.727979 -0.471102,0.447238 -0.998594,0.829864 -1.530876,1.199993 -0.46756,0.325124 -0.943324,0.638274 -1.42132,0.947785"
       id="path26862"
       inkscape:path-effect="#path-effect26864"
       inkscape:original-d="m 33.981165,20.002176 c 6.248934,1.038316 6.005195,1.842029 1.163047,4.975061" />
    <path
       style="fill:none;stroke:#999999;stroke-width:0.565;stroke-linecap:butt;stroke-linejoin:miter;stroke-miterlimit:4;stroke-dasharray:none;stroke-opacity:1"
       d="m 78.837546,8.7827476 c -0.06062,0.8812095 0.01307,1.7639714 0.08374,2.6422654 0.06608,0.821193 0.142613,1.645221 0.102598,2.469731 -0.0045,0.09229 -0.01051,0.184508 -0.01834,0.276575"
       id="path26866"
       inkscape:path-effect="#path-effect26868"
       inkscape:original-d="m 78.837546,8.7827476 c -0.12405,1.7615334 0.310184,3.7179304 0.167997,5.3885714" />
    <path
       style="fill:none;stroke:#999999;stroke-width:0.565;stroke-linecap:butt;stroke-linejoin:miter;stroke-miterlimit:4;stroke-dasharray:none;stroke-opacity:1"
       d="m 76.459762,12.452662 c 0.530601,0.943522 1.036597,1.901822 1.605931,2.822717 0.228482,0.369569 0.449143,0.750335 0.745619,1.069822 0.131045,0.141216 0.278888,0.287085 0.471622,0.335656 0.144598,0.03644 0.294291,-0.02303 0.406416,-0.113616 0.204444,-0.16517 0.355443,-0.385104 0.495825,-0.604208 0.340583,-0.53157 0.646067,-1.08445 0.968923,-1.626763 0.301284,-0.506078 0.613101,-1.005965 0.939979,-1.495941"
       id="path26870"
       inkscape:path-effect="#path-effect26872"
       inkscape:original-d="m 76.459762,12.452662 c 3.487084,6.239325 2.616231,4.914616 5.634315,0.387667" />
    <path
       style="fill:none;stroke:#999999;stroke-width:0.565;stroke-linecap:butt;stroke-linejoin:miter;stroke-miterlimit:4;stroke-dasharray:none;stroke-opacity:1"
       d="m 76.420992,30.841002 c 0.429843,-0.969176 0.801409,-1.962569 1.165666,-2.958097 0.108305,-0.296002 0.192967,-0.6033 0.339331,-0.882955 0.04605,-0.08798 0.09087,-0.187577 0.179141,-0.240672 0.06111,-0.03676 0.135904,-0.008 0.186896,0.03304 0.127324,0.102428 0.222577,0.238038 0.315407,0.370674 0.303661,0.43387 0.596826,0.875045 0.908641,1.303261 0.5019,0.689259 1.040811,1.351276 1.608797,1.987082"
       id="path26874"
       inkscape:path-effect="#path-effect26876"
       inkscape:original-d="m 76.420992,30.841002 c 2.559897,-5.800652 0.588785,-4.996391 4.703879,-0.387667" />
    <path
       style="fill:none;stroke:#999999;stroke-width:0.565;stroke-linecap:butt;stroke-linejoin:miter;stroke-miterlimit:4;stroke-dasharray:none;stroke-opacity:1"
       d="m 78.579093,28.734678 c -0.0431,0.538445 -0.04132,1.07934 -0.03184,1.618999 0.02404,1.367671 0.117353,2.73273 0.189893,4.098396 0.0038,0.07128 0.0079,0.142554 0.0099,0.21391"
       id="path26878"
       inkscape:path-effect="#path-effect26880"
       inkscape:original-d="m 78.579093,28.734678 c -0.137134,1.593718 0.157133,5.475113 0.167994,5.931305" />
    <path
       style="fill:none;stroke:#000000;stroke-width:0.264583px;stroke-linecap:butt;stroke-linejoin:miter;stroke-opacity:1"
       d="m 47.758344,20.167236 c 0.406596,-0.06663 0.816859,-0.108389 1.227278,-0.142595 0.61165,-0.05098 1.224771,-0.09217 1.838632,-0.09589 0.244602,-0.0015 0.490247,-0.0047 0.733561,0.02314 0.02153,0.0025 0.04302,0.0053 0.06443,0.0086"
       id="path26882"
       inkscape:path-effect="#path-effect26884"
       inkscape:original-d="M 47.758344,20.167236 C 48.716263,20.00548 50.985017,19.86136 51.622245,19.96048" />
    <path
       style="fill:none;stroke:#000000;stroke-width:0.264583px;stroke-linecap:butt;stroke-linejoin:miter;stroke-opacity:1"
       d="m 48.15895,23.152272 c 1.354423,-0.177678 2.715589,-0.335892 4.083587,-0.335978"
       id="path26890"
       inkscape:path-effect="#path-effect26892"
       inkscape:original-d="m 48.15895,23.152272 c 1.353468,-0.177601 2.716895,-0.335978 4.083587,-0.335978" />
    <path
       style="fill:none;stroke:#000000;stroke-width:0.264583px;stroke-linecap:butt;stroke-linejoin:miter;stroke-opacity:1"
       d="m 51.079492,17.556945 c 0.622489,0.626228 1.317769,1.172725 2.012478,1.715879 0.391854,0.306369 0.797356,0.602227 1.134817,0.970204 0.222531,0.242654 0.405866,0.538091 0.447844,0.870717 0.04834,0.383011 -0.07721,0.76413 -0.246415,1.102298 -0.262971,0.525582 -0.613682,1.001182 -0.98444,1.454855 -0.349746,0.427962 -0.712814,0.849641 -1.132906,1.209925 -0.174405,0.149575 -0.353266,0.302724 -0.565872,0.394228 -0.01907,0.0082 -0.03844,0.01574 -0.05814,0.02231"
       id="path26894"
       inkscape:path-effect="#path-effect26896"
       inkscape:original-d="m 51.079492,17.556945 c 2.718088,2.716508 4.949007,2.708781 2.649162,5.750394 -0.66761,0.882935 -1.561505,1.829934 -2.041795,1.990024" />
    <path
       style="fill:none;stroke:#000000;stroke-width:0.264583px;stroke-linecap:butt;stroke-linejoin:miter;stroke-opacity:1"
       d="m 101.73665,21.57576 c 0.13879,0.03613 0.28198,0.05165 0.42436,0.06543 0.46497,0.04501 0.93189,0.06602 1.39857,0.08336 0.60687,0.02255 1.21406,0.03637 1.82128,0.04504"
       id="path26898"
       inkscape:path-effect="#path-effect26900"
       inkscape:original-d="m 101.73665,21.57576 c 0.56142,0.15815 3.61023,0.192848 3.64421,0.193833" />
    <path
       style="fill:none;stroke:#000000;stroke-width:0.264583px;stroke-linecap:butt;stroke-linejoin:miter;stroke-opacity:1"
       d="m 101.01298,25.038919 c 1.52919,-0.056 3.05838,-0.111993 4.58757,-0.167989"
       id="path26902"
       inkscape:path-effect="#path-effect26904"
       inkscape:original-d="m 101.01298,25.038919 c 1.52919,-0.056 3.05838,-0.111993 4.58757,-0.167989" />
    <path
       style="fill:none;stroke:#000000;stroke-width:0.264583px;stroke-linecap:butt;stroke-linejoin:miter;stroke-opacity:1"
       d="m 103.98521,18.784557 c 0.47337,0.77082 1.0721,1.458778 1.7407,2.067552 0.35732,0.325346 0.74695,0.614395 1.0918,0.953366 0.22531,0.221466 0.42956,0.48858 0.48433,0.807795 0.0615,0.358508 -0.0481,0.720164 -0.18782,1.046978 -0.24866,0.581494 -0.60986,1.103041 -0.9424,1.637902 -0.51808,0.833282 -1.03364,1.678903 -1.70494,2.400191 -0.17544,0.188504 -0.36133,0.367489 -0.55921,0.53237"
       id="path26906"
       inkscape:path-effect="#path-effect26908"
       inkscape:original-d="m 103.98521,18.784557 c 2.16048,3.488761 4.61938,2.67404 2.5587,5.918384 -0.79986,1.259312 -1.53903,2.613467 -2.63624,3.52777" />
  </g>
</svg>
