<?xml version="1.0" encoding="UTF-8" standalone="no"?>
<!-- Created with Inkscape (http://www.inkscape.org/) -->

<svg
   width="143.19388mm"
   height="51.176456mm"
   viewBox="0 0 143.19388 51.176456"
   version="1.1"
   id="svg13251"
   inkscape:version="1.1.2 (b8e25be833, 2022-02-05)"
   sodipodi:docname="homology018.svg"
   xmlns:inkscape="http://www.inkscape.org/namespaces/inkscape"
   xmlns:sodipodi="http://sodipodi.sourceforge.net/DTD/sodipodi-0.dtd"
   xmlns:xlink="http://www.w3.org/1999/xlink"
   xmlns="http://www.w3.org/2000/svg"
   xmlns:svg="http://www.w3.org/2000/svg">
  <sodipodi:namedview
     id="namedview13253"
     pagecolor="#ffffff"
     bordercolor="#666666"
     borderopacity="1.0"
     inkscape:pageshadow="2"
     inkscape:pageopacity="0.0"
     inkscape:pagecheckerboard="0"
     inkscape:document-units="mm"
     showgrid="false"
     fit-margin-top="0"
     fit-margin-left="0"
     fit-margin-right="0"
     fit-margin-bottom="0"
     inkscape:zoom="2.1701178"
     inkscape:cx="400.20869"
     inkscape:cy="107.59785"
     inkscape:window-width="1440"
     inkscape:window-height="838"
     inkscape:window-x="-6"
     inkscape:window-y="-6"
     inkscape:window-maximized="1"
     inkscape:current-layer="layer1"
     inkscape:snap-global="false" />
  <defs
     id="defs13248">
    <marker
       style="overflow:visible;"
       id="Arrow1Mend"
       refX="0.0"
       refY="0.0"
       orient="auto"
       inkscape:stockid="Arrow1Mend"
       inkscape:isstock="true">
      <path
         transform="scale(0.4) rotate(180) translate(10,0)"
         style="fill-rule:evenodd;fill:context-stroke;stroke:context-stroke;stroke-width:1.0pt;"
         d="M 0.0,0.0 L 5.0,-5.0 L -12.5,0.0 L 5.0,5.0 L 0.0,0.0 z "
         id="path2932" />
    </marker>
    <marker
       style="overflow:visible;"
       id="Arrow1Lend"
       refX="0.0"
       refY="0.0"
       orient="auto"
       inkscape:stockid="Arrow1Lend"
       inkscape:isstock="true">
      <path
         transform="scale(0.8) rotate(180) translate(12.5,0)"
         style="fill-rule:evenodd;fill:context-stroke;stroke:context-stroke;stroke-width:1.0pt;"
         d="M 0.0,0.0 L 5.0,-5.0 L -12.5,0.0 L 5.0,5.0 L 0.0,0.0 z "
         id="path2926" />
    </marker>
    <marker
       style="overflow:visible"
       id="Arrow1Send"
       refX="0"
       refY="0"
       orient="auto"
       inkscape:stockid="Arrow1Send"
       inkscape:isstock="true">
      <path
         transform="matrix(-0.2,0,0,-0.2,-1.2,0)"
         style="fill:context-stroke;fill-rule:evenodd;stroke:context-stroke;stroke-width:1pt"
         d="M 0,0 5,-5 -12.5,0 5,5 Z"
         id="path3824" />
    </marker>
  </defs>
  <g
     inkscape:label="图层 1"
     inkscape:groupmode="layer"
     id="layer1"
     transform="translate(-24.483454,-103.35327)">
    <use
       x="0"
       y="0"
       xlink:href="#g2216"
       id="use2218"
       transform="translate(74.737686,-1.3411292)"
       width="100%"
       height="100%" />
    <path
       style="fill:#00ff00;stroke:none;stroke-width:0.214274;stroke-linejoin:bevel;stroke-miterlimit:4;stroke-dasharray:none"
       d="m 156.77904,145.00783 -6.69457,-3.00555 -5.35412,-8.82015 c -2.94477,-4.85109 -5.33637,-8.83606 -5.31467,-8.85549 0.0217,-0.0194 4.34631,4.16315 9.61026,9.29464 5.26395,5.13149 10.75015,10.47436 12.19155,11.87304 1.44141,1.39868 2.5387,2.53766 2.43843,2.53106 -0.10027,-0.007 -3.19487,-1.36449 -6.87688,-3.01755 z"
       id="path30681" />
    <path
       style="fill:none;stroke:#000dec;stroke-width:0.264583px;stroke-linecap:butt;stroke-linejoin:miter;stroke-opacity:1"
       d="m 103.0234,150.57864 19.75123,-10.24138 27.0665,1.95073 z"
       id="path560" />
    <path
       style="fill:none;stroke:#ff0000;stroke-width:0.264583px;stroke-linecap:butt;stroke-linejoin:miter;stroke-opacity:1"
       d="M 165.69089,149.35942 137.40517,121.80524"
       id="path628" />
    <path
       style="fill:none;stroke:#ff0000;stroke-width:0.264583px;stroke-linecap:butt;stroke-linejoin:miter;stroke-opacity:1"
       d="m 137.89286,106.68701 -15.11823,33.65025"
       id="path630" />
    <path
       style="fill:none;stroke:#000dec;stroke-width:0.264583px;stroke-linecap:butt;stroke-linejoin:miter;stroke-opacity:1"
       d="m 112.38863,144.07495 3.90148,-0.60961 -3.04803,2.80419"
       id="path799" />
    <path
       style="fill:none;stroke:#000dec;stroke-width:0.264583px;stroke-linecap:butt;stroke-linejoin:miter;stroke-opacity:1"
       d="m 133.11523,139.8077 2.80419,1.46306 -4.14532,0.73153"
       id="path801" />
    <path
       style="fill:none;stroke:#000dec;stroke-width:0.264583px;stroke-linecap:butt;stroke-linejoin:miter;stroke-opacity:1"
       d="m 123.11769,145.90376 3.41379,0.36577 -3.16995,1.82881"
       id="path803" />
    <path
       style="fill:none;stroke:#ff0000;stroke-width:0.264583px;stroke-linecap:butt;stroke-linejoin:miter;stroke-opacity:1"
       d="m 130.55488,119.93455 -0.48768,4.14532 2.68226,-3.29187"
       id="path805" />
    <path
       style="fill:none;stroke:#ff0000;stroke-width:0.264583px;stroke-linecap:butt;stroke-linejoin:miter;stroke-opacity:1"
       d="m 152.01301,137.4912 -1.49973,-3.42343 2.59702,1.22885"
       id="path807" />
    <path
       sodipodi:type="spiral"
       style="fill:none;fill-rule:evenodd;stroke:#008000;marker-end:url(#Arrow1Mend)"
       id="path832"
       sodipodi:cx="192.23938"
       sodipodi:cy="146.07501"
       sodipodi:expansion="1"
       sodipodi:revolution="1.12"
       sodipodi:radius="9.4347515"
       sodipodi:argument="-7.7250924"
       sodipodi:t0="0"
       d="m 192.23938,146.07501 c 0.16286,-1.25657 1.77418,-0.40041 2.0885,0.27069 0.85179,1.81864 -0.94499,3.60097 -2.62987,3.90632 -3.01386,0.54619 -5.49617,-2.15319 -5.72414,-4.98907 -0.33455,-4.16176 3.37027,-7.42679 7.34825,-7.54195 2.28474,-0.0661 4.5273,0.82526 6.20622,2.36355"
       transform="matrix(0.26458333,0,0,0.26458333,100.92804,102.01214)" />
    <g
       id="g2216">
      <path
         style="fill:none;stroke:#000000;stroke-width:0.565;stroke-linecap:butt;stroke-linejoin:bevel;stroke-miterlimit:4;stroke-dasharray:none;stroke-opacity:1"
         d="m 62.667487,123.14637 -14.630542,18.53202 27.0665,1.95073 z"
         id="path17043" />
      <path
         style="fill:none;stroke:#000000;stroke-width:0.565;stroke-linecap:butt;stroke-linejoin:bevel;stroke-miterlimit:4;stroke-dasharray:none;stroke-opacity:1"
         d="m 62.667487,123.14637 0.487685,-15.11823 27.798029,42.67241 z"
         id="path17045" />
      <path
         style="fill:none;stroke:#000000;stroke-width:0.565;stroke-linecap:butt;stroke-linejoin:bevel;stroke-miterlimit:4;stroke-dasharray:none;stroke-opacity:1"
         d="m 75.103445,143.62912 15.849756,7.07143 -62.667488,1.46306 34.869459,-44.13547 -15.118227,33.65025 -19.751232,10.24138 46.817732,-8.29065"
         id="path17047"
         sodipodi:nodetypes="ccccccc" />
      <text
         xml:space="preserve"
         style="font-style:italic;font-variant:normal;font-weight:normal;font-stretch:normal;font-size:4.23333px;line-height:1.25;font-family:'Times New Roman';-inkscape-font-specification:'Times New Roman,  Italic';letter-spacing:0px;word-spacing:0px;fill:#000000;fill-opacity:1;stroke:none;stroke-width:0.264583"
         x="24.384235"
         y="154.48012"
         id="text18584"><tspan
           sodipodi:role="line"
           id="tspan18582"
           style="font-style:italic;font-variant:normal;font-weight:normal;font-stretch:normal;font-size:4.23333px;font-family:'Times New Roman';-inkscape-font-specification:'Times New Roman,  Italic';stroke-width:0.264583"
           x="24.384235"
           y="154.48012">a</tspan></text>
      <text
         xml:space="preserve"
         style="font-style:italic;font-variant:normal;font-weight:normal;font-stretch:normal;font-size:4.23333px;line-height:1.25;font-family:'Times New Roman';-inkscape-font-specification:'Times New Roman,  Italic';letter-spacing:0px;word-spacing:0px;fill:#000000;fill-opacity:1;stroke:none;stroke-width:0.264583"
         x="90.953201"
         y="153.99243"
         id="text20472"><tspan
           sodipodi:role="line"
           id="tspan20470"
           style="font-style:italic;font-variant:normal;font-weight:normal;font-stretch:normal;font-size:4.23333px;font-family:'Times New Roman';-inkscape-font-specification:'Times New Roman,  Italic';stroke-width:0.264583"
           x="90.953201"
           y="153.99243">b</tspan></text>
      <text
         xml:space="preserve"
         style="font-style:italic;font-variant:normal;font-weight:normal;font-stretch:normal;font-size:4.23333px;line-height:1.25;font-family:'Times New Roman';-inkscape-font-specification:'Times New Roman,  Italic';letter-spacing:0px;word-spacing:0px;fill:#000000;fill-opacity:1;stroke:none;stroke-width:0.264583"
         x="61.814037"
         y="106.56509"
         id="text20476"><tspan
           sodipodi:role="line"
           id="tspan20474"
           style="font-style:italic;font-variant:normal;font-weight:normal;font-stretch:normal;font-size:4.23333px;font-family:'Times New Roman';-inkscape-font-specification:'Times New Roman,  Italic';stroke-width:0.264583"
           x="61.814037"
           y="106.56509">c</tspan></text>
      <text
         xml:space="preserve"
         style="font-style:italic;font-variant:normal;font-weight:normal;font-stretch:normal;font-size:4.23333px;line-height:1.25;font-family:'Times New Roman';-inkscape-font-specification:'Times New Roman,  Italic';letter-spacing:0px;word-spacing:0px;fill:#000000;fill-opacity:1;stroke:none;stroke-width:0.264583"
         x="61.082512"
         y="128.87666"
         id="text20480"><tspan
           sodipodi:role="line"
           id="tspan20478"
           style="font-style:italic;font-variant:normal;font-weight:normal;font-stretch:normal;font-size:4.23333px;font-family:'Times New Roman';-inkscape-font-specification:'Times New Roman,  Italic';stroke-width:0.264583"
           x="61.082512"
           y="128.87666">f</tspan></text>
      <text
         xml:space="preserve"
         style="font-style:italic;font-variant:normal;font-weight:normal;font-stretch:normal;font-size:4.23333px;line-height:1.25;font-family:'Times New Roman';-inkscape-font-specification:'Times New Roman,  Italic';letter-spacing:0px;word-spacing:0px;fill:#000000;fill-opacity:1;stroke:none;stroke-width:0.264583"
         x="51.328815"
         y="140.58112"
         id="text20484"><tspan
           sodipodi:role="line"
           id="tspan20482"
           style="font-style:italic;font-variant:normal;font-weight:normal;font-stretch:normal;font-size:4.23333px;font-family:'Times New Roman';-inkscape-font-specification:'Times New Roman,  Italic';stroke-width:0.264583"
           x="51.328815"
           y="140.58112">d</tspan></text>
      <text
         xml:space="preserve"
         style="font-style:italic;font-variant:normal;font-weight:normal;font-stretch:normal;font-size:4.23333px;line-height:1.25;font-family:'Times New Roman';-inkscape-font-specification:'Times New Roman,  Italic';letter-spacing:0px;word-spacing:0px;fill:#000000;fill-opacity:1;stroke:none;stroke-width:0.264583"
         x="69.373154"
         y="141.80031"
         id="text20488"><tspan
           sodipodi:role="line"
           id="tspan20486"
           style="font-style:italic;font-variant:normal;font-weight:normal;font-stretch:normal;font-size:4.23333px;font-family:'Times New Roman';-inkscape-font-specification:'Times New Roman,  Italic';stroke-width:0.264583"
           x="69.373154"
           y="141.80031">e</tspan></text>
      <path
         style="fill:#cccccc;stroke:none;stroke-width:0.809855;stroke-linejoin:bevel;stroke-miterlimit:4;stroke-dasharray:none"
         d="m 34.790737,176.24625 c 3.928358,-0.723 40.706278,-7.25361 81.728713,-14.51247 l 74.58624,-13.19793 26.72117,11.90251 26.72117,11.90251 -2.23445,0.32761 c -1.22895,0.18019 -26.59949,0.86445 -56.37898,1.52057 -29.77949,0.65613 -75.50281,1.69853 -101.607382,2.31646 -26.104573,0.61793 -49.536481,1.10816 -52.070905,1.0894 l -4.608045,-0.0341 z"
         id="path30486"
         transform="matrix(0.26458333,0,0,0.26458333,24.483454,104.6944)" />
      <path
         style="fill:#cccccc;stroke:none;stroke-width:0.809855;stroke-linejoin:bevel;stroke-miterlimit:4;stroke-dasharray:none"
         d="m 24.653039,174.68641 c 0.633606,-0.33704 15.45999,-8.03193 32.94752,-17.09976 l 31.795508,-16.48696 43.315623,3.07291 c 23.82359,1.6901 44.12999,3.22427 45.12534,3.40927 1.4431,0.26822 -7.6122,2.00283 -44.69803,8.56225 -25.57927,4.52423 -60.449883,10.69325 -77.490255,13.70893 -17.040372,3.01568 -31.244669,5.47475 -31.565106,5.4646 -0.320436,-0.0101 -0.06421,-0.2942 0.5694,-0.63124 z"
         id="path30525"
         transform="matrix(0.26458333,0,0,0.26458333,24.483454,104.6944)" />
      <path
         style="fill:#cccccc;stroke:none;stroke-width:0.809855;stroke-linejoin:bevel;stroke-miterlimit:4;stroke-dasharray:none"
         d="M 21.750114,172.39882 C 22.66987,170.81826 139.11427,23.759554 139.29943,23.944712 c 0.1149,0.114896 -11.3774,26.001725 -25.53844,57.526288 l -25.747336,57.31739 -33.009267,17.12184 c -18.155096,9.41702 -33.147305,17.12185 -33.31602,17.12185 -0.168715,0 -0.140929,-0.28497 0.06175,-0.63326 z"
         id="path30564"
         transform="matrix(0.26458333,0,0,0.26458333,24.483454,104.6944)" />
      <path
         style="fill:#cccccc;stroke:none;stroke-width:0.809855;stroke-linejoin:bevel;stroke-miterlimit:4;stroke-dasharray:none"
         d="m 95.678185,128.45343 c 0.09303,-0.31451 11.055655,-24.81535 24.361375,-54.44632 19.14299,-42.63015 24.22454,-53.571059 24.34699,-52.420687 0.26633,2.502021 -1.358,47.499563 -1.73236,47.990107 -3.62083,4.744628 -45.592154,57.87125 -46.237841,58.52711 -0.49902,0.50689 -0.831193,0.66429 -0.738164,0.34979 z"
         id="path30603"
         transform="matrix(0.26458333,0,0,0.26458333,24.483454,104.6944)" />
      <path
         style="fill:#cccccc;stroke:none;stroke-width:0.809855;stroke-linejoin:bevel;stroke-miterlimit:4;stroke-dasharray:none"
         d="m 193.86006,116.08629 -48.01545,-46.778132 -10e-4,-3.780177 c -0.001,-4.059224 1.32844,-46.025202 1.50688,-47.553183 0.0664,-0.568285 18.16188,26.799614 47.48501,71.816976 26.05778,40.004336 47.30185,72.811096 47.20904,72.903906 -0.0928,0.0928 -21.77569,-20.88143 -48.18419,-46.60939 z"
         id="path30642"
         transform="matrix(0.26458333,0,0,0.26458333,24.483454,104.6944)" />
      <path
         style="fill:#cccccc;stroke:none;stroke-width:0.809855;stroke-linecap:round"
         d="M 217.54167,157.43459 192.23938,146.07502 172.00332,112.739 C 160.87349,94.404192 151.83436,79.342885 151.91637,79.26943 c 0.082,-0.07345 16.42703,15.734762 36.32226,35.12937 19.89523,19.39461 40.63047,39.58813 46.0783,44.87448 5.44784,5.28636 9.59508,9.59116 9.21609,9.56622 -0.37898,-0.0249 -12.07509,-5.15715 -25.99135,-11.40491 z"
         id="path2076"
         transform="matrix(0.26458333,0,0,0.26458333,24.483454,104.6944)" />
    </g>
    <path
       style="fill:none;stroke:#000000;stroke-width:0.264583px;stroke-linecap:butt;stroke-linejoin:miter;stroke-opacity:1"
       d="m 63.15517,108.02814 -15.118225,33.65025 -19.751232,10.24138 46.817731,-8.29065 15.849756,7.07143 -62.667487,1.21922 z"
       id="path2397" />
    <path
       style="fill:none;stroke:#00ffff;stroke-width:0.264583px;stroke-linecap:butt;stroke-linejoin:miter;stroke-opacity:1"
       d="M 28.285713,151.91977 75.103444,143.62912 48.036945,141.67839 63.15517,108.02814 Z"
       id="path2432" />
    <path
       style="fill:none;stroke:#ff00ff;stroke-width:0.264583px;stroke-linecap:butt;stroke-linejoin:miter;stroke-opacity:1"
       d="M 63.15517,108.02814 62.667488,123.14637 48.036945,141.67839 28.285713,152.16361 90.9532,150.70055 Z"
       id="path2467" />
    <path
       style="fill:none;stroke:#00ffff;stroke-width:0.264583px;stroke-linecap:butt;stroke-linejoin:miter;stroke-opacity:1"
       d="m 43.62508,129.93208 3.413793,-1.82881 -0.975369,3.77955"
       id="path2666" />
    <path
       style="fill:none;stroke:#00ffff;stroke-width:0.264583px;stroke-linecap:butt;stroke-linejoin:miter;stroke-opacity:1"
       d="m 52.403406,127.61558 0.24384,3.77956 2.804189,-3.16995"
       id="path2668" />
    <path
       style="fill:none;stroke:#00ffff;stroke-width:0.264583px;stroke-linecap:butt;stroke-linejoin:miter;stroke-opacity:1"
       d="m 58.011779,141.27075 2.560346,1.34114 -3.779557,1.34113"
       id="path2670" />
    <path
       style="fill:none;stroke:#00ffff;stroke-width:0.264583px;stroke-linecap:butt;stroke-linejoin:miter;stroke-opacity:1"
       d="m 52.403406,146.02568 -2.926109,2.19458 3.291872,0.73153"
       id="path2672" />
    <path
       style="fill:none;stroke:#ff00ff;stroke-width:0.264583px;stroke-linecap:butt;stroke-linejoin:miter;stroke-opacity:1"
       d="m 61.425573,117.98381 1.463054,-2.92611 1.09729,2.80419"
       id="path2674" />
    <path
       style="fill:none;stroke:#ff00ff;stroke-width:0.264583px;stroke-linecap:butt;stroke-linejoin:miter;stroke-opacity:1"
       d="m 75.568431,129.07864 1.828816,0.97537 0.121922,-2.80419"
       id="path2676" />
    <path
       style="fill:none;stroke:#ff00ff;stroke-width:0.264583px;stroke-linecap:butt;stroke-linejoin:miter;stroke-opacity:1"
       d="m 73.008084,149.80524 -3.779557,1.46305 3.535715,1.21922"
       id="path2678" />
    <path
       style="fill:none;stroke:#ff00ff;stroke-width:0.264583px;stroke-linecap:butt;stroke-linejoin:miter;stroke-opacity:1"
       d="m 37.529021,144.92839 4.389162,-0.36576 -3.291872,3.29187"
       id="path2680" />
    <path
       style="fill:none;stroke:#ff00ff;stroke-width:0.264583px;stroke-linecap:butt;stroke-linejoin:miter;stroke-opacity:1"
       d="m 55.451435,130.29785 2.804187,-1.95074 -0.487686,3.53571"
       id="path2682" />
    <path
       style="fill:none;stroke:#000000;stroke-width:0.264583px;stroke-linecap:butt;stroke-linejoin:miter;stroke-opacity:1"
       d="m 78.982222,137.24736 -3.048029,-0.97537 1.097291,3.29187"
       id="path2684" />
    <path
       style="fill:none;stroke:#000000;stroke-width:0.264583px;stroke-linecap:butt;stroke-linejoin:miter;stroke-opacity:1"
       d="m 68.497002,136.15007 2.804186,1.34113 -0.365762,-3.16995"
       id="path2686" />
    <path
       style="fill:none;stroke:#000000;stroke-width:0.264583px;stroke-linecap:butt;stroke-linejoin:miter;stroke-opacity:1"
       d="m 81.176804,144.68455 1.950738,2.43842 H 79.71375"
       id="path2688" />
  </g>
</svg>
