<?xml version="1.0" encoding="UTF-8" standalone="no"?>
<!-- Created with Inkscape (http://www.inkscape.org/) -->

<svg
   width="114.42075mm"
   height="33.412762mm"
   viewBox="0 0 114.42075 33.412762"
   version="1.1"
   id="svg5"
   inkscape:version="1.1.2 (b8e25be833, 2022-02-05)"
   sodipodi:docname="homology001.svg"
   xmlns:inkscape="http://www.inkscape.org/namespaces/inkscape"
   xmlns:sodipodi="http://sodipodi.sourceforge.net/DTD/sodipodi-0.dtd"
   xmlns="http://www.w3.org/2000/svg"
   xmlns:svg="http://www.w3.org/2000/svg">
  <sodipodi:namedview
     id="namedview7"
     pagecolor="#ffffff"
     bordercolor="#666666"
     borderopacity="1.0"
     inkscape:pageshadow="2"
     inkscape:pageopacity="0.0"
     inkscape:pagecheckerboard="0"
     inkscape:document-units="mm"
     showgrid="false"
     fit-margin-top="0"
     fit-margin-left="0"
     fit-margin-right="0"
     fit-margin-bottom="0"
     inkscape:zoom="1.0850589"
     inkscape:cx="135.01571"
     inkscape:cy="41.933207"
     inkscape:window-width="1440"
     inkscape:window-height="838"
     inkscape:window-x="-6"
     inkscape:window-y="-6"
     inkscape:window-maximized="1"
     inkscape:current-layer="layer1" />
  <defs
     id="defs2">
    <inkscape:path-effect
       effect="spiro"
       id="path-effect754"
       is_visible="true"
       lpeversion="1" />
    <inkscape:path-effect
       effect="simplify"
       id="path-effect752"
       is_visible="true"
       lpeversion="1"
       steps="1"
       threshold="0.00228916"
       smooth_angles="360"
       helper_size="0"
       simplify_individual_paths="false"
       simplify_just_coalesce="false" />
    <inkscape:path-effect
       effect="spiro"
       id="path-effect134"
       is_visible="true"
       lpeversion="1" />
    <inkscape:path-effect
       effect="simplify"
       id="path-effect132"
       is_visible="true"
       lpeversion="1"
       steps="1"
       threshold="0.00228916"
       smooth_angles="360"
       helper_size="0"
       simplify_individual_paths="false"
       simplify_just_coalesce="false" />
    <inkscape:path-effect
       effect="spiro"
       id="path-effect128"
       is_visible="true"
       lpeversion="1" />
    <inkscape:path-effect
       effect="simplify"
       id="path-effect126"
       is_visible="true"
       lpeversion="1"
       steps="1"
       threshold="0.00228916"
       smooth_angles="360"
       helper_size="0"
       simplify_individual_paths="false"
       simplify_just_coalesce="false" />
    <inkscape:path-effect
       effect="spiro"
       id="path-effect122"
       is_visible="true"
       lpeversion="1" />
    <inkscape:path-effect
       effect="simplify"
       id="path-effect120"
       is_visible="true"
       lpeversion="1"
       steps="1"
       threshold="0.00228916"
       smooth_angles="360"
       helper_size="0"
       simplify_individual_paths="false"
       simplify_just_coalesce="false" />
    <inkscape:path-effect
       effect="spiro"
       id="path-effect116"
       is_visible="true"
       lpeversion="1" />
    <inkscape:path-effect
       effect="simplify"
       id="path-effect114"
       is_visible="true"
       lpeversion="1"
       steps="1"
       threshold="0.00228916"
       smooth_angles="360"
       helper_size="0"
       simplify_individual_paths="false"
       simplify_just_coalesce="false" />
    <inkscape:path-effect
       effect="spiro"
       id="path-effect110"
       is_visible="true"
       lpeversion="1" />
    <inkscape:path-effect
       effect="simplify"
       id="path-effect108"
       is_visible="true"
       lpeversion="1"
       steps="1"
       threshold="0.00228916"
       smooth_angles="360"
       helper_size="0"
       simplify_individual_paths="false"
       simplify_just_coalesce="false" />
    <inkscape:path-effect
       effect="spiro"
       id="path-effect104"
       is_visible="true"
       lpeversion="1" />
    <inkscape:path-effect
       effect="simplify"
       id="path-effect102"
       is_visible="true"
       lpeversion="1"
       steps="1"
       threshold="0.00228916"
       smooth_angles="360"
       helper_size="0"
       simplify_individual_paths="false"
       simplify_just_coalesce="false" />
    <inkscape:path-effect
       effect="simplify"
       id="path-effect96"
       is_visible="true"
       lpeversion="1"
       steps="1"
       threshold="0.00228916"
       smooth_angles="360"
       helper_size="0"
       simplify_individual_paths="false"
       simplify_just_coalesce="false" />
    <inkscape:path-effect
       effect="spiro"
       id="path-effect92"
       is_visible="true"
       lpeversion="1" />
    <inkscape:path-effect
       effect="simplify"
       id="path-effect90"
       is_visible="true"
       lpeversion="1"
       steps="1"
       threshold="0.00228916"
       smooth_angles="360"
       helper_size="0"
       simplify_individual_paths="false"
       simplify_just_coalesce="false" />
    <inkscape:path-effect
       effect="spiro"
       id="path-effect86"
       is_visible="true"
       lpeversion="1" />
    <inkscape:path-effect
       effect="simplify"
       id="path-effect84"
       is_visible="true"
       lpeversion="1"
       steps="1"
       threshold="0.00228916"
       smooth_angles="360"
       helper_size="0"
       simplify_individual_paths="false"
       simplify_just_coalesce="false" />
    <inkscape:path-effect
       effect="simplify"
       id="path-effect78"
       is_visible="true"
       lpeversion="1"
       steps="1"
       threshold="0.00133333"
       smooth_angles="360"
       helper_size="0"
       simplify_individual_paths="false"
       simplify_just_coalesce="false" />
    <inkscape:path-effect
       effect="simplify"
       id="path-effect72"
       is_visible="true"
       lpeversion="1"
       steps="1"
       threshold="0.00133333"
       smooth_angles="360"
       helper_size="0"
       simplify_individual_paths="false"
       simplify_just_coalesce="false" />
    <inkscape:path-effect
       effect="simplify"
       id="path-effect66"
       is_visible="true"
       lpeversion="1"
       steps="1"
       threshold="0.000569948"
       smooth_angles="360"
       helper_size="0"
       simplify_individual_paths="false"
       simplify_just_coalesce="false" />
  </defs>
  <g
     inkscape:label="图层 1"
     inkscape:groupmode="layer"
     id="layer1"
     transform="translate(-20.678039,-23.352851)">
    <path
       style="fill:none;stroke:#000000;stroke-width:0.264583px;stroke-linecap:butt;stroke-linejoin:miter;stroke-opacity:1"
       d="m 65.593595,24.628079 c -2.326462,-1.29725 -5.232438,-1.50356 -7.718839,-0.547999 -1.968269,0.756435 -3.658103,2.219634 -4.679586,4.064315 -1.264043,2.282717 -1.475791,4.986218 -1.542487,7.594695 -0.101974,3.988233 0.09365,8.088524 1.660492,11.757503 1.120551,2.623928 2.956953,4.973211 5.3642,6.50481 3.09006,1.966035 6.880246,2.478163 10.541606,2.568742 1.475843,0.03651 2.952533,0.01246 4.428672,0.03391 1.237816,0.01799 2.477958,0.0679 3.71223,-0.02741 1.234273,-0.09531 2.471913,-0.341129 3.583782,-0.885427 1.068713,-0.523172 1.996647,-1.312624 2.744899,-2.237813 1.102147,-1.362767 1.818904,-3.017167 2.170221,-4.734268 0.351317,-1.717102 0.345074,-3.496371 0.09427,-5.231007 -0.678434,-4.69232 -3.143017,-9.021987 -6.473393,-12.39641 C 76.353779,27.924494 72.350749,25.495821 67.952196,24.8211 67.17184,24.701396 66.38303,24.636843 65.593595,24.628079 Z"
       id="path82"
       inkscape:path-effect="#path-effect84;#path-effect86"
       inkscape:original-d="M 65.593595,24.628079 C 57.359773,21.61559 52.048855,25.87921 51.69458,34.381772 51.082337,49.075632 55.704891,56.876493 70.958128,56.571429 73.764196,56.515309 81.02228,57.277456 83.394087,53.889162 92.03355,41.547072 78.116898,24.628079 65.593595,24.628079 Z" />
    <path
       style="fill:none;stroke:#000000;stroke-width:0.264583px;stroke-linecap:butt;stroke-linejoin:miter;stroke-opacity:1"
       d="M 41.697046,29.017241 C 38.188554,26.592045 33.716715,25.6043 29.513124,26.326043 c -1.625465,0.279087 -3.245542,0.823496 -4.521592,1.868352 -0.946089,0.774677 -1.668472,1.798111 -2.198711,2.899953 -0.530239,1.101842 -0.875647,2.283768 -1.14993,3.475396 -0.78419,3.406927 -1.001594,6.93845 -0.706188,10.42196 0.07851,0.925759 0.193771,1.852724 0.445129,2.747159 0.251358,0.894434 0.643728,1.759198 1.232894,2.477583 0.490168,0.597674 1.106543,1.082496 1.764767,1.487737 2.420165,1.489995 5.456262,1.903118 8.213046,1.212157 3.079497,-0.771845 5.730272,-2.845066 7.619361,-5.396613 2.750085,-3.714473 3.988475,-8.534631 3.281245,-13.101917 -0.291667,-1.883582 -0.901578,-3.717482 -1.796099,-5.400569 z"
       id="path88"
       inkscape:path-effect="#path-effect90;#path-effect92"
       inkscape:original-d="M 41.697046,29.017241 C 37.918636,27.366268 33.858886,26.563315 29.748766,26.334975 19.624,25.772488 18.5583,48.538966 23.896549,51.450738 37.673026,58.965179 48.140786,40.293801 41.697046,29.017241 Z" />
    <path
       style="fill:none;stroke:#000000;stroke-width:0.264583px;stroke-linecap:butt;stroke-linejoin:miter;stroke-opacity:1"
       d="m 114.60591,25.603447 c -2.59556,-1.814778 -6.10394,-2.243829 -9.06034,-1.10802 -1.76027,0.676271 -3.28413,1.847585 -4.70309,3.089532 -1.347708,1.179584 -2.63313,2.445246 -3.683107,3.896204 -1.049978,1.450959 -1.861352,3.098231 -2.187589,4.859283 -0.52985,2.860169 0.267867,5.867279 1.814429,8.330905 2.265954,3.609596 5.990547,6.07469 9.877937,7.821677 4.81304,2.162977 10.10499,3.394336 15.37196,3.073507 1.76939,-0.10778 3.53987,-0.392238 5.20149,-1.009773 1.66163,-0.617536 3.21506,-1.580188 4.38559,-2.911436 1.54139,-1.753033 2.33931,-4.036181 2.86377,-6.310813 0.49338,-2.139855 0.7664,-4.433045 0.007,-6.493436 -0.33407,-0.905993 -0.85819,-1.733811 -1.47278,-2.478595 -2.16592,-2.624748 -5.35161,-4.15978 -8.4708,-5.520348 -3.11909,-1.360523 -6.30836,-2.643707 -9.08952,-4.60455 -0.28995,-0.204425 -0.57493,-0.415887 -0.85462,-0.634137 z"
       id="path100"
       inkscape:path-effect="#path-effect102;#path-effect104"
       inkscape:original-d="m 114.60591,25.603447 c -3.45127,-1.923314 -7.86642,-2.373146 -11.21675,0 -29.822512,21.12428 26.85558,43.10099 30.96798,20.482758 0.45765,-2.51705 1.03405,-6.815201 -0.73152,-9.022167 -4.47856,-5.598186 -14.05292,-7.487158 -19.01971,-11.460591 z" />
    <path
       style="fill:none;stroke:#000000;stroke-width:0.264583px;stroke-linecap:butt;stroke-linejoin:miter;stroke-opacity:1"
       d="m 108.26601,33.406404 c -1.01183,-0.503898 -2.12366,-0.805987 -3.25136,-0.883409 -0.32475,-0.0223 -0.65277,-0.02603 -0.97395,0.02693 -0.32118,0.05296 -0.63668,0.164787 -0.8992,0.357258 -0.4243,0.311087 -0.68073,0.81533 -0.76777,1.334205 -0.12853,0.766232 0.0845,1.552275 0.40099,2.261828 0.322,0.721909 0.76363,1.406915 1.38324,1.897753 0.18202,0.144188 0.37987,0.27149 0.59741,0.352705 0.21754,0.08122 0.45629,0.114723 0.68426,0.07058 0.21484,-0.0416 0.41315,-0.150764 0.57881,-0.29376 0.16565,-0.142996 0.30021,-0.319036 0.41503,-0.505328 0.41173,-0.668024 0.57176,-1.458584 0.67785,-2.236097 0.12972,-0.950698 0.1897,-1.910902 0.17932,-2.870352"
       id="path106"
       inkscape:path-effect="#path-effect108;#path-effect110"
       inkscape:original-d="m 108.26601,33.406404 c -12.722352,-5.24773 -0.97537,14.934112 -0.97537,-0.487686" />
    <path
       style="fill:none;stroke:#000000;stroke-width:0.264583px;stroke-linecap:butt;stroke-linejoin:miter;stroke-opacity:1"
       d="m 118.99507,35.1133 c -0.57158,-0.09628 -1.13957,-0.213815 -1.70242,-0.35227 -0.55234,-0.135869 -1.11667,-0.293224 -1.68128,-0.224269 -0.1542,0.01883 -0.30713,0.05481 -0.4492,0.117654 -0.14207,0.06284 -0.27323,0.153254 -0.37397,0.271508 -0.0966,0.113341 -0.1633,0.249756 -0.20931,0.391361 -0.046,0.141605 -0.0721,0.288872 -0.0939,0.436149 -0.11585,0.779725 -0.11899,1.572665 -0.0705,2.359458 0.0337,0.547491 0.0924,1.093904 0.19146,1.633413 0.19693,1.072493 0.56406,2.133871 1.22785,2.998979 0.2033,0.264953 0.43456,0.511007 0.70519,0.706671 0.27064,0.195665 0.58233,0.339932 0.91242,0.390624 0.34876,0.05356 0.70918,0.0011 1.04035,-0.120645 0.33118,-0.121758 0.63456,-0.310989 0.9107,-0.530651 0.87522,-0.696222 1.47683,-1.694622 1.83342,-2.754612 0.3476,-1.033255 0.4703,-2.187245 0.0758,-3.203499 -0.30509,-0.785851 -0.91177,-1.444189 -1.65485,-1.842278 -0.21115,-0.113118 -0.43303,-0.206202 -0.66168,-0.277593 z"
       id="path112"
       inkscape:path-effect="#path-effect114;#path-effect116"
       inkscape:original-d="m 118.99507,35.1133 c -1.31736,0.05446 -2.86355,-1.205164 -4.14532,-0.243843 -0.6844,0.513302 -0.46646,3.930698 -0.24384,4.876847 2.49493,10.603431 11.19937,-2.362935 4.38916,-4.633004 z" />
    <path
       style="fill:none;stroke:#000000;stroke-width:0.264583px;stroke-linecap:butt;stroke-linejoin:miter;stroke-opacity:1"
       d="m 128.26108,44.379309 c -0.79251,-0.03565 -1.59486,0.213768 -2.22748,0.69244 -0.84215,0.637209 -1.35782,1.662828 -1.44423,2.71534 -0.0175,0.213534 -0.0185,0.429691 0.0185,0.640724 0.037,0.211033 0.11317,0.417419 0.23968,0.590333 0.15704,0.214639 0.39731,0.374109 0.66151,0.404591 0.17952,0.02071 0.36238,-0.01764 0.52896,-0.0877 0.16657,-0.07006 0.3184,-0.170923 0.4633,-0.278906 0.57245,-0.426608 1.04966,-0.970762 1.45665,-1.557323 0.23601,-0.340148 0.45033,-0.696374 0.71295,-1.016424 0.0749,-0.0913 0.15377,-0.179659 0.22148,-0.276437 0.0677,-0.09678 0.1245,-0.203208 0.14957,-0.318626 0.038,-0.17479 4.4e-4,-0.358816 -0.0691,-0.523622 -0.13224,-0.313535 -0.37227,-0.566364 -0.58827,-0.829306 -0.042,-0.05108 -0.0832,-0.102783 -0.1236,-0.155082 z"
       id="path118"
       inkscape:path-effect="#path-effect120;#path-effect122"
       inkscape:original-d="m 128.26108,44.379309 c -5.38805,-0.0038 -4.39028,9.26769 0,2.682267 0.9277,-1.391539 1.22504,-1.150969 0,-2.682267 z" />
    <path
       style="fill:none;stroke:#000000;stroke-width:0.264583px;stroke-linecap:butt;stroke-linejoin:miter;stroke-opacity:1"
       d="m 69.495072,32.674876 c -0.528711,-1.596421 -1.750138,-2.949952 -3.28407,-3.63926 -0.997814,-0.448391 -2.144725,-0.619134 -3.200013,-0.330942 -0.726899,0.198511 -1.385621,0.605731 -1.946331,1.109113 -0.56071,0.503381 -1.028625,1.101767 -1.454007,1.723731 -1.419545,2.075559 -2.392418,4.449541 -2.882733,6.915843 -0.389791,1.960665 -0.474708,4.006724 -0.0066,5.950189 0.132753,0.551207 0.311231,1.096223 0.594775,1.587197 0.283545,0.490973 0.677995,0.927689 1.174981,1.200558 0.701157,0.384968 1.560683,0.414419 2.331678,0.201375 1.268369,-0.35048 2.283898,-1.290395 3.160969,-2.271385 1.652025,-1.847765 3.004343,-3.950198 4.130251,-6.158309 0.740719,-1.452685 1.395928,-2.994247 1.487262,-4.622318 0.03124,-0.556844 -0.0045,-1.117414 -0.106121,-1.665792 z"
       id="path124"
       inkscape:path-effect="#path-effect126;#path-effect128"
       inkscape:original-d="M 69.495072,32.674876 C 61.825841,19.447448 52.573254,41.356506 58.034481,46.817734 62.212268,50.99552 70.854795,36.754045 69.495072,32.674876 Z" />
    <path
       style="fill:none;stroke:#000000;stroke-width:0.264583px;stroke-linecap:butt;stroke-linejoin:miter;stroke-opacity:1"
       d="m 80.955663,40.721676 c -0.550782,0.06081 -1.091528,0.211595 -1.594304,0.444564 -0.305153,0.141397 -0.606447,0.322083 -0.794948,0.600612 -0.109151,0.161281 -0.175325,0.348659 -0.214051,0.539515 -0.03873,0.190856 -0.05095,0.386023 -0.05938,0.580585 -0.0302,0.696329 -0.01311,1.394631 0.04888,2.088852 0.04753,0.532282 0.130139,1.085346 0.437373,1.522599 0.08646,0.123049 0.190113,0.235093 0.3128,0.322066 0.122687,0.08697 0.264978,0.148326 0.414188,0.167114 0.188482,0.02373 0.381091,-0.02115 0.553011,-0.10197 0.171921,-0.08082 0.32522,-0.196306 0.470171,-0.319099 0.565012,-0.478642 1.019692,-1.077859 1.386688,-1.721016 0.409409,-0.717486 0.715569,-1.499728 0.842857,-2.315939 0.03476,-0.222865 0.05617,-0.449427 0.03506,-0.673996 -0.02111,-0.224568 -0.08658,-0.44817 -0.213905,-0.634354 -0.195517,-0.285892 -0.524684,-0.462156 -0.865116,-0.525927 -0.250947,-0.04701 -0.51224,-0.03793 -0.759317,0.02639 z"
       id="path130"
       inkscape:path-effect="#path-effect132;#path-effect134"
       inkscape:original-d="m 80.955663,40.721676 c -2.363753,0.551812 -2.682264,0.706056 -2.682264,2.926106 0,9.282271 8.019635,-3.81567 2.682264,-2.926106 z" />
    <path
       style="fill:#b3b3b3;stroke:none;stroke-width:9.2161;stroke-miterlimit:4;stroke-dasharray:none"
       d="M 67.250205,56.202705 C 61.56225,55.73316 58.024292,54.023761 55.334967,50.445745 52.87504,47.172934 51.985464,43.662649 51.974663,37.185961 c -0.0081,-4.87218 0.243512,-6.443189 1.396474,-8.718452 0.742873,-1.465987 2.717988,-3.332139 4.234439,-4.00083 1.783284,-0.786353 4.45634,-0.875584 6.281124,-0.209673 0.80468,0.293649 2.306095,0.630786 3.336477,0.749192 8.757447,1.006367 17.233527,9.605642 18.486242,18.754934 0.772499,5.642033 -1.581692,10.511245 -5.851046,12.101811 -1.297337,0.483331 -8.513429,0.677789 -12.608168,0.339762 z m -5.523884,-8.929862 c 2.39449,-1.136258 6.566961,-7.089653 7.741335,-11.045549 0.623248,-2.099416 0.520261,-3.362066 -0.399306,-4.89558 -1.047068,-1.746137 -2.614888,-2.735297 -4.558252,-2.875868 -1.789711,-0.129458 -2.829372,0.339437 -4.245854,1.914904 -2.265743,2.520053 -3.775374,6.440225 -3.989578,10.360046 -0.166576,3.048277 0.292981,4.912714 1.511187,6.130919 0.687038,0.687036 0.982765,0.809466 1.955252,0.809466 0.630179,0 1.523529,-0.179252 1.985216,-0.398338 z M 81.282392,46.07268 c 0.976887,-1.109805 1.745933,-2.848552 1.745933,-3.947419 0,-1.434677 -0.972688,-1.961248 -2.781501,-1.505784 -1.799744,0.453181 -2.095347,0.90065 -2.095347,3.171836 0,2.422469 0.414105,3.392183 1.448591,3.392183 0.530633,0 0.945904,-0.274198 1.682324,-1.110816 z"
       id="path440" />
    <path
       style="fill:#b3b3b3;stroke:none;stroke-width:9.2161;stroke-miterlimit:4;stroke-dasharray:none"
       d="m 117.65609,55.204212 c -4.06303,-0.382603 -8.08437,-1.568193 -12.07235,-3.55923 -6.716615,-3.353329 -10.435312,-8.148828 -10.455976,-13.483653 -0.01275,-3.292012 1.398762,-6.049481 4.766497,-9.311617 3.561899,-3.450206 5.887549,-4.6341 9.103269,-4.6341 2.40705,0 3.71211,0.462643 6.49496,2.302457 2.36334,1.562476 3.69295,2.24712 8.37943,4.314743 1.87759,0.828371 4.15632,1.952046 5.06386,2.497058 2.09683,1.259224 4.12969,3.255404 4.98457,4.894625 1.7287,3.314756 0.11586,10.695361 -2.99866,13.722329 -2.67797,2.602682 -7.53997,3.796554 -13.2656,3.257388 z m 9.3562,-6.320557 c 0.46246,-0.406045 1.18618,-1.276437 1.60827,-1.934207 0.74351,-1.158661 0.75538,-1.219261 0.3806,-1.944 -0.3332,-0.644342 -0.52111,-0.748059 -1.35524,-0.748059 -2.26776,0 -4.16468,3.364333 -2.85284,5.059728 0.40275,0.520507 1.34155,0.33714 2.21921,-0.433462 z m -7.87838,-5.244621 c 1.61524,-0.835273 2.9376,-3.828108 2.56618,-5.807935 -0.17636,-0.94008 -1.09229,-2.188927 -1.93883,-2.643542 -0.58653,-0.314978 -3.15681,-0.90602 -3.9971,-0.919138 -0.30175,-0.0047 -0.7681,0.210891 -1.03633,0.479118 -0.41395,0.413948 -0.48768,0.812808 -0.48768,2.638007 0,2.697115 0.49199,4.410731 1.62711,5.667163 0.97673,1.081119 1.96634,1.258745 3.26665,0.586327 z m -13.00156,-4.877202 c 0.66507,-0.465836 1.28021,-2.46357 1.28021,-4.157646 0,-1.153996 0.046,-1.262029 0.48768,-1.146514 0.26823,0.07014 0.48769,0.0093 0.48769,-0.135303 0,-0.373734 -2.31571,-1.013256 -3.66901,-1.013256 -2.95329,0 -3.55363,3.194188 -1.08464,5.770973 1.08037,1.127532 1.64257,1.280961 2.49807,0.681746 z"
       id="path518" />
    <path
       style="fill:none;stroke:#000000;stroke-width:0.264583px;stroke-linecap:butt;stroke-linejoin:miter;stroke-opacity:1"
       d="m 30.967981,33.162562 c -0.626007,-0.09882 -1.265468,-0.11203 -1.895023,-0.03916 -0.146627,0.01697 -0.29351,0.03876 -0.4341,0.08373 -0.140591,0.04497 -0.275464,0.114199 -0.381852,0.216519 -0.133915,0.128794 -0.217878,0.310443 -0.22037,0.496225 -0.0018,0.132988 0.03692,0.264389 0.09704,0.383023 0.06012,0.118635 0.141177,0.225465 0.227747,0.326434 0.312409,0.364373 0.702125,0.659994 1.129881,0.877689 0.307485,0.156487 0.649695,0.275331 0.992406,0.235523 0.220829,-0.02565 0.43905,-0.122668 0.580267,-0.294369 0.09141,-0.111147 0.147135,-0.248522 0.176425,-0.389419 0.02929,-0.140898 0.03325,-0.28587 0.02973,-0.429737 -0.01229,-0.501603 -0.115151,-1.000852 -0.302149,-1.466458 z"
       id="path750"
       inkscape:path-effect="#path-effect752;#path-effect754"
       inkscape:original-d="m 30.967981,33.162562 c -7.536627,-0.917625 2.082298,6.246892 0,0 z" />
    <path
       style="fill:#b3b3b3;stroke:none;stroke-width:34.8325;stroke-miterlimit:4;stroke-dasharray:none"
       d="m 104.14181,199.17112 c -11.226965,-2.73378 -19.433029,-9.48616 -22.139875,-18.21784 -2.385793,-7.69604 -2.872799,-28.46165 -0.954013,-40.67844 4.641146,-29.54988 13.756439,-39.0801 38.300438,-40.04386 12.68219,-0.497983 19.83737,0.91121 30.14347,5.93669 6.40107,3.12129 7.16979,3.80098 9.12058,8.06423 7.59846,16.60567 7.05562,37.99378 -1.38828,54.69826 -6.33905,12.54049 -15.46711,21.90136 -26.35965,27.03195 -9.2288,4.34694 -17.81507,5.37803 -26.72267,3.20901 z m 14.33687,-65.17406 c 1.18772,-2.21926 0.34946,-8.29096 -1.28853,-9.33323 -1.52073,-0.96765 -6.52421,-0.86471 -9.30191,0.19137 -1.6055,0.61041 -2.36402,1.58887 -2.36402,3.04949 0,5.93302 10.41769,10.83237 12.95446,6.09237 z"
       id="path793"
       transform="scale(0.26458333)" />
  </g>
</svg>
