<?xml version="1.0" encoding="UTF-8" standalone="no"?>
<!-- Created with Inkscape (http://www.inkscape.org/) -->

<svg
   width="82.700806mm"
   height="33.498974mm"
   viewBox="0 0 82.700803 33.498974"
   version="1.1"
   id="svg5"
   inkscape:version="1.1.2 (b8e25be833, 2022-02-05)"
   sodipodi:docname="homology007.svg"
   xmlns:inkscape="http://www.inkscape.org/namespaces/inkscape"
   xmlns:sodipodi="http://sodipodi.sourceforge.net/DTD/sodipodi-0.dtd"
   xmlns:xlink="http://www.w3.org/1999/xlink"
   xmlns="http://www.w3.org/2000/svg"
   xmlns:svg="http://www.w3.org/2000/svg">
  <sodipodi:namedview
     id="namedview7"
     pagecolor="#ffffff"
     bordercolor="#666666"
     borderopacity="1.0"
     inkscape:pageshadow="2"
     inkscape:pageopacity="0.0"
     inkscape:pagecheckerboard="0"
     inkscape:document-units="mm"
     showgrid="false"
     fit-margin-top="0"
     fit-margin-left="0"
     fit-margin-right="0"
     fit-margin-bottom="0"
     inkscape:zoom="3.06901"
     inkscape:cx="75.43149"
     inkscape:cy="64.352999"
     inkscape:window-width="1440"
     inkscape:window-height="838"
     inkscape:window-x="-6"
     inkscape:window-y="-6"
     inkscape:window-maximized="1"
     inkscape:current-layer="layer1" />
  <defs
     id="defs2">
    <inkscape:path-effect
       effect="spiro"
       id="path-effect24302"
       is_visible="true"
       lpeversion="1" />
    <inkscape:path-effect
       effect="simplify"
       id="path-effect24300"
       is_visible="true"
       lpeversion="1"
       steps="1"
       threshold="0.00228916"
       smooth_angles="360"
       helper_size="0"
       simplify_individual_paths="false"
       simplify_just_coalesce="false" />
    <inkscape:path-effect
       effect="spiro"
       id="path-effect134"
       is_visible="true"
       lpeversion="1" />
    <inkscape:path-effect
       effect="simplify"
       id="path-effect132"
       is_visible="true"
       lpeversion="1"
       steps="1"
       threshold="0.00228916"
       smooth_angles="360"
       helper_size="0"
       simplify_individual_paths="false"
       simplify_just_coalesce="false" />
    <inkscape:path-effect
       effect="spiro"
       id="path-effect128"
       is_visible="true"
       lpeversion="1" />
    <inkscape:path-effect
       effect="simplify"
       id="path-effect126"
       is_visible="true"
       lpeversion="1"
       steps="1"
       threshold="0.00228916"
       smooth_angles="360"
       helper_size="0"
       simplify_individual_paths="false"
       simplify_just_coalesce="false" />
    <inkscape:path-effect
       effect="spiro"
       id="path-effect86"
       is_visible="true"
       lpeversion="1" />
    <inkscape:path-effect
       effect="simplify"
       id="path-effect84"
       is_visible="true"
       lpeversion="1"
       steps="1"
       threshold="0.00228916"
       smooth_angles="360"
       helper_size="0"
       simplify_individual_paths="false"
       simplify_just_coalesce="false" />
  </defs>
  <g
     inkscape:label="图层 1"
     inkscape:groupmode="layer"
     id="layer1"
     transform="translate(-22.724527,-23.510482)">
    <path
       style="fill:none;stroke:#000000;stroke-width:0.264583px;stroke-linecap:butt;stroke-linejoin:miter;stroke-opacity:1"
       d="m 36.820195,24.871921 c -2.326462,-1.29725 -5.232438,-1.50356 -7.718839,-0.547999 -1.968269,0.756435 -3.658103,2.219634 -4.679586,4.064315 -1.264043,2.282717 -1.475791,4.986218 -1.542487,7.594695 -0.101974,3.988233 0.09365,8.088524 1.660492,11.757503 1.120551,2.623928 2.956953,4.973211 5.3642,6.50481 3.09006,1.966035 6.880246,2.478163 10.541606,2.568742 1.475843,0.03651 2.952533,0.01246 4.428672,0.03391 1.237816,0.01799 2.477958,0.0679 3.71223,-0.02741 1.234273,-0.09531 2.471913,-0.341129 3.583782,-0.885427 1.068713,-0.523172 1.996647,-1.312624 2.744899,-2.237813 1.102147,-1.362767 1.818904,-3.017167 2.170221,-4.734268 0.351317,-1.717102 0.345074,-3.496371 0.09427,-5.231007 -0.678434,-4.69232 -3.143017,-9.021987 -6.473393,-12.39641 -3.125887,-3.16723 -7.128917,-5.595903 -11.52747,-6.270624 -0.780356,-0.119704 -1.569166,-0.184257 -2.358601,-0.193021 z"
       id="path82"
       inkscape:path-effect="#path-effect84;#path-effect86"
       inkscape:original-d="m 36.820195,24.871921 c -8.233822,-3.012489 -13.54474,1.251131 -13.899015,9.753693 -0.612243,14.69386 4.010311,22.494721 19.263548,22.189657 2.806068,-0.05612 10.064152,0.706027 12.435959,-2.682267 C 63.26015,41.790914 49.343498,24.871921 36.820195,24.871921 Z" />
    <path
       style="fill:none;stroke:#000000;stroke-width:0.264583px;stroke-linecap:butt;stroke-linejoin:miter;stroke-opacity:1"
       d="m 40.721672,32.918718 c -0.528711,-1.596421 -1.750138,-2.949952 -3.28407,-3.63926 -0.997814,-0.448391 -2.144725,-0.619134 -3.200013,-0.330942 -0.726899,0.198511 -1.385621,0.605731 -1.946331,1.109113 -0.56071,0.503381 -1.028625,1.101767 -1.454007,1.723731 -1.419545,2.075559 -2.392418,4.449541 -2.882733,6.915843 -0.389791,1.960665 -0.474708,4.006724 -0.0066,5.950189 0.132753,0.551207 0.311231,1.096223 0.594775,1.587197 0.283545,0.490973 0.677995,0.927689 1.174981,1.200558 0.701157,0.384968 1.560683,0.414419 2.331678,0.201375 1.268369,-0.35048 2.283898,-1.290395 3.160969,-2.271385 1.652025,-1.847765 3.004343,-3.950198 4.130251,-6.158309 0.740719,-1.452685 1.395928,-2.994247 1.487262,-4.622318 0.03124,-0.556844 -0.0045,-1.117414 -0.106121,-1.665792 z"
       id="path124"
       inkscape:path-effect="#path-effect126;#path-effect128"
       inkscape:original-d="M 40.721672,32.918718 C 33.052441,19.69129 23.799854,41.600348 29.261081,47.061576 33.438868,51.239362 42.081395,36.997887 40.721672,32.918718 Z" />
    <path
       style="fill:none;stroke:#000000;stroke-width:0.264583px;stroke-linecap:butt;stroke-linejoin:miter;stroke-opacity:1"
       d="m 52.182263,40.965518 c -0.550782,0.06081 -1.091528,0.211595 -1.594304,0.444564 -0.305153,0.141397 -0.606447,0.322083 -0.794948,0.600612 -0.109151,0.161281 -0.175325,0.348659 -0.214051,0.539515 -0.03873,0.190856 -0.05095,0.386023 -0.05938,0.580585 -0.0302,0.696329 -0.01311,1.394631 0.04888,2.088852 0.04753,0.532282 0.130139,1.085346 0.437373,1.522599 0.08646,0.123049 0.190113,0.235093 0.3128,0.322066 0.122687,0.08697 0.264978,0.148326 0.414188,0.167114 0.188482,0.02373 0.381091,-0.02115 0.553011,-0.10197 0.171921,-0.08082 0.32522,-0.196306 0.470171,-0.319099 0.565012,-0.478642 1.019692,-1.077859 1.386688,-1.721016 0.409409,-0.717486 0.715569,-1.499728 0.842857,-2.315939 0.03476,-0.222865 0.05617,-0.449427 0.03506,-0.673996 -0.02112,-0.224568 -0.08658,-0.44817 -0.213905,-0.634354 -0.195517,-0.285892 -0.524684,-0.462156 -0.865116,-0.525927 -0.250947,-0.04701 -0.51224,-0.03793 -0.759317,0.02639 z"
       id="path130"
       inkscape:path-effect="#path-effect132;#path-effect134"
       inkscape:original-d="m 52.182263,40.965518 c -2.363753,0.551812 -2.682264,0.706056 -2.682264,2.926106 0,9.282271 8.019635,-3.81567 2.682264,-2.926106 z" />
    <path
       style="fill:none;stroke:#ff0000;stroke-width:0.264583px;stroke-linecap:butt;stroke-linejoin:miter;stroke-opacity:1"
       d="m 43.092976,40.336476 c 1.922785,-0.656605 3.884982,-1.197774 5.872511,-1.619624 0.987689,-0.209635 2.000144,-0.390581 3.002721,-0.270933 0.604061,0.07209 1.217827,0.267143 1.653251,0.691987 0.27033,0.263762 0.457976,0.603148 0.585696,0.958585 0.127721,0.355438 0.19844,0.728524 0.260713,1.101043 0.172956,1.034639 0.284709,2.082095 0.272147,3.131015 -0.01464,1.22276 -0.21173,2.479147 -0.84698,3.524046 -0.694827,1.142895 -1.847549,1.929132 -3.028996,2.55617 -1.372678,0.728531 -2.877221,1.300056 -4.431146,1.28218 -1.309974,-0.01507 -2.629233,-0.474058 -3.594781,-1.359482 -0.603014,-0.552974 -1.058307,-1.258641 -1.353552,-2.021686 -0.295244,-0.763044 -0.433133,-1.582524 -0.446833,-2.400582 -0.03392,-2.025519 0.71429,-4.054264 2.055249,-5.572719 z"
       id="path24298"
       inkscape:path-effect="#path-effect24300;#path-effect24302"
       inkscape:original-d="m 43.092976,40.336476 c 1.724422,-0.854861 3.565411,-1.264742 5.43131,-1.551803 3.848457,-0.59207 5.545884,-0.893877 6.034791,3.017395 0.594257,4.754041 -0.09293,7.109154 -4.82783,9.138397 -7.726745,3.311462 -11.238873,-5.083267 -6.638271,-10.603989"
       sodipodi:nodetypes="csssc" />
    <path
       style="fill:#00ff00;stroke:#ff0000;stroke-width:0.156062"
       d="M 71.847273,125.71855 C 49.772092,124.75694 35.140303,118.99307 24.858743,107.20847 16.427991,97.54524 11.871617,86.46005 9.7214516,70.381002 8.9929747,64.933415 8.8831499,43.517538 9.5531493,37.561995 10.812143,26.370963 13.902221,18.888362 19.846177,12.637507 c 4.591665,-4.8287407 9.519575,-7.7783571 15.82934,-9.4747019 2.717508,-0.7305865 3.761344,-0.8349232 8.475528,-0.8471715 4.856045,-0.012617 5.682777,0.070727 8.543032,0.8612376 1.741689,0.4813635 4.307663,1.3819922 5.702164,2.001397 2.219455,0.9858293 3.063395,1.1686114 6.771353,1.4665534 13.78643,1.1077679 27.060606,6.6531474 39.594056,16.5406904 3.88562,3.065333 12.72072,12.037244 15.67237,15.915045 8.97515,11.79133 14.32202,23.534501 16.61628,36.493852 0.9742,5.502869 1.05604,14.917426 0.17138,19.713198 -2.34228,12.697513 -9.63077,23.158903 -19.15746,27.497273 -2.90852,1.32452 -6.67311,2.33856 -10.36622,2.79228 -2.42495,0.29792 -29.679724,0.39021 -35.850727,0.12139 z M 102.0089,107.34708 c 7.26428,-1.28635 17.23565,-6.48972 21.6332,-11.288863 4.48077,-4.889981 6.22051,-11.515635 5.54109,-21.102831 -0.63479,-8.957423 -1.74816,-13.082708 -4.18987,-15.524417 -2.34077,-2.340771 -4.45826,-3.012694 -9.48376,-3.009403 -3.47924,0.0023 -4.85733,0.175916 -9.45357,1.191139 -5.7293,1.265493 -12.651016,3.1155 -18.238411,4.87469 -3.345998,1.053483 -3.44906,1.115581 -4.955976,2.986093 -1.96393,2.437792 -4.248575,7.01939 -5.371837,10.772597 -0.793509,2.651403 -0.879576,3.447962 -0.897745,8.308869 -0.01779,4.759587 0.06744,5.656661 0.742969,7.820111 2.504645,8.021315 7.877961,13.154015 15.528832,14.833435 2.416248,0.53038 6.576489,0.59343 9.145078,0.13858 z M 42.23577,92.558072 c 5.563321,-1.179227 10.687296,-5.363228 17.7819,-14.519878 6.439982,-8.311762 13.114405,-20.636661 15.616195,-28.83666 0.805964,-2.641657 0.896446,-3.433511 0.912203,-7.983031 0.01564,-4.513139 -0.05961,-5.232622 -0.707186,-6.762356 -1.988253,-4.696727 -6.47773,-9.66147 -10.781812,-11.9232 -4.400888,-2.312602 -9.738551,-3.075517 -13.912056,-1.988457 -4.76671,1.241571 -9.515345,5.278936 -13.777046,11.713469 -8.10797,12.241824 -12.732314,28.928345 -11.535184,41.623647 1.071369,11.361635 4.742803,17.526427 11.192751,18.794009 2.074213,0.407636 2.81096,0.391015 5.210235,-0.117543 z"
       id="path24700"
       transform="matrix(0.26458333,0,0,0.26458333,20.678039,23.352851)" />
    <path
       style="fill:#00ffff;stroke:#ff0000;stroke-width:0.156062"
       d="m 92.822939,105.92124 c -6.914947,-1.57699 -12.05244,-6.608231 -14.349969,-14.053179 -0.941166,-3.04977 -0.856642,-11.459489 0.150463,-14.9703 0.930657,-3.244313 3.187721,-7.887067 5.013504,-10.312721 l 1.385666,-1.840933 4.246447,-1.329384 c 5.802284,-1.816451 11.81078,-3.417193 17.44289,-4.647011 3.81701,-0.833478 5.50709,-1.036841 8.79762,-1.058597 4.28846,-0.02835 5.67375,0.321788 8.09545,2.046191 2.23434,1.590992 3.60193,6.304602 4.26462,14.69867 0.55082,6.977138 -0.21614,12.570673 -2.28583,16.670699 -1.25824,2.492562 -4.66911,6.070215 -7.75861,8.137989 -3.35062,2.242536 -9.01197,4.940656 -12.57953,5.995216 -3.62392,1.07122 -9.304281,1.37454 -12.422721,0.66336 z M 118.50699,88.515564 c 5.70854,-5.285108 9.59403,-15.499406 7.54138,-19.825045 -0.66357,-1.398366 -2.43515,-2.609266 -4.23296,-2.893275 -2.81952,-0.445414 -9.49523,1.546608 -11.43432,3.411985 -1.5281,1.470009 -1.83454,2.567516 -1.97766,7.082911 -0.0746,2.355071 0.0275,5.494443 0.2269,6.976383 1.02687,7.630291 5.01436,9.748671 9.87666,5.247041 z"
       id="path24967"
       transform="matrix(0.26458333,0,0,0.26458333,20.678039,23.352851)" />
    <use
       x="0"
       y="0"
       xlink:href="#path82"
       id="use25086"
       transform="translate(47.933481,-0.0862113)"
       width="100%"
       height="100%" />
    <use
       x="0"
       y="0"
       xlink:href="#path124"
       id="use25088"
       transform="translate(47.933481,-0.0862113)"
       width="100%"
       height="100%" />
    <use
       x="0"
       y="0"
       xlink:href="#path130"
       id="use25090"
       transform="translate(47.933481,-0.0862113)"
       width="100%"
       height="100%" />
    <use
       x="0"
       y="0"
       xlink:href="#path24298"
       id="use25092"
       transform="translate(41.89869,4.3105648)"
       width="100%"
       height="100%" />
    <path
       style="fill:#00ffff;stroke:#ff0000;stroke-width:0.156062"
       d="m 251.18019,122.21314 c -6.91494,-1.57699 -12.05244,-6.60823 -14.34997,-14.05318 -0.94116,-3.04977 -0.85664,-11.45949 0.15047,-14.9703 0.93065,-3.244313 3.18772,-7.887067 5.0135,-10.312721 l 1.38567,-1.840934 4.24644,-1.329384 c 5.80229,-1.81645 11.81079,-3.417193 17.44289,-4.64701 3.81702,-0.833478 5.50709,-1.036841 8.79762,-1.058597 4.28847,-0.02836 5.67375,0.321788 8.09545,2.04619 2.23434,1.590992 3.60193,6.304603 4.26462,14.698671 0.55083,6.977138 -0.21614,12.570675 -2.28582,16.670695 -1.25824,2.49257 -4.66911,6.07022 -7.75862,8.13799 -3.35061,2.24254 -9.01196,4.94066 -12.57952,5.99522 -3.62392,1.07121 -9.30429,1.37454 -12.42273,0.66336 z"
       id="path25295"
       transform="matrix(0.26458333,0,0,0.26458333,20.678039,23.352851)" />
    <path
       style="fill:#00ff00;stroke:#ff0000;stroke-width:0.156062"
       d="M 253.01318,125.39272 C 230.938,124.4311 216.30621,118.66723 206.02465,106.88263 197.5939,97.219402 193.03753,86.134212 190.88736,70.055164 c -0.72847,-5.447587 -0.8383,-26.863464 -0.1683,-32.819007 1.25899,-11.191032 4.34907,-18.673633 10.29303,-24.924488 4.59166,-4.8287407 9.51957,-7.7783571 15.82934,-9.4747018 2.71751,-0.7305866 3.76134,-0.8349232 8.47553,-0.8471715 4.85604,-0.012617 5.68277,0.070728 8.54303,0.8612376 1.74169,0.4813635 4.30766,1.3819921 5.70216,2.0013969 2.21946,0.9858293 3.0634,1.1686114 6.77136,1.4665534 13.78643,1.107768 27.0606,6.6531474 39.59405,16.5406904 3.88562,3.065333 12.72073,12.037244 15.67237,15.915045 8.97515,11.79133 14.32202,23.534501 16.61628,36.493852 0.9742,5.502869 1.05604,14.917426 0.17138,19.713198 -2.34228,12.697511 -9.63077,23.158901 -19.15746,27.497281 -2.90851,1.32451 -6.67311,2.33855 -10.36622,2.79227 -2.42495,0.29792 -29.67972,0.39021 -35.85073,0.1214 z m 7.35298,-1.75374 c 7.26428,-1.28635 17.23564,-6.48972 21.63319,-11.28886 4.48078,-4.88999 6.22051,-11.51564 5.5411,-21.102836 -0.6348,-8.957422 -1.74816,-13.082707 -4.18987,-15.524416 -2.34077,-2.340771 -4.45826,-3.012695 -9.48377,-3.009404 -3.47923,0.0023 -4.85733,0.175917 -9.45356,1.19114 -5.7293,1.265493 -12.65102,3.1155 -18.23842,4.874689 -3.34599,1.053483 -3.44906,1.115581 -4.95597,2.986093 -1.96393,2.437793 -4.24858,7.019391 -5.37184,10.772598 -0.79351,2.651402 -0.87958,3.447962 -0.89774,8.308866 -0.0178,4.75959 0.0674,5.65666 0.74296,7.82011 2.50465,8.02132 7.87796,13.15401 15.52884,14.83344 2.41624,0.53038 6.57648,0.59342 9.14508,0.13858 z M 223.40168,92.232234 c 5.56332,-1.179227 10.6873,-5.363228 17.7819,-14.519878 6.43998,-8.311762 13.11441,-20.636661 15.6162,-28.83666 0.80596,-2.641657 0.89644,-3.433511 0.9122,-7.983031 0.0156,-4.513139 -0.0596,-5.232622 -0.70719,-6.762356 -1.98825,-4.696727 -6.47773,-9.66147 -10.78181,-11.9232 -4.40089,-2.312602 -9.73855,-3.075517 -13.91205,-1.988457 -4.76671,1.241571 -9.51535,5.278936 -13.77705,11.713469 -8.10797,12.241824 -12.73231,28.928345 -11.53518,41.623647 1.07136,11.361635 4.7428,17.526427 11.19275,18.794009 2.07421,0.407636 2.81096,0.391015 5.21023,-0.117543 z m 76.27122,-4.042509 c 5.70855,-5.285108 9.59403,-15.499405 7.54138,-19.825044 -0.66357,-1.398367 -2.43515,-2.609265 -4.23296,-2.893275 -2.81951,-0.445414 -9.49522,1.546609 -11.43432,3.411986 -1.52809,1.470008 -1.83453,2.567515 -1.97766,7.082909 -0.0746,2.355072 0.0275,5.494443 0.2269,6.976383 1.02688,7.630292 5.01436,9.748672 9.87666,5.247041 z"
       id="path25601"
       transform="matrix(0.26458333,0,0,0.26458333,20.678039,23.352851)" />
  </g>
</svg>
