<?xml version="1.0" encoding="UTF-8" standalone="no"?>
<!-- Created with Inkscape (http://www.inkscape.org/) -->

<svg
   xmlns:dc="http://purl.org/dc/elements/1.1/"
   xmlns:cc="http://creativecommons.org/ns#"
   xmlns:rdf="http://www.w3.org/1999/02/22-rdf-syntax-ns#"
   xmlns:svg="http://www.w3.org/2000/svg"
   xmlns="http://www.w3.org/2000/svg"
   xmlns:xlink="http://www.w3.org/1999/xlink"
   xmlns:sodipodi="http://sodipodi.sourceforge.net/DTD/sodipodi-0.dtd"
   xmlns:inkscape="http://www.inkscape.org/namespaces/inkscape"
   width="93.909958mm"
   height="90.828903mm"
   viewBox="0 0 93.909956 90.828895"
   version="1.1"
   id="svg3425"
   inkscape:version="0.92.1 r15371"
   sodipodi:docname="unknots223.svg"
   inkscape:export-filename="F:\EToccBai\blogio\lupuvmap.png"
   inkscape:export-xdpi="96"
   inkscape:export-ydpi="96">
  <defs
     id="defs3419" />
  <sodipodi:namedview
     id="base"
     pagecolor="#ffffff"
     bordercolor="#666666"
     borderopacity="1.0"
     inkscape:pageopacity="0.0"
     inkscape:pageshadow="2"
     inkscape:zoom="1.4"
     inkscape:cx="79.466649"
     inkscape:cy="192.72775"
     inkscape:document-units="mm"
     inkscape:current-layer="layer1"
     showgrid="false"
     showguides="true"
     inkscape:guide-bbox="true"
     fit-margin-top="0"
     fit-margin-left="0"
     fit-margin-right="0"
     fit-margin-bottom="0"
     inkscape:window-width="1440"
     inkscape:window-height="837"
     inkscape:window-x="-8"
     inkscape:window-y="-8"
     inkscape:window-maximized="1"
     inkscape:snap-global="false" />
  <metadata
     id="metadata3422">
    <rdf:RDF>
      <cc:Work
         rdf:about="">
        <dc:format>image/svg+xml</dc:format>
        <dc:type
           rdf:resource="http://purl.org/dc/dcmitype/StillImage" />
        <dc:title />
      </cc:Work>
    </rdf:RDF>
  </metadata>
  <g
     inkscape:label="Layer 1"
     inkscape:groupmode="layer"
     id="layer1"
     transform="translate(-5.6431345,9.8834641)">
    <text
       xml:space="preserve"
       style="font-style:normal;font-weight:normal;font-size:6.74712038px;line-height:1.25;font-family:sans-serif;letter-spacing:0px;word-spacing:0px;fill:#000000;fill-opacity:1;stroke:none;stroke-width:0.34395833;stroke-miterlimit:4;stroke-dasharray:none"
       x="31.238949"
       y="21.834225"
       id="use5517"><tspan
         sodipodi:role="line"
         id="tspan5581"
         x="31.238949"
         y="21.834225"
         style="font-style:normal;font-variant:normal;font-weight:normal;font-stretch:normal;font-family:'Times New Roman';-inkscape-font-specification:'Times New Roman, ';stroke-width:0.34395833;stroke-miterlimit:4;stroke-dasharray:none">1</tspan></text>
    <text
       xml:space="preserve"
       style="font-style:normal;font-weight:normal;font-size:6.74712038px;line-height:1.25;font-family:sans-serif;letter-spacing:0px;word-spacing:0px;fill:#000000;fill-opacity:1;stroke:none;stroke-width:0.34395833;stroke-miterlimit:4;stroke-dasharray:none"
       x="53.108841"
       y="0.68256265"
       id="use5519"><tspan
         sodipodi:role="line"
         id="tspan5569"
         x="53.108841"
         y="0.68256265"
         style="font-style:normal;font-variant:normal;font-weight:normal;font-stretch:normal;font-family:'Times New Roman';-inkscape-font-specification:'Times New Roman, ';stroke-width:0.34395833;stroke-miterlimit:4;stroke-dasharray:none">2</tspan></text>
    <text
       id="use5521"
       y="-0.20011252"
       x="16.552094"
       style="font-style:normal;font-weight:normal;font-size:6.74712038px;line-height:1.25;font-family:sans-serif;letter-spacing:0px;word-spacing:0px;fill:#000000;fill-opacity:1;stroke:none;stroke-width:0.34395833;stroke-miterlimit:4;stroke-dasharray:none"
       xml:space="preserve"><tspan
         style="font-style:normal;font-variant:normal;font-weight:normal;font-stretch:normal;font-family:'Times New Roman';-inkscape-font-specification:'Times New Roman, ';stroke-width:0.34395833;stroke-miterlimit:4;stroke-dasharray:none"
         y="-0.20011252"
         x="16.552094"
         id="tspan5577"
         sodipodi:role="line">3</tspan></text>
    <text
       xml:space="preserve"
       style="font-style:normal;font-weight:normal;font-size:6.74712038px;line-height:1.25;font-family:sans-serif;letter-spacing:0px;word-spacing:0px;fill:#000000;fill-opacity:1;stroke:none;stroke-width:0.34395833;stroke-miterlimit:4;stroke-dasharray:none"
       x="12.907578"
       y="36.40659"
       id="use5523"><tspan
         sodipodi:role="line"
         id="tspan5573"
         x="12.907578"
         y="36.40659"
         style="font-style:normal;font-variant:normal;font-weight:normal;font-stretch:normal;font-family:'Times New Roman';-inkscape-font-specification:'Times New Roman, ';stroke-width:0.34395833;stroke-miterlimit:4;stroke-dasharray:none">4</tspan></text>
    <use
       x="0"
       y="0"
       xlink:href="#use5523"
       id="use5525"
       transform="translate(57.811755,-14.397826)"
       width="100%"
       height="100%"
       style="stroke-width:0.34395833;stroke-miterlimit:4;stroke-dasharray:none" />
    <use
       x="0"
       y="0"
       xlink:href="#use5521"
       id="use5527"
       transform="translate(73.034655,1.9992958)"
       width="100%"
       height="100%"
       style="stroke-width:0.34395833;stroke-miterlimit:4;stroke-dasharray:none" />
    <use
       x="0"
       y="0"
       xlink:href="#use5517"
       id="use5529"
       transform="translate(56.9873,16.284445)"
       width="100%"
       height="100%"
       style="stroke-width:0.34395833;stroke-miterlimit:4;stroke-dasharray:none" />
    <use
       x="0"
       y="0"
       xlink:href="#use5529"
       id="use5531"
       transform="translate(-57.107225,15.434479)"
       width="100%"
       height="100%"
       style="stroke-width:0.34395833;stroke-miterlimit:4;stroke-dasharray:none" />
    <use
       x="0"
       y="0"
       xlink:href="#use5519"
       id="use5533"
       transform="translate(-38.913625,72.871239)"
       width="100%"
       height="100%"
       style="stroke-width:0.34395833;stroke-miterlimit:4;stroke-dasharray:none" />
    <use
       x="0"
       y="0"
       xlink:href="#use5533"
       id="use5535"
       transform="translate(71.715335,2.4647128)"
       width="100%"
       height="100%"
       style="stroke-width:0.34395833;stroke-miterlimit:4;stroke-dasharray:none" />
    <use
       x="0"
       y="0"
       xlink:href="#use5525"
       id="use5537"
       transform="translate(-1.318705,31.940339)"
       width="100%"
       height="100%"
       style="stroke-width:0.34395833;stroke-miterlimit:4;stroke-dasharray:none" />
    <use
       x="0"
       y="0"
       xlink:href="#use5527"
       id="use5539"
       transform="translate(-38.606395,71.776929)"
       width="100%"
       height="100%"
       style="stroke-width:0.34395833;stroke-miterlimit:4;stroke-dasharray:none" />
    <path
       id="use6973"
       style="fill:none;stroke:#0000ff;stroke-width:0.34395832;stroke-linecap:butt;stroke-linejoin:miter;stroke-miterlimit:4;stroke-dasharray:none;stroke-opacity:1"
       d="M 54.138617,4.3139004 C 37.481781,15.230488 20.824944,26.074043 20.824944,3.3245409 c 0,-22.7494949 16.656836,-11.1356787 33.313673,0.5511682 8.328418,5.8434234 35.298185,18.3161419 25.745016,21.3360239 -9.553168,3.019882 -4.478448,-21.8390312 6.750242,-21.8390312 22.457375,0 10.697495,16.6568362 -0.989352,33.3136732 -11.686847,16.656836 -23.300663,33.313673 -0.551168,33.313673 22.749505,0 -9.393425,-37.11347 1.863135,-56.783854 C 98.21305,-6.4541899 70.795454,-6.6026878 54.138617,4.3139004 Z"
       inkscape:connector-curvature="0"
       sodipodi:nodetypes="ssszssszs" />
    <path
       id="path16155"
       style="fill:none;stroke:#ff0000;stroke-width:0.34395832;stroke-linecap:butt;stroke-linejoin:miter;stroke-miterlimit:4;stroke-dasharray:none;stroke-opacity:1"
       d="m 19.710605,65.631837 c 0,-22.457372 16.656836,-10.697494 33.313673,0.989353 16.656837,11.686847 33.313673,23.300664 33.313673,0.551167 0,-11.374751 -14.241227,-27.289428 -43.17869,-23.33251 C 14.221798,47.796764 -2.065705,1.4470558 20.391665,1.4470558 c 22.457365,0 10.697485,16.6568362 -0.989361,33.3136722 -11.6868465,16.656837 -23.300659,33.313673 -0.551159,33.313673 11.374747,0 18.2341,-26.869524 32.812218,-14.560933 C 66.24148,65.822059 19.710605,88.089209 19.710605,65.631837 Z"
       inkscape:connector-curvature="0"
       sodipodi:nodetypes="ssszssszs" />
    <path
       style="opacity:0.98900003;fill:#b3b3b3;fill-opacity:1;stroke:none;stroke-width:2.14285707;stroke-miterlimit:4;stroke-dasharray:none;stroke-dashoffset:0;stroke-opacity:1"
       d="M 161.68093,275.93833 C 144.2,263.73252 119.15164,248.13613 113.86482,246.16556 c -1.28999,-0.48082 4.67564,-6.09976 10.86982,-10.23813 3.25096,-2.17199 8.23311,-4.75696 11.07143,-5.74438 4.47125,-1.55549 6.01928,-1.74972 11.58915,-1.45402 7.61558,0.4043 11.61849,1.88707 20.11531,7.45118 6.56088,4.29636 11.46965,9.35508 13.93481,14.36049 1.36913,2.77997 1.66417,4.51875 1.66417,9.80761 0,5.72609 -0.24523,6.94614 -2.24414,11.16502 -2.14268,4.52232 -7.27825,12.12872 -8.0869,11.97768 -0.21079,-0.0394 -5.20468,-3.43808 -11.09754,-7.55268 z"
       id="path16161"
       inkscape:connector-curvature="0"
       transform="matrix(0.26458333,0,0,0.26458333,5.6431345,-9.8834641)" />
    <path
       style="opacity:0.98900003;fill:#b3b3b3;fill-opacity:1;stroke:none;stroke-width:2.14285707;stroke-miterlimit:4;stroke-dasharray:none;stroke-dashoffset:0;stroke-opacity:1"
       d="m 78.466649,98.085569 c -9.33028,-3.260124 -15.344706,-11.9094 -18.294211,-26.30869 -0.563301,-2.75 -1.223604,-10.177896 -1.46734,-16.506436 l -0.443156,-11.506435 5.638068,0.305126 c 3.100937,0.167819 8.245499,0.76741 11.432361,1.332425 22.857898,4.052593 30.940799,15.218614 25.983949,35.895193 -1.529523,6.380109 -5.459976,16.572444 -6.722842,17.433474 -1.424479,0.971218 -12.804172,0.516324 -16.126829,-0.644657 z"
       id="path16163"
       inkscape:connector-curvature="0"
       transform="matrix(0.26458333,0,0,0.26458333,5.6431345,-9.8834641)" />
    <path
       style="opacity:0.98900003;fill:#b3b3b3;fill-opacity:1;stroke:none;stroke-width:2.14285707;stroke-miterlimit:4;stroke-dasharray:none;stroke-dashoffset:0;stroke-opacity:1"
       d="m 303.59312,163.09059 c -2.97574,-13.43211 -3.83209,-19.95452 -4.2159,-32.11078 -0.61657,-19.52841 1.35061,-28.48447 10.02289,-45.631503 6.91021,-13.663026 9.76313,-23.803128 8.7062,-30.944344 l -0.45692,-3.087202 3.44434,0.476095 c 24.29416,3.358067 34.57739,13.604987 31.67968,31.567803 -2.59193,16.067253 -11.96889,34.514181 -34.4143,67.701931 -5.84531,8.64286 -11.20859,16.46617 -11.91842,17.38514 -1.28877,1.66851 -1.29278,1.66096 -2.84757,-5.35714 z"
       id="path16165"
       inkscape:connector-curvature="0"
       transform="matrix(0.26458333,0,0,0.26458333,5.6431345,-9.8834641)" />
  </g>
</svg>
