<?xml version="1.0" encoding="UTF-8" standalone="no"?>
<!-- Created with Inkscape (http://www.inkscape.org/) -->

<svg
   xmlns:dc="http://purl.org/dc/elements/1.1/"
   xmlns:cc="http://creativecommons.org/ns#"
   xmlns:rdf="http://www.w3.org/1999/02/22-rdf-syntax-ns#"
   xmlns:svg="http://www.w3.org/2000/svg"
   xmlns="http://www.w3.org/2000/svg"
   xmlns:xlink="http://www.w3.org/1999/xlink"
   xmlns:sodipodi="http://sodipodi.sourceforge.net/DTD/sodipodi-0.dtd"
   xmlns:inkscape="http://www.inkscape.org/namespaces/inkscape"
   width="196.50465mm"
   height="99.186539mm"
   viewBox="0 0 196.50465 99.186529"
   version="1.1"
   id="svg3425"
   inkscape:version="0.92.1 r15371"
   sodipodi:docname="unknots221.svg"
   inkscape:export-filename="F:\EToccBai\blogio\lupuvmap.png"
   inkscape:export-xdpi="96"
   inkscape:export-ydpi="96">
  <defs
     id="defs3419" />
  <sodipodi:namedview
     id="base"
     pagecolor="#ffffff"
     bordercolor="#666666"
     borderopacity="1.0"
     inkscape:pageopacity="0.0"
     inkscape:pageshadow="2"
     inkscape:zoom="0.98994949"
     inkscape:cx="337.49813"
     inkscape:cy="154.89524"
     inkscape:document-units="mm"
     inkscape:current-layer="layer1"
     showgrid="false"
     showguides="true"
     inkscape:guide-bbox="true"
     fit-margin-top="0"
     fit-margin-left="0"
     fit-margin-right="0"
     fit-margin-bottom="0"
     inkscape:window-width="1440"
     inkscape:window-height="837"
     inkscape:window-x="-8"
     inkscape:window-y="-8"
     inkscape:window-maximized="1"
     inkscape:snap-global="false" />
  <metadata
     id="metadata3422">
    <rdf:RDF>
      <cc:Work
         rdf:about="">
        <dc:format>image/svg+xml</dc:format>
        <dc:type
           rdf:resource="http://purl.org/dc/dcmitype/StillImage" />
        <dc:title></dc:title>
      </cc:Work>
    </rdf:RDF>
  </metadata>
  <g
     inkscape:label="Layer 1"
     inkscape:groupmode="layer"
     id="layer1"
     transform="translate(-5.6615322,9.8650664)">
    <g
       id="g14279">
      <text
         id="use5517"
         y="21.834225"
         x="31.238949"
         style="font-style:normal;font-weight:normal;font-size:6.74712038px;line-height:1.25;font-family:sans-serif;letter-spacing:0px;word-spacing:0px;fill:#000000;fill-opacity:1;stroke:none;stroke-width:0.34395832;stroke-miterlimit:4;stroke-dasharray:none"
         xml:space="preserve"><tspan
           style="font-style:normal;font-variant:normal;font-weight:normal;font-stretch:normal;font-family:'Times New Roman';-inkscape-font-specification:'Times New Roman, ';stroke-width:0.34395832;stroke-miterlimit:4;stroke-dasharray:none"
           y="21.834225"
           x="31.238949"
           id="tspan5581"
           sodipodi:role="line">1</tspan></text>
      <text
         id="use5519"
         y="0.68256265"
         x="53.108841"
         style="font-style:normal;font-weight:normal;font-size:6.74712038px;line-height:1.25;font-family:sans-serif;letter-spacing:0px;word-spacing:0px;fill:#000000;fill-opacity:1;stroke:none;stroke-width:0.34395832;stroke-miterlimit:4;stroke-dasharray:none"
         xml:space="preserve"><tspan
           style="font-style:normal;font-variant:normal;font-weight:normal;font-stretch:normal;font-family:'Times New Roman';-inkscape-font-specification:'Times New Roman, ';stroke-width:0.34395832;stroke-miterlimit:4;stroke-dasharray:none"
           y="0.68256265"
           x="53.108841"
           id="tspan5569"
           sodipodi:role="line">2</tspan></text>
      <text
         xml:space="preserve"
         style="font-style:normal;font-weight:normal;font-size:6.74712038px;line-height:1.25;font-family:sans-serif;letter-spacing:0px;word-spacing:0px;fill:#000000;fill-opacity:1;stroke:none;stroke-width:0.34395832;stroke-miterlimit:4;stroke-dasharray:none"
         x="16.552094"
         y="-0.20011252"
         id="use5521"><tspan
           sodipodi:role="line"
           id="tspan5577"
           x="16.552094"
           y="-0.20011252"
           style="font-style:normal;font-variant:normal;font-weight:normal;font-stretch:normal;font-family:'Times New Roman';-inkscape-font-specification:'Times New Roman, ';stroke-width:0.34395832;stroke-miterlimit:4;stroke-dasharray:none">3</tspan></text>
      <text
         id="use5523"
         y="36.40659"
         x="12.907578"
         style="font-style:normal;font-weight:normal;font-size:6.74712038px;line-height:1.25;font-family:sans-serif;letter-spacing:0px;word-spacing:0px;fill:#000000;fill-opacity:1;stroke:none;stroke-width:0.34395832;stroke-miterlimit:4;stroke-dasharray:none"
         xml:space="preserve"><tspan
           style="font-style:normal;font-variant:normal;font-weight:normal;font-stretch:normal;font-family:'Times New Roman';-inkscape-font-specification:'Times New Roman, ';stroke-width:0.34395832;stroke-miterlimit:4;stroke-dasharray:none"
           y="36.40659"
           x="12.907578"
           id="tspan5573"
           sodipodi:role="line">4</tspan></text>
      <use
         style="stroke-width:0.34395832;stroke-miterlimit:4;stroke-dasharray:none"
         height="100%"
         width="100%"
         transform="translate(57.811755,-14.397826)"
         id="use5525"
         xlink:href="#use5523"
         y="0"
         x="0" />
      <use
         style="stroke-width:0.34395832;stroke-miterlimit:4;stroke-dasharray:none"
         height="100%"
         width="100%"
         transform="translate(73.034655,1.9992958)"
         id="use5527"
         xlink:href="#use5521"
         y="0"
         x="0" />
      <use
         style="stroke-width:0.34395832;stroke-miterlimit:4;stroke-dasharray:none"
         height="100%"
         width="100%"
         transform="translate(56.9873,16.284445)"
         id="use5529"
         xlink:href="#use5517"
         y="0"
         x="0" />
      <use
         style="stroke-width:0.34395832;stroke-miterlimit:4;stroke-dasharray:none"
         height="100%"
         width="100%"
         transform="translate(-57.107225,15.434479)"
         id="use5531"
         xlink:href="#use5529"
         y="0"
         x="0" />
      <use
         style="stroke-width:0.34395832;stroke-miterlimit:4;stroke-dasharray:none"
         height="100%"
         width="100%"
         transform="translate(-38.913625,72.871239)"
         id="use5533"
         xlink:href="#use5519"
         y="0"
         x="0" />
      <use
         style="stroke-width:0.34395832;stroke-miterlimit:4;stroke-dasharray:none"
         height="100%"
         width="100%"
         transform="translate(71.715335,2.4647128)"
         id="use5535"
         xlink:href="#use5533"
         y="0"
         x="0" />
      <use
         style="stroke-width:0.34395832;stroke-miterlimit:4;stroke-dasharray:none"
         height="100%"
         width="100%"
         transform="translate(-1.318705,31.940339)"
         id="use5537"
         xlink:href="#use5525"
         y="0"
         x="0" />
      <use
         style="stroke-width:0.34395832;stroke-miterlimit:4;stroke-dasharray:none"
         height="100%"
         width="100%"
         transform="translate(-38.606395,71.776929)"
         id="use5539"
         xlink:href="#use5527"
         y="0"
         x="0" />
      <path
         sodipodi:nodetypes="zzz"
         inkscape:connector-curvature="0"
         id="path6967"
         d="m 20.391665,1.4470558 c 44.91473,0 -47.03952,66.6273452 -1.54052,66.6273452 45.49899,0 -43.37422,-66.6273452 1.54052,-66.6273452 z"
         style="fill:none;stroke:#ff0000;stroke-width:0.34395832;stroke-linecap:butt;stroke-linejoin:miter;stroke-miterlimit:4;stroke-dasharray:none;stroke-opacity:1" />
      <use
         style="stroke-width:0.34395832;stroke-miterlimit:4;stroke-dasharray:none"
         height="100%"
         width="100%"
         transform="rotate(90,19.477005,67.111572)"
         id="use6969"
         xlink:href="#path6967"
         y="0"
         x="0" />
      <path
         style="fill:none;stroke:#0000ff;stroke-width:0.34395832;stroke-linecap:butt;stroke-linejoin:miter;stroke-miterlimit:4;stroke-dasharray:none;stroke-opacity:1"
         d="m 86.633875,3.3727018 c 44.914745,0 -47.03951,66.6273462 -1.54052,66.6273462 45.499005,0 -43.37422,-66.6273462 1.54052,-66.6273462 z"
         id="path6971"
         inkscape:connector-curvature="0"
         sodipodi:nodetypes="zzz" />
      <use
         style="stroke-width:0.34395832;stroke-miterlimit:4;stroke-dasharray:none"
         height="100%"
         width="100%"
         transform="rotate(90,86.296903,4.5280889)"
         id="use6973"
         xlink:href="#path6971"
         y="0"
         x="0" />
    </g>
    <use
       x="0"
       y="0"
       xlink:href="#g14279"
       id="use14281"
       transform="translate(102.6315)"
       width="100%"
       height="100%" />
    <path
       style="fill:#cccccc;stroke:#000000;stroke-width:1.32291663;stroke-linecap:butt;stroke-linejoin:miter;stroke-miterlimit:4;stroke-dasharray:none;stroke-opacity:1"
       d="M 20.686086,1.4890498 C 19.470819,9.3737958 22.62513,16.064863 30.702455,16.513604 38.038555,8.8141869 29.40068,0.03661918 20.686086,1.4890498 Z"
       id="path14287"
       inkscape:connector-curvature="0" />
    <path
       style="fill:none;stroke:#000000;stroke-width:1.32291663;stroke-linecap:butt;stroke-linejoin:miter;stroke-miterlimit:4;stroke-dasharray:none;stroke-opacity:1"
       d="m 31.174925,54.500211 c 7.92123,3.065733 15.19988,7.490987 21.166666,12.662202"
       id="path14289"
       inkscape:connector-curvature="0" />
    <path
       style="fill:none;stroke:#000000;stroke-width:1.32291663;stroke-linecap:butt;stroke-linejoin:miter;stroke-miterlimit:4;stroke-dasharray:none;stroke-opacity:1"
       d="m 87.493378,3.473425 c 23.911642,0.75195 4.632156,23.384355 -1.322917,32.316964"
       id="path14291"
       inkscape:connector-curvature="0"
       sodipodi:nodetypes="cc" />
    <path
       style="fill:#cccccc;stroke:#000000;stroke-width:1.32291663;stroke-linecap:butt;stroke-linejoin:miter;stroke-miterlimit:4;stroke-dasharray:none;stroke-opacity:1"
       d="M 122.0782,34.278483 C 114.60136,20.726391 98.405872,2.4079162 123.21213,1.4890498 c 0.031,6.7774685 1.45799,17.5908702 10.01637,15.2135422 -2.72303,6.359974 -6.45909,11.501626 -11.1503,17.575891 z"
       id="path14293"
       inkscape:connector-curvature="0"
       sodipodi:nodetypes="cccc" />
    <path
       style="fill:none;stroke:#000000;stroke-width:1.32291663;stroke-linecap:butt;stroke-linejoin:miter;stroke-miterlimit:4;stroke-dasharray:none;stroke-opacity:1"
       d="M 177.24857,16.405085 C 172.70156,5.2245026 179.77342,3.4655754 189.81024,2.9079742"
       id="path14295"
       inkscape:connector-curvature="0" />
    <path
       style="fill:none;stroke:#000000;stroke-width:1.32291663;stroke-linecap:butt;stroke-linejoin:miter;stroke-miterlimit:4;stroke-dasharray:none;stroke-opacity:1"
       d="m 188.20662,36.183031 c -2.95908,6.731452 -8.62168,11.889888 -11.8935,18.8425"
       id="path14297"
       inkscape:connector-curvature="0" />
    <path
       style="fill:none;stroke:#000000;stroke-width:1.32291663;stroke-linecap:butt;stroke-linejoin:miter;stroke-miterlimit:4;stroke-dasharray:none;stroke-opacity:1"
       d="m 133.68363,54.357357 c 7.54349,3.053678 13.42946,7.856782 20.57976,12.561668"
       id="path14299"
       inkscape:connector-curvature="0"
       sodipodi:nodetypes="cc" />
    <path
       style="fill:none;stroke:#ff0000;stroke-width:0.79374999;stroke-linecap:butt;stroke-linejoin:miter;stroke-miterlimit:4;stroke-dasharray:none;stroke-opacity:1"
       d="m 47.049924,32.76658 c 4.132085,1.027006 5.370483,2.647246 7.370538,5.480653"
       id="path14303"
       inkscape:connector-curvature="0" />
    <path
       style="fill:none;stroke:#ff0000;stroke-width:0.79374999;stroke-linecap:butt;stroke-linejoin:miter;stroke-miterlimit:4;stroke-dasharray:none;stroke-opacity:1"
       d="m 53.475521,30.876698 c -1.42848,2.757694 -3.564446,5.420392 -5.10268,7.9375"
       id="path14305"
       inkscape:connector-curvature="0" />
    <path
       style="fill:none;stroke:#00ff00;stroke-width:0.79374999;stroke-linecap:butt;stroke-linejoin:miter;stroke-miterlimit:4;stroke-dasharray:none;stroke-opacity:1"
       d="m 147.4026,34.278483 c 8.81661,8.621824 5.48913,3.630769 11.33929,-4.346726"
       id="path14307"
       inkscape:connector-curvature="0" />
    <path
       style="opacity:0.98900003;fill:#e6e6e6;fill-opacity:1;stroke:#00ff00;stroke-width:2.14285707;stroke-miterlimit:4;stroke-dasharray:none;stroke-dashoffset:0;stroke-opacity:1"
       d="m 460.21272,361.56851 c -5.10481,-1.1675 -7.9873,-2.7381 -11.53361,-6.28441 -5.49763,-5.49763 -9.75127,-17.73107 -10.82929,-31.14497 l -0.35878,-4.46428 h 3.88899 c 10.85869,0 24.76787,-2.66328 32.18737,-6.16313 5.80939,-2.74034 11.69051,-8.79538 13.79142,-14.19928 2.13496,-5.49145 2.21324,-15.31455 0.18353,-23.03045 -0.74924,-2.84821 -1.16347,-5.17857 -0.92052,-5.17857 1.28645,0 19.47169,9.78203 27.51946,14.80301 10.46902,6.53158 44.90691,29.98215 45.17374,30.76117 0.20356,0.5943 -14.77706,10.43039 -30.53088,20.0462 -32.66774,19.93972 -54.87181,27.98791 -68.57143,24.85471 z"
       id="path14309"
       inkscape:connector-curvature="0"
       transform="matrix(0.26458333,0,0,0.26458333,5.6615322,-16.252914)" />
    <path
       style="opacity:0.98900003;fill:#e6e6e6;fill-opacity:1;stroke:#00ff00;stroke-width:2.14285707;stroke-miterlimit:4;stroke-dasharray:none;stroke-dashoffset:0;stroke-opacity:1"
       d="m 689.235,322.45004 c 0.64788,-3.99239 -1.04686,-22.79846 -2.60279,-28.88249 -3.06802,-11.99666 -7.7208,-18.76414 -15.5467,-22.6127 -4.6186,-2.2713 -5.08005,-2.35143 -13.54149,-2.35143 -4.81798,0 -8.75994,-0.0932 -8.75992,-0.20703 3e-5,-0.11386 0.68767,-1.55489 1.52811,-3.20227 2.8249,-5.53726 8.61727,-14.31984 18.70186,-28.35634 11.82422,-16.45785 16.82603,-24.08258 19.93803,-30.3934 1.25484,-2.54467 2.4536,-4.61957 2.66393,-4.61089 0.3868,0.016 1.62063,1.91038 14.64391,22.48422 14.77851,23.3467 23.14242,39.34049 28.01507,53.57142 2.56376,7.48766 2.69105,8.29381 2.70685,17.14286 0.016,8.95301 -0.0586,9.42145 -2.08205,13.07397 -5.57342,10.06063 -18.09069,15.50195 -37.69361,16.38557 l -8.36367,0.37701 z"
       id="path14311"
       inkscape:connector-curvature="0"
       transform="matrix(0.26458333,0,0,0.26458333,5.6615322,-16.252914)" />
    <path
       style="opacity:0.98900003;fill:#e6e6e6;fill-opacity:1;stroke:#00ff00;stroke-width:2.14285707;stroke-miterlimit:4;stroke-dasharray:none;stroke-dashoffset:0;stroke-opacity:1"
       d="m 634.14129,115.51615 c -8.85168,-4.6084 -19.98295,-11.24982 -29.28571,-17.473189 -13.67314,-9.147058 -30.35204,-20.782627 -30.32072,-21.152394 0.0506,-0.596774 18.46003,-12.394619 33.89214,-21.720026 35.06427,-21.188842 57.80695,-27.977016 71.06743,-21.21202 4.09006,2.086592 9.56061,8.559654 11.65462,13.7904 1.76233,4.402231 3.59692,12.448081 4.30728,18.890213 0.331,3.001778 0.3095,3.035714 -1.9231,3.035714 -4.51283,0 -20.94496,2.203667 -26.79841,3.593859 -12.26785,2.913608 -20.38894,8.498699 -24.06283,16.548654 -1.84777,4.048701 -2.04728,5.217184 -1.98804,11.643199 0.0497,5.39004 0.4995,8.58894 1.83299,13.03572 0.97192,3.24107 1.57429,5.88416 1.3386,5.87354 -0.2357,-0.0106 -4.60711,-2.19477 -9.71425,-4.85367 z"
       id="path14313"
       inkscape:connector-curvature="0"
       transform="matrix(0.26458333,0,0,0.26458333,5.6615322,-16.252914)" />
    <text
       xml:space="preserve"
       style="font-style:normal;font-weight:normal;font-size:3.52777767px;line-height:1.25;font-family:sans-serif;letter-spacing:0px;word-spacing:0px;fill:#000000;fill-opacity:1;stroke:none;stroke-width:0.26458332"
       x="28.935467"
       y="89.236031"
       id="text14317"><tspan
         sodipodi:role="line"
         id="tspan14315"
         x="28.935467"
         y="89.236031"
         style="font-size:5.64444447px;stroke-width:0.26458332">Roseman Move 5</tspan></text>
    <text
       id="text14321"
       y="88.968758"
       x="130.70602"
       style="font-style:normal;font-weight:normal;font-size:3.52777767px;line-height:1.25;font-family:sans-serif;letter-spacing:0px;word-spacing:0px;fill:#000000;fill-opacity:1;stroke:none;stroke-width:0.26458332"
       xml:space="preserve"><tspan
         style="font-size:5.64444447px;stroke-width:0.26458332"
         y="88.968758"
         x="130.70602"
         id="tspan14319"
         sodipodi:role="line">Roseman Move 7</tspan></text>
  </g>
</svg>
